<svg width="36" height="36" viewBox="0 0 36 36" fill="none" xmlns="http://www.w3.org/2000/svg">
<path d="M30 16.4985H33C33 8.8035 27.1905 3 19.485 3V6C25.578 6 30 10.4145 30 16.4985Z" fill="white"/>
<path d="M19.5 12C22.6545 12 24 13.3455 24 16.5H27C27 11.6625 24.3375 8.99999 19.5 8.99999V12ZM24.633 20.1645C24.3448 19.9025 23.966 19.7628 23.5767 19.7748C23.1874 19.7869 22.818 19.9497 22.5465 20.229L18.957 23.9205C18.093 23.7555 16.356 23.214 14.568 21.4305C12.78 19.641 12.2385 17.8995 12.078 17.0415L15.7665 13.4505C16.0461 13.1792 16.2092 12.8097 16.2212 12.4203C16.2333 12.0309 16.0933 11.6521 15.831 11.364L10.2885 5.26949C10.0261 4.98053 9.66132 4.80525 9.27173 4.78088C8.88214 4.75651 8.4984 4.88498 8.202 5.13899L4.947 7.93049C4.68767 8.19077 4.53288 8.53717 4.512 8.90399C4.4895 9.27899 4.0605 18.162 10.9485 25.053C16.9575 31.0605 24.4845 31.5 26.5575 31.5C26.8605 31.5 27.0465 31.491 27.096 31.488C27.4628 31.4675 27.809 31.312 28.068 31.0515L30.858 27.795C31.1122 27.4988 31.2409 27.1152 31.2168 26.7256C31.1927 26.336 31.0177 25.9711 30.729 25.7085L24.633 20.1645Z" fill="white"/>
</svg>
