<svg width="1728" height="936" viewBox="0 0 1728 936" fill="none" xmlns="http://www.w3.org/2000/svg">
<g clip-path="url(#clip0_50_446)">
<path d="M1413 545C1452.5 547 1572.4 522 1736 406L1830.5 799.5L1528.5 870.5L237.5 829C110.167 757 -114.9 595.8 3.49997 527C121.9 458.2 295.5 510.333 367.5 545C526.5 576.5 865.2 620.6 948 545C1030.8 469.4 1292.5 513.5 1413 545Z" fill="#F3A41B" fill-opacity="0.1"/>
<path d="M599.5 595C243.9 706.2 49.6667 324 -3 119V1098L1890.5 1156.5V496C1851.33 456.833 1753.2 402 1674 496C1575 613.5 1266.5 595 1174 573C1081.5 551 1044 456 599.5 595Z" fill="#F3A318" fill-opacity="0.25"/>
<path d="M917 617C314.6 806.2 -46.3333 284.5 -151.5 0V1119H1907V889.5C1828 719.833 1519.4 427.8 917 617Z" fill="url(#paint0_linear_50_446)"/>
<g opacity="0.1" filter="url(#filter0_f_50_446)">
<ellipse cx="1580.5" cy="468" rx="229.5" ry="229" fill="#F4B443"/>
</g>
</g>
<defs>
<filter id="filter0_f_50_446" x="1201" y="89" width="759" height="758" filterUnits="userSpaceOnUse" color-interpolation-filters="sRGB">
<feFlood flood-opacity="0" result="BackgroundImageFix"/>
<feBlend mode="normal" in="SourceGraphic" in2="BackgroundImageFix" result="shape"/>
<feGaussianBlur stdDeviation="75" result="effect1_foregroundBlur_50_446"/>
</filter>
<linearGradient id="paint0_linear_50_446" x1="877.75" y1="0" x2="877.75" y2="1119" gradientUnits="userSpaceOnUse">
<stop offset="0.290807" stop-color="#F4B443"/>
<stop offset="0.82864" stop-color="#F29F0E"/>
</linearGradient>
<clipPath id="clip0_50_446">
<rect width="1728" height="936" fill="white"/>
</clipPath>
</defs>
</svg>
