<svg width="222" height="64" viewBox="0 0 222 64" fill="none" xmlns="http://www.w3.org/2000/svg">
<g filter="url(#filter0_d_20_276)">
<rect x="4" y="3" width="214" height="56" rx="10" fill="#277080" shape-rendering="crispEdges"/>
<path d="M53.232 25.8H55.76V30.472H60.832V25.8H63.36V37H60.832V32.584H55.76V37H53.232V25.8ZM73.9538 28.392V37H71.5058V35.48C70.9191 36.5573 69.9591 37.096 68.6258 37.096C67.6764 37.096 66.9191 36.8027 66.3538 36.216C65.7991 35.6187 65.5218 34.8133 65.5218 33.8V28.392H67.9858V33.096C67.9858 33.64 68.1298 34.0667 68.4178 34.376C68.7058 34.6853 69.1004 34.84 69.6018 34.84C70.1884 34.8293 70.6524 34.6213 70.9938 34.216C71.3351 33.8107 71.5058 33.288 71.5058 32.648V28.392H73.9538ZM81.6043 28.312C82.4043 28.312 83.1083 28.4987 83.7163 28.872C84.3349 29.2347 84.8096 29.752 85.1403 30.424C85.4816 31.096 85.6523 31.8693 85.6523 32.744C85.6523 33.608 85.4869 34.3707 85.1562 35.032C84.8256 35.6827 84.3563 36.1893 83.7483 36.552C83.1509 36.9147 82.4523 37.096 81.6523 37.096C81.0549 37.096 80.5216 36.984 80.0523 36.76C79.5936 36.5253 79.2043 36.1893 78.8843 35.752V37H76.4203V25.128H78.8843V29.656C79.1936 29.2187 79.5776 28.888 80.0363 28.664C80.5056 28.4293 81.0283 28.312 81.6043 28.312ZM81.0283 35.048C81.6576 35.048 82.1696 34.8293 82.5643 34.392C82.9589 33.944 83.1562 33.368 83.1562 32.664C83.1562 31.9707 82.9589 31.4053 82.5643 30.968C82.1696 30.52 81.6576 30.296 81.0283 30.296C80.3989 30.296 79.8816 30.52 79.4763 30.968C79.0816 31.4053 78.8843 31.9707 78.8843 32.664C78.8843 33.3787 79.0816 33.9547 79.4763 34.392C79.8816 34.8293 80.3989 35.048 81.0283 35.048ZM95.4538 28.392V37H93.0058V35.48C92.4191 36.5573 91.4591 37.096 90.1258 37.096C89.1764 37.096 88.4191 36.8027 87.8538 36.216C87.2991 35.6187 87.0218 34.8133 87.0218 33.8V28.392H89.4858V33.096C89.4858 33.64 89.6298 34.0667 89.9178 34.376C90.2058 34.6853 90.6004 34.84 91.1018 34.84C91.6884 34.8293 92.1524 34.6213 92.4938 34.216C92.8351 33.8107 93.0058 33.288 93.0058 32.648V28.392H95.4538ZM103.28 28.296C104.24 28.296 105.003 28.5947 105.568 29.192C106.144 29.7893 106.432 30.5893 106.432 31.592V37H103.968V32.312C103.968 31.768 103.814 31.3413 103.504 31.032C103.206 30.712 102.795 30.552 102.272 30.552C101.664 30.5627 101.184 30.776 100.832 31.192C100.48 31.5973 100.304 32.12 100.304 32.76V37H97.8403V28.392H100.304V29.896C100.902 28.8507 101.894 28.3173 103.28 28.296ZM116.623 28.392V36.2C116.623 37.0107 116.431 37.7147 116.047 38.312C115.663 38.92 115.124 39.384 114.431 39.704C113.738 40.0347 112.938 40.2 112.031 40.2C111.327 40.2 110.655 40.0987 110.015 39.896C109.386 39.6933 108.81 39.416 108.287 39.064L109.199 37.336C110.01 37.912 110.9 38.2 111.871 38.2C112.575 38.2 113.135 38.024 113.551 37.672C113.967 37.3307 114.175 36.8667 114.175 36.28V35.304C113.887 35.7093 113.524 36.0187 113.087 36.232C112.65 36.4453 112.148 36.552 111.583 36.552C110.847 36.552 110.191 36.3813 109.615 36.04C109.05 35.688 108.607 35.1973 108.287 34.568C107.978 33.9387 107.823 33.2133 107.823 32.392C107.823 31.5813 107.978 30.872 108.287 30.264C108.607 29.6453 109.05 29.1653 109.615 28.824C110.191 28.4827 110.847 28.312 111.583 28.312C112.138 28.312 112.634 28.424 113.071 28.648C113.508 28.8613 113.876 29.1653 114.175 29.56V28.392H116.623ZM112.159 34.68C112.756 34.68 113.242 34.4773 113.615 34.072C113.988 33.656 114.175 33.1173 114.175 32.456C114.175 31.7947 113.988 31.256 113.615 30.84C113.242 30.424 112.756 30.216 112.159 30.216C111.562 30.216 111.076 30.424 110.703 30.84C110.33 31.256 110.138 31.7947 110.127 32.456C110.138 33.1173 110.324 33.656 110.687 34.072C111.06 34.4773 111.551 34.68 112.159 34.68ZM118.872 28.392H121.336V37H118.872V28.392ZM120.088 24.568C120.482 24.568 120.802 24.696 121.048 24.952C121.304 25.208 121.432 25.5387 121.432 25.944C121.432 26.3493 121.304 26.68 121.048 26.936C120.802 27.192 120.482 27.32 120.088 27.32C119.704 27.32 119.384 27.192 119.128 26.936C118.882 26.6693 118.76 26.3387 118.76 25.944C118.76 25.5387 118.882 25.208 119.128 24.952C119.384 24.696 119.704 24.568 120.088 24.568ZM137.882 37H134.858L131.626 32.408L130.026 34.184V37H127.498V25.8H130.026V31.016L134.666 25.8H137.61L133.386 30.456L137.882 37ZM144.239 37V35.992C143.951 36.3547 143.577 36.632 143.119 36.824C142.66 37.016 142.132 37.112 141.535 37.112C140.628 37.112 139.908 36.8667 139.375 36.376C138.841 35.8747 138.575 35.224 138.575 34.424C138.575 33.6133 138.857 32.984 139.423 32.536C139.999 32.0773 140.809 31.8427 141.855 31.832H144.223V31.672C144.223 31.2133 144.068 30.8613 143.759 30.616C143.46 30.36 143.017 30.232 142.431 30.232C141.631 30.232 140.777 30.4827 139.871 30.984L139.103 29.288C139.785 28.9467 140.425 28.696 141.023 28.536C141.62 28.376 142.276 28.296 142.991 28.296C144.143 28.296 145.033 28.568 145.663 29.112C146.303 29.656 146.628 30.4133 146.639 31.384L146.655 37H144.239ZM142.223 35.352C142.735 35.352 143.177 35.2293 143.551 34.984C143.924 34.7387 144.148 34.4293 144.223 34.056V33.288H142.286C141.807 33.288 141.449 33.368 141.215 33.528C140.991 33.6773 140.879 33.9227 140.879 34.264C140.879 34.5947 140.996 34.8613 141.231 35.064C141.476 35.256 141.807 35.352 142.223 35.352ZM160.17 28.296C161.119 28.296 161.871 28.5947 162.426 29.192C162.991 29.7787 163.274 30.5787 163.274 31.592V37H160.826V32.312C160.826 31.7573 160.676 31.3253 160.378 31.016C160.079 30.7067 159.674 30.552 159.162 30.552C158.575 30.5627 158.111 30.7707 157.77 31.176C157.428 31.5813 157.258 32.104 157.258 32.744V37H154.81V32.312C154.81 31.768 154.66 31.3413 154.362 31.032C154.074 30.712 153.674 30.552 153.162 30.552C152.575 30.5627 152.106 30.7707 151.754 31.176C151.412 31.5813 151.242 32.104 151.242 32.744V37H148.778V28.392H151.242V29.88C151.839 28.8453 152.81 28.3173 154.154 28.296C154.879 28.296 155.492 28.472 155.994 28.824C156.495 29.1653 156.852 29.6507 157.066 30.28C157.343 29.6293 157.743 29.1387 158.266 28.808C158.799 28.4773 159.434 28.3067 160.17 28.296ZM165.403 28.392H167.867V37H165.403V28.392ZM166.619 24.568C167.013 24.568 167.333 24.696 167.579 24.952C167.835 25.208 167.963 25.5387 167.963 25.944C167.963 26.3493 167.835 26.68 167.579 26.936C167.333 27.192 167.013 27.32 166.619 27.32C166.235 27.32 165.915 27.192 165.659 26.936C165.413 26.6693 165.291 26.3387 165.291 25.944C165.291 25.5387 165.413 25.208 165.659 24.952C165.915 24.696 166.235 24.568 166.619 24.568Z" fill="white"/>
</g>
<defs>
<filter id="filter0_d_20_276" x="0" y="0" width="222" height="64" filterUnits="userSpaceOnUse" color-interpolation-filters="sRGB">
<feFlood flood-opacity="0" result="BackgroundImageFix"/>
<feColorMatrix in="SourceAlpha" type="matrix" values="0 0 0 0 0 0 0 0 0 0 0 0 0 0 0 0 0 0 127 0" result="hardAlpha"/>
<feOffset dy="1"/>
<feGaussianBlur stdDeviation="2"/>
<feComposite in2="hardAlpha" operator="out"/>
<feColorMatrix type="matrix" values="0 0 0 0 0 0 0 0 0 0 0 0 0 0 0 0 0 0 0.35 0"/>
<feBlend mode="normal" in2="BackgroundImageFix" result="effect1_dropShadow_20_276"/>
<feBlend mode="normal" in="SourceGraphic" in2="effect1_dropShadow_20_276" result="shape"/>
</filter>
</defs>
</svg>
