<svg width="275" height="108" viewBox="0 0 275 108" fill="none" xmlns="http://www.w3.org/2000/svg">
<rect width="275" height="108" rx="10" fill="#EDEDED"/>
<path d="M58.968 28.8C60.376 28.8 61.464 29.136 62.232 29.808C63.0107 30.48 63.4 31.4293 63.4 32.656C63.4 33.936 63.0107 34.9333 62.232 35.648C61.464 36.352 60.376 36.704 58.968 36.704H56.52V40H54.376V28.8H58.968ZM58.856 34.816C59.6667 34.816 60.2853 34.64 60.712 34.288C61.1493 33.936 61.368 33.4133 61.368 32.72C61.368 32.0373 61.1493 31.5253 60.712 31.184C60.2853 30.8427 59.6667 30.672 58.856 30.672H56.52V34.816H58.856ZM68.6609 31.376C70.0262 31.376 71.0502 31.7653 71.7329 32.544C72.4262 33.3227 72.7729 34.416 72.7729 35.824C72.7729 36.1013 72.7675 36.3093 72.7569 36.448H66.4369C66.5755 37.056 66.8582 37.536 67.2849 37.888C67.7222 38.2293 68.2555 38.4 68.8849 38.4C69.3222 38.4 69.7382 38.32 70.1329 38.16C70.5382 37.9893 70.8902 37.7493 71.1889 37.44L72.3089 38.608C71.8822 39.0773 71.3595 39.44 70.7409 39.696C70.1329 39.952 69.4555 40.08 68.7089 40.08C67.8342 40.08 67.0609 39.8987 66.3889 39.536C65.7275 39.1733 65.2155 38.6667 64.8529 38.016C64.4902 37.3547 64.3089 36.5973 64.3089 35.744C64.3089 34.8907 64.4902 34.1333 64.8529 33.472C65.2262 32.8107 65.7435 32.2987 66.4049 31.936C67.0662 31.5627 67.8182 31.376 68.6609 31.376ZM70.8689 35.056C70.8475 34.4267 70.6395 33.9253 70.2449 33.552C69.8502 33.1787 69.3275 32.992 68.6769 32.992C68.0689 32.992 67.5569 33.1787 67.1409 33.552C66.7355 33.9147 66.4849 34.416 66.3889 35.056H70.8689ZM74.6416 28.128H76.7216V40H74.6416V28.128ZM87.2938 31.44V40H85.1978V38.416C84.6218 39.5253 83.6298 40.08 82.2218 40.08C81.2618 40.08 80.5044 39.7867 79.9498 39.2C79.3951 38.6133 79.1178 37.8133 79.1178 36.8V31.44H81.2138V36.192C81.2138 36.7893 81.3738 37.2587 81.6938 37.6C82.0244 37.9413 82.4778 38.112 83.0538 38.112C83.7151 38.1013 84.2378 37.8667 84.6218 37.408C85.0058 36.9493 85.1978 36.368 85.1978 35.664V31.44H87.2938ZM94.9458 40V38.96C94.6471 39.3333 94.2631 39.616 93.7938 39.808C93.3244 40 92.7858 40.096 92.1778 40.096C91.5804 40.096 91.0524 39.984 90.5938 39.76C90.1458 39.5253 89.7991 39.2053 89.5538 38.8C89.3084 38.3947 89.1858 37.9413 89.1858 37.44C89.1858 36.64 89.4684 36.016 90.0338 35.568C90.5991 35.1093 91.3991 34.8747 92.4338 34.864H94.9298V34.64C94.9298 34.1387 94.7644 33.7493 94.4338 33.472C94.1031 33.1947 93.6231 33.056 92.9938 33.056C92.1831 33.056 91.3351 33.3227 90.4498 33.856L89.6978 32.416C90.3698 32.0427 90.9778 31.776 91.5218 31.616C92.0764 31.4453 92.7218 31.36 93.4578 31.36C94.5671 31.36 95.4258 31.6267 96.0338 32.16C96.6524 32.6933 96.9671 33.44 96.9778 34.4L96.9938 40H94.9458ZM92.6738 38.496C93.2711 38.496 93.7831 38.3573 94.2098 38.08C94.6364 37.792 94.8764 37.44 94.9298 37.024V36.256H92.7698C92.2151 36.256 91.8044 36.3413 91.5378 36.512C91.2818 36.672 91.1538 36.9387 91.1538 37.312C91.1538 37.6747 91.2871 37.9627 91.5538 38.176C91.8311 38.3893 92.2044 38.496 92.6738 38.496ZM104.479 31.36C105.461 31.36 106.234 31.6587 106.799 32.256C107.365 32.8427 107.647 33.6427 107.647 34.656V40H105.551V35.264C105.551 34.6667 105.381 34.1973 105.039 33.856C104.698 33.504 104.234 33.328 103.647 33.328C102.954 33.3387 102.405 33.5733 101.999 34.032C101.605 34.4907 101.407 35.0773 101.407 35.792V40H99.3273V31.44H101.407V33.04C101.994 31.9413 103.018 31.3813 104.479 31.36ZM117.808 31.44V39.184C117.808 39.9947 117.621 40.6987 117.248 41.296C116.885 41.904 116.362 42.368 115.68 42.688C115.008 43.0187 114.224 43.184 113.328 43.184C112.026 43.184 110.821 42.8053 109.712 42.048L110.544 40.544C111.354 41.1413 112.245 41.44 113.216 41.44C113.984 41.44 114.592 41.2427 115.04 40.848C115.498 40.4533 115.728 39.9147 115.728 39.232V38.224C115.44 38.6613 115.066 38.9973 114.608 39.232C114.149 39.456 113.616 39.568 113.008 39.568C112.261 39.568 111.6 39.3973 111.024 39.056C110.448 38.704 110 38.2187 109.68 37.6C109.36 36.9707 109.2 36.2507 109.2 35.44C109.2 34.64 109.36 33.936 109.68 33.328C110 32.7093 110.448 32.2293 111.024 31.888C111.6 31.5467 112.261 31.376 113.008 31.376C113.605 31.376 114.133 31.4933 114.592 31.728C115.061 31.9627 115.44 32.2933 115.728 32.72V31.44H117.808ZM113.456 37.936C114.128 37.936 114.672 37.712 115.088 37.264C115.514 36.8053 115.728 36.2133 115.728 35.488C115.728 34.7627 115.514 34.176 115.088 33.728C114.672 33.2693 114.128 33.04 113.456 33.04C112.784 33.04 112.234 33.2693 111.808 33.728C111.392 34.1867 111.178 34.7733 111.168 35.488C111.178 36.2133 111.392 36.8053 111.808 37.264C112.234 37.712 112.784 37.936 113.456 37.936ZM129.963 40L127.643 36.256L126.331 37.632V40H124.251V28.128H126.331V35.008L129.851 31.456H132.251L129.083 34.752L132.443 40H129.963ZM137.005 31.376C138.37 31.376 139.394 31.7653 140.077 32.544C140.77 33.3227 141.117 34.416 141.117 35.824C141.117 36.1013 141.111 36.3093 141.101 36.448H134.781C134.919 37.056 135.202 37.536 135.629 37.888C136.066 38.2293 136.599 38.4 137.229 38.4C137.666 38.4 138.082 38.32 138.477 38.16C138.882 37.9893 139.234 37.7493 139.533 37.44L140.653 38.608C140.226 39.0773 139.703 39.44 139.085 39.696C138.477 39.952 137.799 40.08 137.053 40.08C136.178 40.08 135.405 39.8987 134.733 39.536C134.071 39.1733 133.559 38.6667 133.197 38.016C132.834 37.3547 132.653 36.5973 132.653 35.744C132.653 34.8907 132.834 34.1333 133.197 33.472C133.57 32.8107 134.087 32.2987 134.749 31.936C135.41 31.5627 136.162 31.376 137.005 31.376ZM139.213 35.056C139.191 34.4267 138.983 33.9253 138.589 33.552C138.194 33.1787 137.671 32.992 137.021 32.992C136.413 32.992 135.901 33.1787 135.485 33.552C135.079 33.9147 134.829 34.416 134.733 35.056H139.213ZM144.985 33.088C145.273 32.5333 145.663 32.112 146.153 31.824C146.655 31.5253 147.236 31.3707 147.897 31.36V33.376C147.012 33.3227 146.303 33.5307 145.769 34C145.247 34.4587 144.985 35.0827 144.985 35.872V40H142.905V31.44H144.985V33.088ZM147.535 41.296C147.78 41.3813 148.025 41.4293 148.271 41.44C148.623 41.4507 148.889 41.3333 149.071 41.088C149.263 40.8533 149.359 40.5067 149.359 40.048V31.44H151.439V40.368C151.439 41.2533 151.199 41.9413 150.719 42.432C150.249 42.9333 149.593 43.184 148.751 43.184C148.164 43.184 147.609 43.0773 147.086 42.864L147.535 41.296ZM150.383 27.76C150.724 27.76 151.007 27.8773 151.231 28.112C151.455 28.3467 151.567 28.6453 151.567 29.008C151.567 29.36 151.455 29.6533 151.231 29.888C151.007 30.1227 150.724 30.24 150.383 30.24C150.041 30.24 149.759 30.1227 149.535 29.888C149.311 29.6533 149.199 29.36 149.199 29.008C149.199 28.6453 149.311 28.3467 149.535 28.112C149.759 27.8773 150.041 27.76 150.383 27.76ZM158.961 40V38.96C158.663 39.3333 158.279 39.616 157.809 39.808C157.34 40 156.801 40.096 156.193 40.096C155.596 40.096 155.068 39.984 154.609 39.76C154.161 39.5253 153.815 39.2053 153.569 38.8C153.324 38.3947 153.201 37.9413 153.201 37.44C153.201 36.64 153.484 36.016 154.049 35.568C154.615 35.1093 155.415 34.8747 156.449 34.864H158.945V34.64C158.945 34.1387 158.78 33.7493 158.449 33.472C158.119 33.1947 157.639 33.056 157.009 33.056C156.199 33.056 155.351 33.3227 154.465 33.856L153.713 32.416C154.385 32.0427 154.993 31.776 155.537 31.616C156.092 31.4453 156.737 31.36 157.473 31.36C158.583 31.36 159.441 31.6267 160.049 32.16C160.668 32.6933 160.983 33.44 160.993 34.4L161.009 40H158.961ZM156.689 38.496C157.287 38.496 157.799 38.3573 158.225 38.08C158.652 37.792 158.892 37.44 158.945 37.024V36.256H156.785C156.231 36.256 155.82 36.3413 155.553 36.512C155.297 36.672 155.169 36.9387 155.169 37.312C155.169 37.6747 155.303 37.9627 155.569 38.176C155.847 38.3893 156.22 38.496 156.689 38.496ZM168.415 33.76C167.999 33.5147 167.567 33.3227 167.119 33.184C166.682 33.0453 166.276 32.976 165.903 32.976C165.551 32.976 165.268 33.04 165.055 33.168C164.852 33.2853 164.751 33.472 164.751 33.728C164.751 33.9947 164.879 34.2027 165.135 34.352C165.402 34.4907 165.818 34.64 166.383 34.8C166.98 34.9813 167.471 35.1627 167.855 35.344C168.239 35.5147 168.57 35.776 168.847 36.128C169.135 36.4693 169.279 36.9227 169.279 37.488C169.279 38.32 168.959 38.96 168.319 39.408C167.679 39.856 166.874 40.08 165.903 40.08C165.242 40.08 164.596 39.9787 163.967 39.776C163.338 39.5627 162.804 39.264 162.367 38.88L163.087 37.424C163.471 37.7547 163.93 38.016 164.463 38.208C164.996 38.3893 165.503 38.48 165.983 38.48C166.367 38.48 166.671 38.416 166.895 38.288C167.13 38.1493 167.247 37.9467 167.247 37.68C167.247 37.3813 167.114 37.1573 166.847 37.008C166.58 36.8587 166.148 36.6933 165.551 36.512C164.975 36.3413 164.506 36.176 164.143 36.016C163.78 35.8453 163.466 35.5947 163.199 35.264C162.932 34.9227 162.799 34.48 162.799 33.936C162.799 33.0933 163.103 32.4533 163.711 32.016C164.33 31.568 165.103 31.344 166.031 31.344C166.596 31.344 167.151 31.424 167.695 31.584C168.25 31.744 168.74 31.968 169.167 32.256L168.415 33.76ZM176.118 40V38.96C175.819 39.3333 175.435 39.616 174.966 39.808C174.496 40 173.958 40.096 173.35 40.096C172.752 40.096 172.224 39.984 171.766 39.76C171.318 39.5253 170.971 39.2053 170.726 38.8C170.48 38.3947 170.358 37.9413 170.358 37.44C170.358 36.64 170.64 36.016 171.206 35.568C171.771 35.1093 172.571 34.8747 173.606 34.864H176.102V34.64C176.102 34.1387 175.936 33.7493 175.606 33.472C175.275 33.1947 174.795 33.056 174.166 33.056C173.355 33.056 172.507 33.3227 171.622 33.856L170.87 32.416C171.542 32.0427 172.15 31.776 172.694 31.616C173.248 31.4453 173.894 31.36 174.63 31.36C175.739 31.36 176.598 31.6267 177.206 32.16C177.824 32.6933 178.139 33.44 178.15 34.4L178.166 40H176.118ZM173.846 38.496C174.443 38.496 174.955 38.3573 175.382 38.08C175.808 37.792 176.048 37.44 176.102 37.024V36.256H173.942C173.387 36.256 172.976 36.3413 172.71 36.512C172.454 36.672 172.326 36.9387 172.326 37.312C172.326 37.6747 172.459 37.9627 172.726 38.176C173.003 38.3893 173.376 38.496 173.846 38.496ZM191.715 31.36C192.686 31.36 193.448 31.6587 194.003 32.256C194.558 32.8427 194.835 33.6427 194.835 34.656V40H192.739V35.264C192.739 34.656 192.568 34.1813 192.227 33.84C191.896 33.488 191.443 33.312 190.867 33.312C190.206 33.3333 189.678 33.5733 189.283 34.032C188.899 34.4907 188.707 35.072 188.707 35.776V40H186.611V35.264C186.611 34.656 186.446 34.1813 186.115 33.84C185.784 33.488 185.331 33.312 184.755 33.312C184.083 33.3333 183.55 33.5733 183.155 34.032C182.771 34.4907 182.579 35.072 182.579 35.776V40H180.499V31.44H182.579V33.024C183.144 31.936 184.147 31.3813 185.587 31.36C186.334 31.36 186.958 31.5413 187.459 31.904C187.971 32.256 188.328 32.7573 188.531 33.408C189.075 32.064 190.136 31.3813 191.715 31.36ZM202.211 40V38.96C201.913 39.3333 201.529 39.616 201.059 39.808C200.59 40 200.051 40.096 199.443 40.096C198.846 40.096 198.318 39.984 197.859 39.76C197.411 39.5253 197.065 39.2053 196.819 38.8C196.574 38.3947 196.451 37.9413 196.451 37.44C196.451 36.64 196.734 36.016 197.299 35.568C197.865 35.1093 198.665 34.8747 199.699 34.864H202.195V34.64C202.195 34.1387 202.03 33.7493 201.699 33.472C201.369 33.1947 200.889 33.056 200.259 33.056C199.449 33.056 198.601 33.3227 197.715 33.856L196.963 32.416C197.635 32.0427 198.243 31.776 198.787 31.616C199.342 31.4453 199.987 31.36 200.723 31.36C201.833 31.36 202.691 31.6267 203.299 32.16C203.918 32.6933 204.233 33.44 204.243 34.4L204.259 40H202.211ZM199.939 38.496C200.537 38.496 201.049 38.3573 201.475 38.08C201.902 37.792 202.142 37.44 202.195 37.024V36.256H200.035C199.481 36.256 199.07 36.3413 198.803 36.512C198.547 36.672 198.419 36.9387 198.419 37.312C198.419 37.6747 198.553 37.9627 198.819 38.176C199.097 38.3893 199.47 38.496 199.939 38.496ZM65.512 51.36C66.4827 51.36 67.2453 51.6587 67.8 52.256C68.3547 52.8427 68.632 53.6427 68.632 54.656V60H66.536V55.264C66.536 54.656 66.3653 54.1813 66.024 53.84C65.6933 53.488 65.24 53.312 64.664 53.312C64.0027 53.3333 63.4747 53.5733 63.08 54.032C62.696 54.4907 62.504 55.072 62.504 55.776V60H60.408V55.264C60.408 54.656 60.2427 54.1813 59.912 53.84C59.5813 53.488 59.128 53.312 58.552 53.312C57.88 53.3333 57.3467 53.5733 56.952 54.032C56.568 54.4907 56.376 55.072 56.376 55.776V60H54.296V51.44H56.376V53.024C56.9413 51.936 57.944 51.3813 59.384 51.36C60.1307 51.36 60.7547 51.5413 61.256 51.904C61.768 52.256 62.1253 52.7573 62.328 53.408C62.872 52.064 63.9333 51.3813 65.512 51.36ZM74.5203 51.376C75.8856 51.376 76.9096 51.7653 77.5923 52.544C78.2856 53.3227 78.6323 54.416 78.6323 55.824C78.6323 56.1013 78.6269 56.3093 78.6163 56.448H72.2963C72.4349 57.056 72.7176 57.536 73.1443 57.888C73.5816 58.2293 74.1149 58.4 74.7443 58.4C75.1816 58.4 75.5976 58.32 75.9923 58.16C76.3976 57.9893 76.7496 57.7493 77.0483 57.44L78.1683 58.608C77.7416 59.0773 77.2189 59.44 76.6003 59.696C75.9923 59.952 75.3149 60.08 74.5683 60.08C73.6936 60.08 72.9203 59.8987 72.2483 59.536C71.5869 59.1733 71.0749 58.6667 70.7122 58.016C70.3496 57.3547 70.1683 56.5973 70.1683 55.744C70.1683 54.8907 70.3496 54.1333 70.7122 53.472C71.0856 52.8107 71.6029 52.2987 72.2643 51.936C72.9256 51.5627 73.6776 51.376 74.5203 51.376ZM76.7283 55.056C76.7069 54.4267 76.4989 53.9253 76.1043 53.552C75.7096 53.1787 75.1869 52.992 74.5363 52.992C73.9283 52.992 73.4163 53.1787 73.0003 53.552C72.5949 53.9147 72.3443 54.416 72.2483 55.056H76.7283ZM85.573 51.36C86.5543 51.36 87.3277 51.6587 87.893 52.256C88.4583 52.8427 88.741 53.6427 88.741 54.656V60H86.645V55.264C86.645 54.6667 86.4743 54.1973 86.133 53.856C85.7917 53.504 85.3277 53.328 84.741 53.328C84.0477 53.3387 83.4983 53.5733 83.093 54.032C82.6983 54.4907 82.501 55.0773 82.501 55.792V60H80.421V51.44H82.501V53.04C83.0877 51.9413 84.1117 51.3813 85.573 51.36ZM89.2533 61.296C89.4986 61.3813 89.7439 61.4293 89.9893 61.44C90.3413 61.4507 90.6079 61.3333 90.7893 61.088C90.9813 60.8533 91.0773 60.5067 91.0773 60.048V51.44H93.1573V60.368C93.1573 61.2533 92.9173 61.9413 92.4373 62.432C91.9679 62.9333 91.3119 63.184 90.4693 63.184C89.8826 63.184 89.3279 63.0773 88.8052 62.864L89.2533 61.296ZM92.1013 47.76C92.4426 47.76 92.7253 47.8773 92.9493 48.112C93.1733 48.3467 93.2853 48.6453 93.2853 49.008C93.2853 49.36 93.1733 49.6533 92.9493 49.888C92.7253 50.1227 92.4426 50.24 92.1013 50.24C91.7599 50.24 91.4773 50.1227 91.2533 49.888C91.0293 49.6533 90.9173 49.36 90.9173 49.008C90.9173 48.6453 91.0293 48.3467 91.2533 48.112C91.4773 47.8773 91.7599 47.76 92.1013 47.76ZM100.68 60V58.96C100.381 59.3333 99.9975 59.616 99.5281 59.808C99.0588 60 98.5201 60.096 97.9121 60.096C97.3148 60.096 96.7868 59.984 96.3281 59.76C95.8801 59.5253 95.5335 59.2053 95.2881 58.8C95.0428 58.3947 94.9201 57.9413 94.9201 57.44C94.9201 56.64 95.2028 56.016 95.7681 55.568C96.3335 55.1093 97.1335 54.8747 98.1681 54.864H100.664V54.64C100.664 54.1387 100.499 53.7493 100.168 53.472C99.8375 53.1947 99.3575 53.056 98.7281 53.056C97.9175 53.056 97.0695 53.3227 96.1841 53.856L95.4321 52.416C96.1041 52.0427 96.7121 51.776 97.2561 51.616C97.8108 51.4453 98.4561 51.36 99.1921 51.36C100.301 51.36 101.16 51.6267 101.768 52.16C102.387 52.6933 102.701 53.44 102.712 54.4L102.728 60H100.68ZM98.4081 58.496C99.0055 58.496 99.5175 58.3573 99.9441 58.08C100.371 57.792 100.611 57.44 100.664 57.024V56.256H98.5041C97.9495 56.256 97.5388 56.3413 97.2721 56.512C97.0161 56.672 96.8881 56.9387 96.8881 57.312C96.8881 57.6747 97.0215 57.9627 97.2881 58.176C97.5655 58.3893 97.9388 58.496 98.4081 58.496ZM113.318 48.128V60H111.238V58.624C110.928 59.104 110.528 59.472 110.038 59.728C109.558 59.9733 108.998 60.096 108.358 60.096C107.547 60.096 106.832 59.9147 106.214 59.552C105.606 59.1787 105.131 58.6613 104.79 58C104.448 57.328 104.278 56.56 104.278 55.696C104.278 54.8427 104.443 54.0907 104.774 53.44C105.115 52.7787 105.59 52.2667 106.198 51.904C106.816 51.5413 107.52 51.36 108.31 51.36C108.96 51.36 109.531 51.488 110.022 51.744C110.512 52 110.918 52.368 111.238 52.848V48.128H113.318ZM108.806 58.352C109.52 58.352 110.102 58.112 110.55 57.632C111.008 57.1413 111.238 56.512 111.238 55.744C111.238 54.976 111.008 54.352 110.55 53.872C110.102 53.3813 109.52 53.136 108.806 53.136C108.091 53.136 107.51 53.3813 107.062 53.872C106.614 54.352 106.384 54.976 106.374 55.744C106.384 56.512 106.614 57.1413 107.062 57.632C107.51 58.112 108.091 58.352 108.806 58.352ZM115.984 51.44H118.064V60H115.984V51.44ZM117.008 47.76C117.349 47.76 117.632 47.8773 117.856 48.112C118.08 48.3467 118.192 48.6453 118.192 49.008C118.192 49.36 118.08 49.6533 117.856 49.888C117.632 50.1227 117.349 50.24 117.008 50.24C116.666 50.24 116.384 50.1227 116.16 49.888C115.936 49.6533 115.824 49.36 115.824 49.008C115.824 48.6453 115.936 48.3467 116.16 48.112C116.384 47.8773 116.666 47.76 117.008 47.76ZM135.778 51.36C136.748 51.36 137.511 51.6587 138.066 52.256C138.62 52.8427 138.898 53.6427 138.898 54.656V60H136.802V55.264C136.802 54.656 136.631 54.1813 136.29 53.84C135.959 53.488 135.506 53.312 134.93 53.312C134.268 53.3333 133.74 53.5733 133.346 54.032C132.962 54.4907 132.77 55.072 132.77 55.776V60H130.674V55.264C130.674 54.656 130.508 54.1813 130.178 53.84C129.847 53.488 129.394 53.312 128.818 53.312C128.146 53.3333 127.612 53.5733 127.218 54.032C126.834 54.4907 126.642 55.072 126.642 55.776V60H124.562V51.44H126.642V53.024C127.207 51.936 128.21 51.3813 129.65 51.36C130.396 51.36 131.02 51.5413 131.522 51.904C132.034 52.256 132.391 52.7573 132.594 53.408C133.138 52.064 134.199 51.3813 135.778 51.36ZM141.218 51.44H143.298V60H141.218V51.44ZM142.242 47.76C142.583 47.76 142.866 47.8773 143.09 48.112C143.314 48.3467 143.426 48.6453 143.426 49.008C143.426 49.36 143.314 49.6533 143.09 49.888C142.866 50.1227 142.583 50.24 142.242 50.24C141.901 50.24 141.618 50.1227 141.394 49.888C141.17 49.6533 141.058 49.36 141.058 49.008C141.058 48.6453 141.17 48.3467 141.394 48.112C141.618 47.8773 141.901 47.76 142.242 47.76ZM150.882 59.472C150.199 59.888 149.485 60.096 148.738 60.096C148.002 60.096 147.399 59.8827 146.93 59.456C146.461 59.0187 146.226 58.3787 146.226 57.536V53.312H145.026L145.01 51.792H146.226V49.44H148.29V51.792H150.738V53.312H148.29V57.168C148.29 57.5627 148.365 57.8453 148.514 58.016C148.663 58.176 148.887 58.256 149.186 58.256C149.506 58.256 149.911 58.1387 150.402 57.904L150.882 59.472ZM154.595 53.088C154.883 52.5333 155.272 52.112 155.763 51.824C156.264 51.5253 156.845 51.3707 157.507 51.36V53.376C156.621 53.3227 155.912 53.5307 155.379 54C154.856 54.4587 154.595 55.0827 154.595 55.872V60H152.515V51.44H154.595V53.088ZM163.727 60V58.96C163.428 59.3333 163.044 59.616 162.575 59.808C162.106 60 161.567 60.096 160.959 60.096C160.362 60.096 159.834 59.984 159.375 59.76C158.927 59.5253 158.58 59.2053 158.335 58.8C158.09 58.3947 157.967 57.9413 157.967 57.44C157.967 56.64 158.25 56.016 158.815 55.568C159.38 55.1093 160.18 54.8747 161.215 54.864H163.711V54.64C163.711 54.1387 163.546 53.7493 163.215 53.472C162.884 53.1947 162.404 53.056 161.775 53.056C160.964 53.056 160.116 53.3227 159.231 53.856L158.479 52.416C159.151 52.0427 159.759 51.776 160.303 51.616C160.858 51.4453 161.503 51.36 162.239 51.36C163.348 51.36 164.207 51.6267 164.815 52.16C165.434 52.6933 165.748 53.44 165.759 54.4L165.775 60H163.727ZM161.455 58.496C162.052 58.496 162.564 58.3573 162.991 58.08C163.418 57.792 163.658 57.44 163.711 57.024V56.256H161.551C160.996 56.256 160.586 56.3413 160.319 56.512C160.063 56.672 159.935 56.9387 159.935 57.312C159.935 57.6747 160.068 57.9627 160.335 58.176C160.612 58.3893 160.986 58.496 161.455 58.496ZM54.376 68.8H56.824L60.536 76.016L64.216 68.8H66.664V80H64.696V71.968L61.208 78.848H59.832L56.328 71.968V80H54.376V68.8ZM74.3989 80V78.96C74.1002 79.3333 73.7162 79.616 73.2469 79.808C72.7775 80 72.2389 80.096 71.6309 80.096C71.0335 80.096 70.5055 79.984 70.0469 79.76C69.5989 79.5253 69.2522 79.2053 69.0069 78.8C68.7615 78.3947 68.6389 77.9413 68.6389 77.44C68.6389 76.64 68.9215 76.016 69.4869 75.568C70.0522 75.1093 70.8522 74.8747 71.8869 74.864H74.3829V74.64C74.3829 74.1387 74.2175 73.7493 73.8869 73.472C73.5562 73.1947 73.0762 73.056 72.4469 73.056C71.6362 73.056 70.7882 73.3227 69.9029 73.856L69.1509 72.416C69.8229 72.0427 70.4309 71.776 70.9749 71.616C71.5295 71.4453 72.1749 71.36 72.9109 71.36C74.0202 71.36 74.8789 71.6267 75.4869 72.16C76.1055 72.6933 76.4202 73.44 76.4309 74.4L76.4469 80H74.3989ZM72.1269 78.496C72.7242 78.496 73.2362 78.3573 73.6629 78.08C74.0895 77.792 74.3295 77.44 74.3829 77.024V76.256H72.2229C71.6682 76.256 71.2575 76.3413 70.9909 76.512C70.7349 76.672 70.6069 76.9387 70.6069 77.312C70.6069 77.6747 70.7402 77.9627 71.0069 78.176C71.2842 78.3893 71.6575 78.496 72.1269 78.496ZM80.8604 73.088C81.1484 72.5333 81.5377 72.112 82.0284 71.824C82.5297 71.5253 83.111 71.3707 83.7724 71.36V73.376C82.887 73.3227 82.1777 73.5307 81.6444 74C81.1217 74.4587 80.8604 75.0827 80.8604 75.872V80H78.7804V71.44H80.8604V73.088ZM91.0255 80L88.7055 76.256L87.3935 77.632V80H85.3135V68.128H87.3935V75.008L90.9135 71.456H93.3135L90.1455 74.752L93.5055 80H91.0255ZM99.5708 80V78.96C99.2721 79.3333 98.8881 79.616 98.4188 79.808C97.9494 80 97.4108 80.096 96.8028 80.096C96.2054 80.096 95.6774 79.984 95.2188 79.76C94.7708 79.5253 94.4241 79.2053 94.1788 78.8C93.9334 78.3947 93.8108 77.9413 93.8108 77.44C93.8108 76.64 94.0934 76.016 94.6588 75.568C95.2241 75.1093 96.0241 74.8747 97.0588 74.864H99.5548V74.64C99.5548 74.1387 99.3894 73.7493 99.0588 73.472C98.7281 73.1947 98.2481 73.056 97.6188 73.056C96.8081 73.056 95.9601 73.3227 95.0748 73.856L94.3228 72.416C94.9948 72.0427 95.6028 71.776 96.1468 71.616C96.7014 71.4453 97.3468 71.36 98.0828 71.36C99.1921 71.36 100.051 71.6267 100.659 72.16C101.277 72.6933 101.592 73.44 101.603 74.4L101.619 80H99.5708ZM97.2988 78.496C97.8961 78.496 98.4081 78.3573 98.8348 78.08C99.2614 77.792 99.5014 77.44 99.5548 77.024V76.256H97.3948C96.8401 76.256 96.4294 76.3413 96.1628 76.512C95.9068 76.672 95.7788 76.9387 95.7788 77.312C95.7788 77.6747 95.9121 77.9627 96.1788 78.176C96.4561 78.3893 96.8294 78.496 97.2988 78.496ZM109.024 73.76C108.608 73.5147 108.176 73.3227 107.728 73.184C107.291 73.0453 106.886 72.976 106.512 72.976C106.16 72.976 105.878 73.04 105.664 73.168C105.462 73.2853 105.36 73.472 105.36 73.728C105.36 73.9947 105.488 74.2027 105.744 74.352C106.011 74.4907 106.427 74.64 106.992 74.8C107.59 74.9813 108.08 75.1627 108.464 75.344C108.848 75.5147 109.179 75.776 109.456 76.128C109.744 76.4693 109.888 76.9227 109.888 77.488C109.888 78.32 109.568 78.96 108.928 79.408C108.288 79.856 107.483 80.08 106.512 80.08C105.851 80.08 105.206 79.9787 104.576 79.776C103.947 79.5627 103.414 79.264 102.976 78.88L103.696 77.424C104.08 77.7547 104.539 78.016 105.072 78.208C105.606 78.3893 106.112 78.48 106.592 78.48C106.976 78.48 107.28 78.416 107.504 78.288C107.739 78.1493 107.856 77.9467 107.856 77.68C107.856 77.3813 107.723 77.1573 107.456 77.008C107.19 76.8587 106.758 76.6933 106.16 76.512C105.584 76.3413 105.115 76.176 104.752 76.016C104.39 75.8453 104.075 75.5947 103.808 75.264C103.542 74.9227 103.408 74.48 103.408 73.936C103.408 73.0933 103.712 72.4533 104.32 72.016C104.939 71.568 105.712 71.344 106.64 71.344C107.206 71.344 107.76 71.424 108.304 71.584C108.859 71.744 109.35 71.968 109.776 72.256L109.024 73.76ZM129.257 68.8H131.481L127.689 80H125.465L122.905 71.504L120.297 80H118.105L114.329 68.8H116.633L119.273 77.68L121.897 68.8H124.009L126.649 77.712L129.257 68.8ZM137.071 80V78.96C136.772 79.3333 136.388 79.616 135.919 79.808C135.449 80 134.911 80.096 134.303 80.096C133.705 80.096 133.177 79.984 132.719 79.76C132.271 79.5253 131.924 79.2053 131.679 78.8C131.433 78.3947 131.311 77.9413 131.311 77.44C131.311 76.64 131.593 76.016 132.159 75.568C132.724 75.1093 133.524 74.8747 134.559 74.864H137.055V74.64C137.055 74.1387 136.889 73.7493 136.559 73.472C136.228 73.1947 135.748 73.056 135.119 73.056C134.308 73.056 133.46 73.3227 132.575 73.856L131.823 72.416C132.495 72.0427 133.103 71.776 133.647 71.616C134.201 71.4453 134.847 71.36 135.583 71.36C136.692 71.36 137.551 71.6267 138.159 72.16C138.777 72.6933 139.092 73.44 139.103 74.4L139.119 80H137.071ZM134.799 78.496C135.396 78.496 135.908 78.3573 136.335 78.08C136.761 77.792 137.001 77.44 137.055 77.024V76.256H134.895C134.34 76.256 133.929 76.3413 133.663 76.512C133.407 76.672 133.279 76.9387 133.279 77.312C133.279 77.6747 133.412 77.9627 133.679 78.176C133.956 78.3893 134.329 78.496 134.799 78.496ZM141.532 68.128H143.612V80H141.532V68.128ZM149.848 71.376C151.214 71.376 152.238 71.7653 152.92 72.544C153.614 73.3227 153.96 74.416 153.96 75.824C153.96 76.1013 153.955 76.3093 153.944 76.448H147.624C147.763 77.056 148.046 77.536 148.472 77.888C148.91 78.2293 149.443 78.4 150.072 78.4C150.51 78.4 150.926 78.32 151.32 78.16C151.726 77.9893 152.078 77.7493 152.376 77.44L153.496 78.608C153.07 79.0773 152.547 79.44 151.928 79.696C151.32 79.952 150.643 80.08 149.896 80.08C149.022 80.08 148.248 79.8987 147.576 79.536C146.915 79.1733 146.403 78.6667 146.04 78.016C145.678 77.3547 145.496 76.5973 145.496 75.744C145.496 74.8907 145.678 74.1333 146.04 73.472C146.414 72.8107 146.931 72.2987 147.592 71.936C148.254 71.5627 149.006 71.376 149.848 71.376ZM152.056 75.056C152.035 74.4267 151.827 73.9253 151.432 73.552C151.038 73.1787 150.515 72.992 149.864 72.992C149.256 72.992 148.744 73.1787 148.328 73.552C147.923 73.9147 147.672 74.416 147.576 75.056H152.056ZM160.757 79.472C160.074 79.888 159.36 80.096 158.613 80.096C157.877 80.096 157.274 79.8827 156.805 79.456C156.336 79.0187 156.101 78.3787 156.101 77.536V73.312H154.901L154.885 71.792H156.101V69.44H158.165V71.792H160.613V73.312H158.165V77.168C158.165 77.5627 158.24 77.8453 158.389 78.016C158.538 78.176 158.762 78.256 159.061 78.256C159.381 78.256 159.786 78.1387 160.277 77.904L160.757 79.472Z" fill="black"/>
</svg>
