<svg width="296" height="150" viewBox="0 0 296 150" fill="none" xmlns="http://www.w3.org/2000/svg">
<g filter="url(#filter0_d_17_133)">
<rect x="10" y="6" width="276" height="130" rx="10" fill="#F19E0E" shape-rendering="crispEdges"/>
<path d="M74.2323 48.2C76.0883 48.2 77.5523 48.576 78.6243 49.328C79.6963 50.08 80.2323 51.104 80.2323 52.4C80.2323 53.296 79.9683 54.08 79.4403 54.752C78.9283 55.408 78.2243 55.856 77.3282 56.096C78.4163 56.304 79.2723 56.792 79.8963 57.56C80.5203 58.312 80.8323 59.24 80.8323 60.344C80.8323 61.784 80.2643 62.92 79.1283 63.752C77.9923 64.584 76.4483 65 74.4963 65H66.5043V48.2H74.2323ZM74.0403 54.968C74.7603 54.968 75.3203 54.808 75.7203 54.488C76.1363 54.152 76.3443 53.688 76.3443 53.096C76.3443 52.52 76.1363 52.072 75.7203 51.752C75.3203 51.432 74.7603 51.28 74.0403 51.296H70.2963V54.968H74.0403ZM74.0403 61.904C74.9363 61.904 75.6403 61.728 76.1523 61.376C76.6643 61.008 76.9203 60.504 76.9203 59.864C76.9203 59.256 76.6643 58.776 76.1523 58.424C75.6403 58.072 74.9363 57.904 74.0403 57.92H70.2963V61.904H74.0403ZM89.0622 51.968C91.1422 51.968 92.7182 52.568 93.7902 53.768C94.8782 54.968 95.4222 56.64 95.4222 58.784C95.4222 59.168 95.4142 59.464 95.3982 59.672H86.1342C86.3422 60.488 86.7422 61.128 87.3342 61.592C87.9262 62.04 88.6382 62.264 89.4702 62.264C90.0782 62.264 90.6622 62.152 91.2222 61.928C91.7822 61.688 92.2862 61.344 92.7342 60.896L94.6782 62.864C94.0222 63.6 93.2222 64.168 92.2782 64.568C91.3502 64.952 90.3102 65.144 89.1582 65.144C87.7982 65.144 86.6062 64.872 85.5822 64.328C84.5742 63.784 83.7902 63.016 83.2302 62.024C82.6862 61.032 82.4142 59.888 82.4142 58.592C82.4142 57.28 82.6942 56.128 83.2542 55.136C83.8142 54.128 84.5982 53.352 85.6062 52.808C86.6142 52.248 87.7662 51.968 89.0622 51.968ZM91.9422 57.488C91.9102 56.64 91.6382 55.96 91.1262 55.448C90.6142 54.936 89.9342 54.68 89.0862 54.68C88.2862 54.68 87.6142 54.936 87.0702 55.448C86.5422 55.944 86.2062 56.624 86.0622 57.488H91.9422ZM105.999 51.944C107.439 51.944 108.583 52.392 109.431 53.288C110.295 54.184 110.727 55.384 110.727 56.888V65H107.031V57.968C107.031 57.152 106.799 56.512 106.335 56.048C105.887 55.568 105.271 55.328 104.487 55.328C103.575 55.344 102.855 55.664 102.327 56.288C101.799 56.896 101.535 57.68 101.535 58.64V65H97.8385V52.088H101.535V54.344C102.431 52.776 103.919 51.976 105.999 51.944ZM119.461 51.968C121.541 51.968 123.117 52.568 124.189 53.768C125.277 54.968 125.821 56.64 125.821 58.784C125.821 59.168 125.813 59.464 125.797 59.672H116.533C116.741 60.488 117.141 61.128 117.733 61.592C118.325 62.04 119.037 62.264 119.869 62.264C120.477 62.264 121.061 62.152 121.621 61.928C122.181 61.688 122.685 61.344 123.133 60.896L125.077 62.864C124.421 63.6 123.621 64.168 122.677 64.568C121.749 64.952 120.709 65.144 119.557 65.144C118.197 65.144 117.005 64.872 115.981 64.328C114.973 63.784 114.189 63.016 113.629 62.024C113.085 61.032 112.813 59.888 112.813 58.592C112.813 57.28 113.093 56.128 113.653 55.136C114.213 54.128 114.997 53.352 116.005 52.808C117.013 52.248 118.165 51.968 119.461 51.968ZM122.341 57.488C122.309 56.64 122.037 55.96 121.525 55.448C121.013 54.936 120.333 54.68 119.485 54.68C118.685 54.68 118.013 54.936 117.469 55.448C116.941 55.944 116.605 56.624 116.461 57.488H122.341ZM133.977 50.072C133.529 50.072 133.161 50.2 132.873 50.456C132.585 50.712 132.441 51.088 132.441 51.584V52.664H135.489V55.232H132.441V65H128.769V55.232H127.041V52.664H128.769V51.44C128.769 50.512 128.977 49.72 129.393 49.064C129.825 48.392 130.401 47.888 131.121 47.552C131.841 47.2 132.641 47.024 133.521 47.024C134.353 47.024 135.201 47.2 136.065 47.552L135.513 50.432C135.273 50.336 135.017 50.256 134.745 50.192C134.473 50.112 134.217 50.072 133.977 50.072ZM137.193 52.088H140.889V65H137.193V52.088ZM139.017 46.352C139.609 46.352 140.089 46.544 140.457 46.928C140.841 47.312 141.033 47.808 141.033 48.416C141.033 49.024 140.841 49.52 140.457 49.904C140.089 50.288 139.609 50.48 139.017 50.48C138.441 50.48 137.961 50.288 137.577 49.904C137.209 49.504 137.025 49.008 137.025 48.416C137.025 47.808 137.209 47.312 137.577 46.928C137.961 46.544 138.441 46.352 139.017 46.352ZM152.424 64.28C151.944 64.568 151.408 64.792 150.816 64.952C150.24 65.096 149.656 65.168 149.064 65.168C147.864 65.168 146.888 64.824 146.136 64.136C145.384 63.448 145.008 62.464 145.008 61.184V55.208H143.208V52.664H145.008V49.112H148.68V52.664H152.184V55.232H148.68V60.56C148.68 61.552 149.072 62.048 149.856 62.048C150.4 62.048 151 61.888 151.656 61.568L152.424 64.28ZM172.54 52.088V65H168.868V62.72C167.988 64.336 166.548 65.144 164.548 65.144C163.124 65.144 161.988 64.704 161.14 63.824C160.308 62.928 159.892 61.72 159.892 60.2V52.088H163.588V59.144C163.588 59.96 163.804 60.6 164.236 61.064C164.668 61.528 165.26 61.76 166.012 61.76C166.892 61.744 167.588 61.432 168.1 60.824C168.612 60.216 168.868 59.432 168.868 58.472V52.088H172.54ZM184.28 51.944C185.72 51.944 186.864 52.392 187.712 53.288C188.576 54.184 189.008 55.384 189.008 56.888V65H185.312V57.968C185.312 57.152 185.08 56.512 184.616 56.048C184.168 55.568 183.552 55.328 182.768 55.328C181.856 55.344 181.136 55.664 180.608 56.288C180.08 56.896 179.816 57.68 179.816 58.64V65H176.12V52.088H179.816V54.344C180.712 52.776 182.2 51.976 184.28 51.944ZM200.19 64.28C199.71 64.568 199.174 64.792 198.582 64.952C198.006 65.096 197.422 65.168 196.83 65.168C195.63 65.168 194.654 64.824 193.902 64.136C193.15 63.448 192.774 62.464 192.774 61.184V55.208H190.974V52.664H192.774V49.112H196.446V52.664H199.95V55.232H196.446V60.56C196.446 61.552 196.838 62.048 197.622 62.048C198.166 62.048 198.766 61.888 199.422 61.568L200.19 64.28ZM214.681 52.088V65H211.009V62.72C210.129 64.336 208.689 65.144 206.689 65.144C205.265 65.144 204.129 64.704 203.281 63.824C202.449 62.928 202.033 61.72 202.033 60.2V52.088H205.729V59.144C205.729 59.96 205.945 60.6 206.377 61.064C206.809 61.528 207.401 61.76 208.153 61.76C209.033 61.744 209.729 61.432 210.241 60.824C210.753 60.216 211.009 59.432 211.009 58.472V52.088H214.681ZM226.852 65L223.732 59.744L222.076 61.496V65H218.38V47.192H222.076V56.984L226.804 52.112H231.004L226.276 57.08L231.22 65H226.852ZM126.713 94V92.488C126.281 93.032 125.721 93.448 125.033 93.736C124.345 94.024 123.553 94.168 122.657 94.168C121.297 94.168 120.217 93.8 119.417 93.064C118.617 92.312 118.217 91.336 118.217 90.136C118.217 88.92 118.641 87.976 119.489 87.304C120.353 86.616 121.569 86.264 123.137 86.248H126.689V86.008C126.689 85.32 126.457 84.792 125.993 84.424C125.545 84.04 124.881 83.848 124.001 83.848C122.801 83.848 121.521 84.224 120.161 84.976L119.009 82.432C120.033 81.92 120.993 81.544 121.889 81.304C122.785 81.064 123.769 80.944 124.841 80.944C126.569 80.944 127.905 81.352 128.849 82.168C129.809 82.984 130.297 84.12 130.313 85.576L130.337 94H126.713ZM123.689 91.528C124.457 91.528 125.121 91.344 125.681 90.976C126.241 90.608 126.577 90.144 126.689 89.584V88.432H123.785C123.065 88.432 122.529 88.552 122.177 88.792C121.841 89.016 121.673 89.384 121.673 89.896C121.673 90.392 121.849 90.792 122.201 91.096C122.569 91.384 123.065 91.528 123.689 91.528ZM141.682 80.944C143.122 80.944 144.266 81.392 145.114 82.288C145.978 83.184 146.41 84.384 146.41 85.888V94H142.714V86.968C142.714 86.152 142.482 85.512 142.018 85.048C141.57 84.568 140.954 84.328 140.17 84.328C139.258 84.344 138.538 84.664 138.01 85.288C137.482 85.896 137.218 86.68 137.218 87.64V94H133.522V81.088H137.218V83.344C138.114 81.776 139.602 80.976 141.682 80.944ZM162.344 76.192V94H158.672V92.104C158.208 92.776 157.632 93.288 156.944 93.64C156.256 93.976 155.472 94.144 154.592 94.144C153.376 94.144 152.304 93.872 151.376 93.328C150.464 92.768 149.752 91.984 149.24 90.976C148.744 89.968 148.496 88.808 148.496 87.496C148.496 86.2 148.744 85.056 149.24 84.064C149.736 83.072 150.44 82.304 151.352 81.76C152.264 81.216 153.312 80.944 154.496 80.944C156.32 80.944 157.712 81.624 158.672 82.984V76.192H162.344ZM155.456 91.168C156.4 91.168 157.168 90.84 157.76 90.184C158.368 89.512 158.672 88.648 158.672 87.592C158.672 86.536 158.368 85.68 157.76 85.024C157.168 84.352 156.4 84.016 155.456 84.016C154.496 84.016 153.712 84.352 153.104 85.024C152.512 85.68 152.208 86.536 152.192 87.592C152.208 88.648 152.512 89.512 153.104 90.184C153.712 90.84 154.496 91.168 155.456 91.168ZM173.518 94V92.488C173.086 93.032 172.526 93.448 171.838 93.736C171.15 94.024 170.358 94.168 169.462 94.168C168.102 94.168 167.022 93.8 166.222 93.064C165.422 92.312 165.022 91.336 165.022 90.136C165.022 88.92 165.446 87.976 166.294 87.304C167.158 86.616 168.374 86.264 169.942 86.248H173.494V86.008C173.494 85.32 173.262 84.792 172.798 84.424C172.35 84.04 171.686 83.848 170.806 83.848C169.606 83.848 168.326 84.224 166.966 84.976L165.814 82.432C166.838 81.92 167.798 81.544 168.694 81.304C169.59 81.064 170.574 80.944 171.646 80.944C173.374 80.944 174.71 81.352 175.654 82.168C176.614 82.984 177.102 84.12 177.118 85.576L177.142 94H173.518ZM170.494 91.528C171.262 91.528 171.926 91.344 172.486 90.976C173.046 90.608 173.382 90.144 173.494 89.584V88.432H170.59C169.87 88.432 169.334 88.552 168.982 88.792C168.646 89.016 168.478 89.384 168.478 89.896C168.478 90.392 168.654 90.792 169.006 91.096C169.374 91.384 169.87 91.528 170.494 91.528Z" fill="white"/>
</g>
<defs>
<filter id="filter0_d_17_133" x="0" y="0" width="296" height="150" filterUnits="userSpaceOnUse" color-interpolation-filters="sRGB">
<feFlood flood-opacity="0" result="BackgroundImageFix"/>
<feColorMatrix in="SourceAlpha" type="matrix" values="0 0 0 0 0 0 0 0 0 0 0 0 0 0 0 0 0 0 127 0" result="hardAlpha"/>
<feOffset dy="4"/>
<feGaussianBlur stdDeviation="5"/>
<feComposite in2="hardAlpha" operator="out"/>
<feColorMatrix type="matrix" values="0 0 0 0 0 0 0 0 0 0 0 0 0 0 0 0 0 0 0.4 0"/>
<feBlend mode="normal" in2="BackgroundImageFix" result="effect1_dropShadow_17_133"/>
<feBlend mode="normal" in="SourceGraphic" in2="effect1_dropShadow_17_133" result="shape"/>
</filter>
</defs>
</svg>
