<svg width="275" height="108" viewBox="0 0 275 108" fill="none" xmlns="http://www.w3.org/2000/svg">
<rect width="275" height="108" rx="10" fill="#EDEDED"/>
<path d="M61.976 34.432H63.848V38.688C63.2613 39.1253 62.568 39.4827 61.768 39.76C60.968 40.0267 60.184 40.16 59.416 40.16C58.3173 40.16 57.3147 39.904 56.408 39.392C55.512 38.88 54.8027 38.1867 54.28 37.312C53.7573 36.4267 53.496 35.4507 53.496 34.384C53.496 33.3173 53.7627 32.352 54.296 31.488C54.8293 30.6133 55.5547 29.9253 56.472 29.424C57.4 28.912 58.424 28.656 59.544 28.656C60.344 28.656 61.1333 28.8 61.912 29.088C62.6907 29.376 63.3627 29.7707 63.928 30.272L62.712 31.856C62.2853 31.4507 61.7893 31.136 61.224 30.912C60.6693 30.688 60.1093 30.576 59.544 30.576C58.84 30.576 58.1893 30.7467 57.592 31.088C57.0053 31.4187 56.5413 31.8773 56.2 32.464C55.8587 33.0507 55.688 33.6907 55.688 34.384C55.688 35.088 55.8587 35.7333 56.2 36.32C56.552 36.9067 57.0213 37.3707 57.608 37.712C58.1947 38.0533 58.8453 38.224 59.56 38.224C59.944 38.224 60.344 38.1653 60.76 38.048C61.1867 37.92 61.592 37.744 61.976 37.52V34.432ZM68.3291 33.088C68.6171 32.5333 69.0065 32.112 69.4971 31.824C69.9985 31.5253 70.5798 31.3707 71.2411 31.36V33.376C70.3558 33.3227 69.6465 33.5307 69.1131 34C68.5905 34.4587 68.3291 35.0827 68.3291 35.872V40H66.2491V31.44H68.3291V33.088ZM77.4614 40V38.96C77.1627 39.3333 76.7787 39.616 76.3094 39.808C75.84 40 75.3014 40.096 74.6934 40.096C74.096 40.096 73.568 39.984 73.1094 39.76C72.6614 39.5253 72.3147 39.2053 72.0694 38.8C71.824 38.3947 71.7014 37.9413 71.7014 37.44C71.7014 36.64 71.984 36.016 72.5494 35.568C73.1147 35.1093 73.9147 34.8747 74.9494 34.864H77.4454V34.64C77.4454 34.1387 77.28 33.7493 76.9494 33.472C76.6187 33.1947 76.1387 33.056 75.5094 33.056C74.6987 33.056 73.8507 33.3227 72.9654 33.856L72.2134 32.416C72.8854 32.0427 73.4934 31.776 74.0374 31.616C74.592 31.4453 75.2374 31.36 75.9734 31.36C77.0827 31.36 77.9414 31.6267 78.5494 32.16C79.168 32.6933 79.4827 33.44 79.4934 34.4L79.5094 40H77.4614ZM75.1894 38.496C75.7867 38.496 76.2987 38.3573 76.7254 38.08C77.152 37.792 77.392 37.44 77.4454 37.024V36.256H75.2854C74.7307 36.256 74.32 36.3413 74.0534 36.512C73.7974 36.672 73.6694 36.9387 73.6694 37.312C73.6694 37.6747 73.8027 37.9627 74.0694 38.176C74.3467 38.3893 74.72 38.496 75.1894 38.496ZM86.8509 39.472C86.1682 39.888 85.4535 40.096 84.7069 40.096C83.9709 40.096 83.3682 39.8827 82.8989 39.456C82.4295 39.0187 82.1949 38.3787 82.1949 37.536V33.312H80.9949L80.9789 31.792H82.1949V29.44H84.2589V31.792H86.7069V33.312H84.2589V37.168C84.2589 37.5627 84.3335 37.8453 84.4829 38.016C84.6322 38.176 84.8562 38.256 85.1549 38.256C85.4749 38.256 85.8802 38.1387 86.3709 37.904L86.8509 39.472ZM88.4835 31.44H90.5635V40H88.4835V31.44ZM89.5075 27.76C89.8488 27.76 90.1315 27.8773 90.3555 28.112C90.5795 28.3467 90.6915 28.6453 90.6915 29.008C90.6915 29.36 90.5795 29.6533 90.3555 29.888C90.1315 30.1227 89.8488 30.24 89.5075 30.24C89.1662 30.24 88.8835 30.1227 88.6595 29.888C88.4355 29.6533 88.3235 29.36 88.3235 29.008C88.3235 28.6453 88.4355 28.3467 88.6595 28.112C88.8835 27.8773 89.1662 27.76 89.5075 27.76ZM98.2118 33.76C97.7958 33.5147 97.3638 33.3227 96.9158 33.184C96.4784 33.0453 96.0731 32.976 95.6998 32.976C95.3478 32.976 95.0651 33.04 94.8518 33.168C94.6491 33.2853 94.5478 33.472 94.5478 33.728C94.5478 33.9947 94.6758 34.2027 94.9318 34.352C95.1984 34.4907 95.6144 34.64 96.1798 34.8C96.7771 34.9813 97.2678 35.1627 97.6518 35.344C98.0358 35.5147 98.3664 35.776 98.6438 36.128C98.9318 36.4693 99.0758 36.9227 99.0758 37.488C99.0758 38.32 98.7558 38.96 98.1158 39.408C97.4758 39.856 96.6704 40.08 95.6998 40.08C95.0384 40.08 94.3931 39.9787 93.7638 39.776C93.1344 39.5627 92.6011 39.264 92.1638 38.88L92.8838 37.424C93.2678 37.7547 93.7264 38.016 94.2598 38.208C94.7931 38.3893 95.2998 38.48 95.7798 38.48C96.1638 38.48 96.4678 38.416 96.6918 38.288C96.9264 38.1493 97.0438 37.9467 97.0438 37.68C97.0438 37.3813 96.9104 37.1573 96.6438 37.008C96.3771 36.8587 95.9451 36.6933 95.3478 36.512C94.7718 36.3413 94.3024 36.176 93.9398 36.016C93.5771 35.8453 93.2624 35.5947 92.9958 35.264C92.7291 34.9227 92.5958 34.48 92.5958 33.936C92.5958 33.0933 92.8998 32.4533 93.5078 32.016C94.1264 31.568 94.8998 31.344 95.8278 31.344C96.3931 31.344 96.9478 31.424 97.4918 31.584C98.0464 31.744 98.5371 31.968 98.9638 32.256L98.2118 33.76ZM112.38 38.128V40H104.092V38.448L108.316 34.096C108.722 33.6907 109.047 33.2907 109.292 32.896C109.538 32.5013 109.66 32.16 109.66 31.872C109.66 31.4667 109.5 31.152 109.18 30.928C108.86 30.6933 108.418 30.576 107.852 30.576C107.362 30.576 106.839 30.6987 106.284 30.944C105.73 31.1893 105.207 31.5307 104.716 31.968L103.868 30.32C104.53 29.808 105.223 29.4133 105.948 29.136C106.684 28.848 107.42 28.704 108.156 28.704C108.892 28.704 109.543 28.8213 110.108 29.056C110.674 29.2907 111.111 29.6267 111.42 30.064C111.74 30.4907 111.9 30.9867 111.9 31.552C111.9 32.096 111.714 32.672 111.34 33.28C110.967 33.888 110.444 34.544 109.772 35.248L106.924 38.128H112.38ZM123.388 31.36C124.369 31.36 125.142 31.6587 125.708 32.256C126.273 32.8427 126.556 33.6427 126.556 34.656V40H124.46V35.264C124.46 34.6667 124.289 34.1973 123.948 33.856C123.606 33.504 123.142 33.328 122.556 33.328C121.862 33.3387 121.313 33.5733 120.908 34.032C120.502 34.4907 120.3 35.0773 120.3 35.792V40H118.22V28.128H120.3V33.072C120.886 31.952 121.916 31.3813 123.388 31.36ZM133.946 40V38.96C133.647 39.3333 133.263 39.616 132.794 39.808C132.324 40 131.786 40.096 131.178 40.096C130.58 40.096 130.052 39.984 129.594 39.76C129.146 39.5253 128.799 39.2053 128.554 38.8C128.308 38.3947 128.186 37.9413 128.186 37.44C128.186 36.64 128.468 36.016 129.034 35.568C129.599 35.1093 130.399 34.8747 131.434 34.864H133.93V34.64C133.93 34.1387 133.764 33.7493 133.434 33.472C133.103 33.1947 132.623 33.056 131.994 33.056C131.183 33.056 130.335 33.3227 129.45 33.856L128.698 32.416C129.37 32.0427 129.978 31.776 130.522 31.616C131.076 31.4453 131.722 31.36 132.458 31.36C133.567 31.36 134.426 31.6267 135.034 32.16C135.652 32.6933 135.967 33.44 135.978 34.4L135.994 40H133.946ZM131.674 38.496C132.271 38.496 132.783 38.3573 133.21 38.08C133.636 37.792 133.876 37.44 133.93 37.024V36.256H131.77C131.215 36.256 130.804 36.3413 130.538 36.512C130.282 36.672 130.154 36.9387 130.154 37.312C130.154 37.6747 130.287 37.9627 130.554 38.176C130.831 38.3893 131.204 38.496 131.674 38.496ZM140.407 33.088C140.695 32.5333 141.085 32.112 141.575 31.824C142.077 31.5253 142.658 31.3707 143.319 31.36V33.376C142.434 33.3227 141.725 33.5307 141.191 34C140.669 34.4587 140.407 35.0827 140.407 35.872V40H138.327V31.44H140.407V33.088ZM144.78 31.44H146.86V40H144.78V31.44ZM145.804 27.76C146.146 27.76 146.428 27.8773 146.652 28.112C146.876 28.3467 146.988 28.6453 146.988 29.008C146.988 29.36 146.876 29.6533 146.652 29.888C146.428 30.1227 146.146 30.24 145.804 30.24C145.463 30.24 145.18 30.1227 144.956 29.888C144.732 29.6533 144.62 29.36 144.62 29.008C144.62 28.6453 144.732 28.3467 144.956 28.112C145.18 27.8773 145.463 27.76 145.804 27.76ZM152.079 28.8H156.575V40H154.431V30.688H152.079V28.8ZM174.606 31.36C175.576 31.36 176.339 31.6587 176.894 32.256C177.448 32.8427 177.726 33.6427 177.726 34.656V40H175.63V35.264C175.63 34.656 175.459 34.1813 175.118 33.84C174.787 33.488 174.334 33.312 173.758 33.312C173.096 33.3333 172.568 33.5733 172.174 34.032C171.79 34.4907 171.598 35.072 171.598 35.776V40H169.502V35.264C169.502 34.656 169.336 34.1813 169.006 33.84C168.675 33.488 168.222 33.312 167.646 33.312C166.974 33.3333 166.44 33.5733 166.046 34.032C165.662 34.4907 165.47 35.072 165.47 35.776V40H163.39V31.44H165.47V33.024C166.035 31.936 167.038 31.3813 168.478 31.36C169.224 31.36 169.848 31.5413 170.35 31.904C170.862 32.256 171.219 32.7573 171.422 33.408C171.966 32.064 173.027 31.3813 174.606 31.36ZM185.102 40V38.96C184.803 39.3333 184.419 39.616 183.95 39.808C183.481 40 182.942 40.096 182.334 40.096C181.737 40.096 181.209 39.984 180.75 39.76C180.302 39.5253 179.955 39.2053 179.71 38.8C179.465 38.3947 179.342 37.9413 179.342 37.44C179.342 36.64 179.625 36.016 180.19 35.568C180.755 35.1093 181.555 34.8747 182.59 34.864H185.086V34.64C185.086 34.1387 184.921 33.7493 184.59 33.472C184.259 33.1947 183.779 33.056 183.15 33.056C182.339 33.056 181.491 33.3227 180.606 33.856L179.854 32.416C180.526 32.0427 181.134 31.776 181.678 31.616C182.233 31.4453 182.878 31.36 183.614 31.36C184.723 31.36 185.582 31.6267 186.19 32.16C186.809 32.6933 187.123 33.44 187.134 34.4L187.15 40H185.102ZM182.83 38.496C183.427 38.496 183.939 38.3573 184.366 38.08C184.793 37.792 185.033 37.44 185.086 37.024V36.256H182.926C182.371 36.256 181.961 36.3413 181.694 36.512C181.438 36.672 181.31 36.9387 181.31 37.312C181.31 37.6747 181.443 37.9627 181.71 38.176C181.987 38.3893 182.361 38.496 182.83 38.496ZM189.564 28.128H191.644V40H189.564V28.128ZM199.368 40V38.96C199.069 39.3333 198.685 39.616 198.216 39.808C197.746 40 197.208 40.096 196.6 40.096C196.002 40.096 195.474 39.984 195.016 39.76C194.568 39.5253 194.221 39.2053 193.976 38.8C193.73 38.3947 193.608 37.9413 193.608 37.44C193.608 36.64 193.89 36.016 194.456 35.568C195.021 35.1093 195.821 34.8747 196.856 34.864H199.352V34.64C199.352 34.1387 199.186 33.7493 198.856 33.472C198.525 33.1947 198.045 33.056 197.416 33.056C196.605 33.056 195.757 33.3227 194.872 33.856L194.12 32.416C194.792 32.0427 195.4 31.776 195.944 31.616C196.498 31.4453 197.144 31.36 197.88 31.36C198.989 31.36 199.848 31.6267 200.456 32.16C201.074 32.6933 201.389 33.44 201.4 34.4L201.416 40H199.368ZM197.096 38.496C197.693 38.496 198.205 38.3573 198.632 38.08C199.058 37.792 199.298 37.44 199.352 37.024V36.256H197.192C196.637 36.256 196.226 36.3413 195.96 36.512C195.704 36.672 195.576 36.9387 195.576 37.312C195.576 37.6747 195.709 37.9627 195.976 38.176C196.253 38.3893 196.626 38.496 197.096 38.496ZM214.965 31.36C215.936 31.36 216.698 31.6587 217.253 32.256C217.808 32.8427 218.085 33.6427 218.085 34.656V40H215.989V35.264C215.989 34.656 215.818 34.1813 215.477 33.84C215.146 33.488 214.693 33.312 214.117 33.312C213.456 33.3333 212.928 33.5733 212.533 34.032C212.149 34.4907 211.957 35.072 211.957 35.776V40H209.861V35.264C209.861 34.656 209.696 34.1813 209.365 33.84C209.034 33.488 208.581 33.312 208.005 33.312C207.333 33.3333 206.8 33.5733 206.405 34.032C206.021 34.4907 205.829 35.072 205.829 35.776V40H203.749V31.44H205.829V33.024C206.394 31.936 207.397 31.3813 208.837 31.36C209.584 31.36 210.208 31.5413 210.709 31.904C211.221 32.256 211.578 32.7573 211.781 33.408C212.325 32.064 213.386 31.3813 214.965 31.36ZM62.552 48.128V60H60.472V58.624C60.1627 59.104 59.7627 59.472 59.272 59.728C58.792 59.9733 58.232 60.096 57.592 60.096C56.7813 60.096 56.0667 59.9147 55.448 59.552C54.84 59.1787 54.3653 58.6613 54.024 58C53.6827 57.328 53.512 56.56 53.512 55.696C53.512 54.8427 53.6773 54.0907 54.008 53.44C54.3493 52.7787 54.824 52.2667 55.432 51.904C56.0507 51.5413 56.7547 51.36 57.544 51.36C58.1947 51.36 58.7653 51.488 59.256 51.744C59.7467 52 60.152 52.368 60.472 52.848V48.128H62.552ZM58.04 58.352C58.7547 58.352 59.336 58.112 59.784 57.632C60.2427 57.1413 60.472 56.512 60.472 55.744C60.472 54.976 60.2427 54.352 59.784 53.872C59.336 53.3813 58.7547 53.136 58.04 53.136C57.3253 53.136 56.744 53.3813 56.296 53.872C55.848 54.352 55.6187 54.976 55.608 55.744C55.6187 56.512 55.848 57.1413 56.296 57.632C56.744 58.112 57.3253 58.352 58.04 58.352ZM65.2179 51.44H67.2979V60H65.2179V51.44ZM66.2419 47.76C66.5832 47.76 66.8659 47.8773 67.0899 48.112C67.3139 48.3467 67.4259 48.6453 67.4259 49.008C67.4259 49.36 67.3139 49.6533 67.0899 49.888C66.8659 50.1227 66.5832 50.24 66.2419 50.24C65.9005 50.24 65.6179 50.1227 65.3939 49.888C65.1699 49.6533 65.0579 49.36 65.0579 49.008C65.0579 48.6453 65.1699 48.3467 65.3939 48.112C65.6179 47.8773 65.9005 47.76 66.2419 47.76ZM78.836 51.376C79.636 51.376 80.34 51.5627 80.948 51.936C81.5667 52.2987 82.0413 52.8107 82.372 53.472C82.7133 54.1333 82.884 54.896 82.884 55.76C82.884 56.6133 82.7187 57.3653 82.388 58.016C82.0573 58.6667 81.588 59.1733 80.98 59.536C80.372 59.8987 79.668 60.08 78.868 60.08C78.228 60.08 77.6627 59.9573 77.172 59.712C76.6813 59.456 76.276 59.088 75.956 58.608V63.104H73.876V51.44H75.956V52.848C76.2653 52.368 76.66 52.0053 77.14 51.76C77.6307 51.504 78.196 51.376 78.836 51.376ZM78.372 58.288C79.076 58.288 79.652 58.048 80.1 57.568C80.548 57.0773 80.772 56.4533 80.772 55.696C80.772 54.9387 80.548 54.32 80.1 53.84C79.652 53.36 79.076 53.12 78.372 53.12C77.6573 53.12 77.076 53.36 76.628 53.84C76.18 54.32 75.956 54.9387 75.956 55.696C75.956 56.464 76.18 57.088 76.628 57.568C77.076 58.048 77.6573 58.288 78.372 58.288ZM88.2546 51.376C89.62 51.376 90.644 51.7653 91.3266 52.544C92.02 53.3227 92.3666 54.416 92.3666 55.824C92.3666 56.1013 92.3613 56.3093 92.3506 56.448H86.0306C86.1693 57.056 86.452 57.536 86.8786 57.888C87.316 58.2293 87.8493 58.4 88.4786 58.4C88.916 58.4 89.332 58.32 89.7266 58.16C90.132 57.9893 90.484 57.7493 90.7826 57.44L91.9026 58.608C91.476 59.0773 90.9533 59.44 90.3346 59.696C89.7266 59.952 89.0493 60.08 88.3026 60.08C87.428 60.08 86.6546 59.8987 85.9826 59.536C85.3213 59.1733 84.8093 58.6667 84.4466 58.016C84.084 57.3547 83.9026 56.5973 83.9026 55.744C83.9026 54.8907 84.084 54.1333 84.4466 53.472C84.82 52.8107 85.3373 52.2987 85.9986 51.936C86.66 51.5627 87.412 51.376 88.2546 51.376ZM90.4626 55.056C90.4413 54.4267 90.2333 53.9253 89.8386 53.552C89.444 53.1787 88.9213 52.992 88.2706 52.992C87.6626 52.992 87.1506 53.1787 86.7346 53.552C86.3293 53.9147 86.0786 54.416 85.9826 55.056H90.4626ZM99.3074 51.36C100.289 51.36 101.062 51.6587 101.627 52.256C102.193 52.8427 102.475 53.6427 102.475 54.656V60H100.379V55.264C100.379 54.6667 100.209 54.1973 99.8674 53.856C99.526 53.504 99.062 53.328 98.4754 53.328C97.782 53.3387 97.2327 53.5733 96.8274 54.032C96.4327 54.4907 96.2354 55.0773 96.2354 55.792V60H94.1554V51.44H96.2354V53.04C96.822 51.9413 97.846 51.3813 99.3074 51.36ZM112.636 51.44V59.184C112.636 59.9947 112.449 60.6987 112.076 61.296C111.713 61.904 111.19 62.368 110.508 62.688C109.836 63.0187 109.052 63.184 108.156 63.184C106.854 63.184 105.649 62.8053 104.54 62.048L105.372 60.544C106.182 61.1413 107.073 61.44 108.044 61.44C108.812 61.44 109.42 61.2427 109.868 60.848C110.326 60.4533 110.556 59.9147 110.556 59.232V58.224C110.268 58.6613 109.894 58.9973 109.436 59.232C108.977 59.456 108.444 59.568 107.836 59.568C107.089 59.568 106.428 59.3973 105.852 59.056C105.276 58.704 104.828 58.2187 104.508 57.6C104.188 56.9707 104.028 56.2507 104.028 55.44C104.028 54.64 104.188 53.936 104.508 53.328C104.828 52.7093 105.276 52.2293 105.852 51.888C106.428 51.5467 107.089 51.376 107.836 51.376C108.433 51.376 108.961 51.4933 109.42 51.728C109.889 51.9627 110.268 52.2933 110.556 52.72V51.44H112.636ZM108.284 57.936C108.956 57.936 109.5 57.712 109.916 57.264C110.342 56.8053 110.556 56.2133 110.556 55.488C110.556 54.7627 110.342 54.176 109.916 53.728C109.5 53.2693 108.956 53.04 108.284 53.04C107.612 53.04 107.062 53.2693 106.636 53.728C106.22 54.1867 106.006 54.7733 105.996 55.488C106.006 56.2133 106.22 56.8053 106.636 57.264C107.062 57.712 107.612 57.936 108.284 57.936ZM115.077 51.44H117.157V60H115.077V51.44ZM116.101 47.76C116.443 47.76 116.725 47.8773 116.949 48.112C117.173 48.3467 117.285 48.6453 117.285 49.008C117.285 49.36 117.173 49.6533 116.949 49.888C116.725 50.1227 116.443 50.24 116.101 50.24C115.76 50.24 115.477 50.1227 115.253 49.888C115.029 49.6533 114.917 49.36 114.917 49.008C114.917 48.6453 115.029 48.3467 115.253 48.112C115.477 47.8773 115.76 47.76 116.101 47.76ZM124.886 51.36C125.867 51.36 126.64 51.6587 127.206 52.256C127.771 52.8427 128.054 53.6427 128.054 54.656V60H125.958V55.264C125.958 54.6667 125.787 54.1973 125.446 53.856C125.104 53.504 124.64 53.328 124.054 53.328C123.36 53.3387 122.811 53.5733 122.406 54.032C122.011 54.4907 121.814 55.0773 121.814 55.792V60H119.734V51.44H121.814V53.04C122.4 51.9413 123.424 51.3813 124.886 51.36ZM135.446 60V58.96C135.147 59.3333 134.763 59.616 134.294 59.808C133.824 60 133.286 60.096 132.678 60.096C132.08 60.096 131.552 59.984 131.094 59.76C130.646 59.5253 130.299 59.2053 130.054 58.8C129.808 58.3947 129.686 57.9413 129.686 57.44C129.686 56.64 129.968 56.016 130.534 55.568C131.099 55.1093 131.899 54.8747 132.934 54.864H135.43V54.64C135.43 54.1387 135.264 53.7493 134.934 53.472C134.603 53.1947 134.123 53.056 133.494 53.056C132.683 53.056 131.835 53.3227 130.95 53.856L130.198 52.416C130.87 52.0427 131.478 51.776 132.022 51.616C132.576 51.4453 133.222 51.36 133.958 51.36C135.067 51.36 135.926 51.6267 136.534 52.16C137.152 52.6933 137.467 53.44 137.478 54.4L137.494 60H135.446ZM133.174 58.496C133.771 58.496 134.283 58.3573 134.71 58.08C135.136 57.792 135.376 57.44 135.43 57.024V56.256H133.27C132.715 56.256 132.304 56.3413 132.038 56.512C131.782 56.672 131.654 56.9387 131.654 57.312C131.654 57.6747 131.787 57.9627 132.054 58.176C132.331 58.3893 132.704 58.496 133.174 58.496ZM144.867 51.376C145.667 51.376 146.371 51.5627 146.979 51.936C147.598 52.2987 148.073 52.8107 148.403 53.472C148.745 54.1333 148.915 54.896 148.915 55.76C148.915 56.6133 148.75 57.3653 148.419 58.016C148.089 58.6667 147.619 59.1733 147.011 59.536C146.403 59.8987 145.699 60.08 144.899 60.08C144.259 60.08 143.694 59.9573 143.203 59.712C142.713 59.456 142.307 59.088 141.987 58.608V63.104H139.907V51.44H141.987V52.848C142.297 52.368 142.691 52.0053 143.171 51.76C143.662 51.504 144.227 51.376 144.867 51.376ZM144.403 58.288C145.107 58.288 145.683 58.048 146.131 57.568C146.579 57.0773 146.803 56.4533 146.803 55.696C146.803 54.9387 146.579 54.32 146.131 53.84C145.683 53.36 145.107 53.12 144.403 53.12C143.689 53.12 143.107 53.36 142.659 53.84C142.211 54.32 141.987 54.9387 141.987 55.696C141.987 56.464 142.211 57.088 142.659 57.568C143.107 58.048 143.689 58.288 144.403 58.288ZM155.774 60V58.96C155.475 59.3333 155.091 59.616 154.622 59.808C154.153 60 153.614 60.096 153.006 60.096C152.409 60.096 151.881 59.984 151.422 59.76C150.974 59.5253 150.627 59.2053 150.382 58.8C150.137 58.3947 150.014 57.9413 150.014 57.44C150.014 56.64 150.297 56.016 150.862 55.568C151.427 55.1093 152.227 54.8747 153.262 54.864H155.758V54.64C155.758 54.1387 155.593 53.7493 155.262 53.472C154.931 53.1947 154.451 53.056 153.822 53.056C153.011 53.056 152.163 53.3227 151.278 53.856L150.526 52.416C151.198 52.0427 151.806 51.776 152.35 51.616C152.905 51.4453 153.55 51.36 154.286 51.36C155.395 51.36 156.254 51.6267 156.862 52.16C157.481 52.6933 157.795 53.44 157.806 54.4L157.822 60H155.774ZM153.502 58.496C154.099 58.496 154.611 58.3573 155.038 58.08C155.465 57.792 155.705 57.44 155.758 57.024V56.256H153.598C153.043 56.256 152.633 56.3413 152.366 56.512C152.11 56.672 151.982 56.9387 151.982 57.312C151.982 57.6747 152.115 57.9627 152.382 58.176C152.659 58.3893 153.033 58.496 153.502 58.496ZM165.307 51.36C166.289 51.36 167.062 51.6587 167.627 52.256C168.193 52.8427 168.475 53.6427 168.475 54.656V60H166.379V55.264C166.379 54.6667 166.209 54.1973 165.867 53.856C165.526 53.504 165.062 53.328 164.475 53.328C163.782 53.3387 163.233 53.5733 162.827 54.032C162.433 54.4907 162.235 55.0773 162.235 55.792V60H160.155V51.44H162.235V53.04C162.822 51.9413 163.846 51.3813 165.307 51.36ZM59.336 71.376C60.136 71.376 60.84 71.5627 61.448 71.936C62.0667 72.2987 62.5413 72.8107 62.872 73.472C63.2133 74.1333 63.384 74.896 63.384 75.76C63.384 76.6133 63.2187 77.3653 62.888 78.016C62.5573 78.6667 62.088 79.1733 61.48 79.536C60.872 79.8987 60.168 80.08 59.368 80.08C58.728 80.08 58.1627 79.9573 57.672 79.712C57.1813 79.456 56.776 79.088 56.456 78.608V80H54.376V68.128H56.456V72.848C56.7653 72.368 57.16 72.0053 57.64 71.76C58.1307 71.504 58.696 71.376 59.336 71.376ZM58.872 78.288C59.576 78.288 60.152 78.048 60.6 77.568C61.048 77.0773 61.272 76.4533 61.272 75.696C61.272 74.9387 61.048 74.32 60.6 73.84C60.152 73.36 59.576 73.12 58.872 73.12C58.1573 73.12 57.576 73.36 57.128 73.84C56.68 74.32 56.456 74.9387 56.456 75.696C56.456 76.464 56.68 77.088 57.128 77.568C57.576 78.048 58.1573 78.288 58.872 78.288ZM68.7546 71.376C70.12 71.376 71.144 71.7653 71.8266 72.544C72.52 73.3227 72.8666 74.416 72.8666 75.824C72.8666 76.1013 72.8613 76.3093 72.8506 76.448H66.5306C66.6693 77.056 66.952 77.536 67.3786 77.888C67.816 78.2293 68.3493 78.4 68.9786 78.4C69.416 78.4 69.832 78.32 70.2266 78.16C70.632 77.9893 70.984 77.7493 71.2826 77.44L72.4026 78.608C71.976 79.0773 71.4533 79.44 70.8346 79.696C70.2266 79.952 69.5493 80.08 68.8026 80.08C67.928 80.08 67.1546 79.8987 66.4826 79.536C65.8213 79.1733 65.3093 78.6667 64.9466 78.016C64.584 77.3547 64.4026 76.5973 64.4026 75.744C64.4026 74.8907 64.584 74.1333 64.9466 73.472C65.32 72.8107 65.8373 72.2987 66.4986 71.936C67.16 71.5627 67.912 71.376 68.7546 71.376ZM70.9626 75.056C70.9413 74.4267 70.7333 73.9253 70.3386 73.552C69.944 73.1787 69.4213 72.992 68.7706 72.992C68.1626 72.992 67.6506 73.1787 67.2346 73.552C66.8293 73.9147 66.5786 74.416 66.4826 75.056H70.9626ZM76.7354 73.088C77.0234 72.5333 77.4127 72.112 77.9034 71.824C78.4047 71.5253 78.986 71.3707 79.6474 71.36V73.376C78.762 73.3227 78.0527 73.5307 77.5194 74C76.9967 74.4587 76.7354 75.0827 76.7354 75.872V80H74.6554V71.44H76.7354V73.088ZM86.1485 71.376C86.9485 71.376 87.6525 71.5627 88.2605 71.936C88.8792 72.2987 89.3538 72.8107 89.6845 73.472C90.0258 74.1333 90.1965 74.896 90.1965 75.76C90.1965 76.6133 90.0312 77.3653 89.7005 78.016C89.3698 78.6667 88.9005 79.1733 88.2925 79.536C87.6845 79.8987 86.9805 80.08 86.1805 80.08C85.5405 80.08 84.9752 79.9573 84.4845 79.712C83.9938 79.456 83.5885 79.088 83.2685 78.608V80H81.1885V68.128H83.2685V72.848C83.5778 72.368 83.9725 72.0053 84.4525 71.76C84.9432 71.504 85.5085 71.376 86.1485 71.376ZM85.6845 78.288C86.3885 78.288 86.9645 78.048 87.4125 77.568C87.8605 77.0773 88.0845 76.4533 88.0845 75.696C88.0845 74.9387 87.8605 74.32 87.4125 73.84C86.9645 73.36 86.3885 73.12 85.6845 73.12C84.9698 73.12 84.3885 73.36 83.9405 73.84C83.4925 74.32 83.2685 74.9387 83.2685 75.696C83.2685 76.464 83.4925 77.088 83.9405 77.568C84.3885 78.048 84.9698 78.288 85.6845 78.288ZM91.9991 71.44H94.0791V80H91.9991V71.44ZM93.0231 67.76C93.3645 67.76 93.6471 67.8773 93.8711 68.112C94.0951 68.3467 94.2071 68.6453 94.2071 69.008C94.2071 69.36 94.0951 69.6533 93.8711 69.888C93.6471 70.1227 93.3645 70.24 93.0231 70.24C92.6818 70.24 92.3991 70.1227 92.1751 69.888C91.9511 69.6533 91.8391 69.36 91.8391 69.008C91.8391 68.6453 91.9511 68.3467 92.1751 68.112C92.3991 67.8773 92.6818 67.76 93.0231 67.76ZM101.807 71.36C102.789 71.36 103.562 71.6587 104.127 72.256C104.693 72.8427 104.975 73.6427 104.975 74.656V80H102.879V75.264C102.879 74.6667 102.709 74.1973 102.367 73.856C102.026 73.504 101.562 73.328 100.975 73.328C100.282 73.3387 99.7327 73.5733 99.3274 74.032C98.9327 74.4907 98.7354 75.0773 98.7354 75.792V80H96.6554V71.44H98.7354V73.04C99.322 71.9413 100.346 71.3813 101.807 71.36ZM112.32 79.472C111.637 79.888 110.922 80.096 110.176 80.096C109.44 80.096 108.837 79.8827 108.368 79.456C107.898 79.0187 107.664 78.3787 107.664 77.536V73.312H106.464L106.448 71.792H107.664V69.44H109.728V71.792H112.176V73.312H109.728V77.168C109.728 77.5627 109.802 77.8453 109.952 78.016C110.101 78.176 110.325 78.256 110.624 78.256C110.944 78.256 111.349 78.1387 111.84 77.904L112.32 79.472ZM119.008 80V78.96C118.71 79.3333 118.326 79.616 117.856 79.808C117.387 80 116.848 80.096 116.24 80.096C115.643 80.096 115.115 79.984 114.656 79.76C114.208 79.5253 113.862 79.2053 113.616 78.8C113.371 78.3947 113.248 77.9413 113.248 77.44C113.248 76.64 113.531 76.016 114.096 75.568C114.662 75.1093 115.462 74.8747 116.496 74.864H118.992V74.64C118.992 74.1387 118.827 73.7493 118.496 73.472C118.166 73.1947 117.686 73.056 117.056 73.056C116.246 73.056 115.398 73.3227 114.512 73.856L113.76 72.416C114.432 72.0427 115.04 71.776 115.584 71.616C116.139 71.4453 116.784 71.36 117.52 71.36C118.63 71.36 119.488 71.6267 120.096 72.16C120.715 72.6933 121.03 73.44 121.04 74.4L121.056 80H119.008ZM116.736 78.496C117.334 78.496 117.846 78.3573 118.272 78.08C118.699 77.792 118.939 77.44 118.992 77.024V76.256H116.832C116.278 76.256 115.867 76.3413 115.6 76.512C115.344 76.672 115.216 76.9387 115.216 77.312C115.216 77.6747 115.35 77.9627 115.616 78.176C115.894 78.3893 116.267 78.496 116.736 78.496ZM128.542 71.36C129.523 71.36 130.296 71.6587 130.862 72.256C131.427 72.8427 131.71 73.6427 131.71 74.656V80H129.614V75.264C129.614 74.6667 129.443 74.1973 129.102 73.856C128.76 73.504 128.296 73.328 127.71 73.328C127.016 73.3387 126.467 73.5733 126.062 74.032C125.667 74.4907 125.47 75.0773 125.47 75.792V80H123.39V71.44H125.47V73.04C126.056 71.9413 127.08 71.3813 128.542 71.36ZM141.87 71.44V79.184C141.87 79.9947 141.683 80.6987 141.31 81.296C140.947 81.904 140.425 82.368 139.742 82.688C139.07 83.0187 138.286 83.184 137.39 83.184C136.089 83.184 134.883 82.8053 133.774 82.048L134.606 80.544C135.417 81.1413 136.307 81.44 137.278 81.44C138.046 81.44 138.654 81.2427 139.102 80.848C139.561 80.4533 139.79 79.9147 139.79 79.232V78.224C139.502 78.6613 139.129 78.9973 138.67 79.232C138.211 79.456 137.678 79.568 137.07 79.568C136.323 79.568 135.662 79.3973 135.086 79.056C134.51 78.704 134.062 78.2187 133.742 77.6C133.422 76.9707 133.262 76.2507 133.262 75.44C133.262 74.64 133.422 73.936 133.742 73.328C134.062 72.7093 134.51 72.2293 135.086 71.888C135.662 71.5467 136.323 71.376 137.07 71.376C137.667 71.376 138.195 71.4933 138.654 71.728C139.123 71.9627 139.502 72.2933 139.79 72.72V71.44H141.87ZM137.518 77.936C138.19 77.936 138.734 77.712 139.15 77.264C139.577 76.8053 139.79 76.2133 139.79 75.488C139.79 74.7627 139.577 74.176 139.15 73.728C138.734 73.2693 138.19 73.04 137.518 73.04C136.846 73.04 136.297 73.2693 135.87 73.728C135.454 74.1867 135.241 74.7733 135.23 75.488C135.241 76.2133 135.454 76.8053 135.87 77.264C136.297 77.712 136.846 77.936 137.518 77.936Z" fill="black"/>
</svg>
