<svg width="59" height="59" viewBox="0 0 59 59" fill="none" xmlns="http://www.w3.org/2000/svg">
<rect width="59" height="59" rx="29.5" fill="#F1A00E"/>
<path d="M30.592 28.136C32.064 28.328 33.232 28.824 34.096 29.624C34.976 30.424 35.416 31.464 35.416 32.744C35.416 33.8 35.136 34.744 34.576 35.576C34.032 36.392 33.248 37.032 32.224 37.496C31.216 37.944 30.032 38.168 28.672 38.168C27.504 38.168 26.336 37.992 25.168 37.64C24.016 37.272 23.04 36.792 22.24 36.2L23.704 33.392C24.392 33.968 25.136 34.408 25.936 34.712C26.736 35.016 27.552 35.168 28.384 35.168C29.44 35.168 30.256 34.96 30.832 34.544C31.408 34.112 31.696 33.52 31.696 32.768C31.696 32.016 31.408 31.448 30.832 31.064C30.256 30.664 29.432 30.464 28.36 30.464H25.648V28.304L29.848 24.248H23.104L23.08 21.176H34.576V23.456L29.728 28.016L30.592 28.136Z" fill="white"/>
</svg>
