<svg width="275" height="88" viewBox="0 0 275 88" fill="none" xmlns="http://www.w3.org/2000/svg">
<rect width="275" height="88" rx="10" fill="#EDEDED"/>
<path d="M61.976 34.432H63.848V38.688C63.2613 39.1253 62.568 39.4827 61.768 39.76C60.968 40.0267 60.184 40.16 59.416 40.16C58.3173 40.16 57.3147 39.904 56.408 39.392C55.512 38.88 54.8027 38.1867 54.28 37.312C53.7573 36.4267 53.496 35.4507 53.496 34.384C53.496 33.3173 53.7627 32.352 54.296 31.488C54.8293 30.6133 55.5547 29.9253 56.472 29.424C57.4 28.912 58.424 28.656 59.544 28.656C60.344 28.656 61.1333 28.8 61.912 29.088C62.6907 29.376 63.3627 29.7707 63.928 30.272L62.712 31.856C62.2853 31.4507 61.7893 31.136 61.224 30.912C60.6693 30.688 60.1093 30.576 59.544 30.576C58.84 30.576 58.1893 30.7467 57.592 31.088C57.0053 31.4187 56.5413 31.8773 56.2 32.464C55.8587 33.0507 55.688 33.6907 55.688 34.384C55.688 35.088 55.8587 35.7333 56.2 36.32C56.552 36.9067 57.0213 37.3707 57.608 37.712C58.1947 38.0533 58.8453 38.224 59.56 38.224C59.944 38.224 60.344 38.1653 60.76 38.048C61.1867 37.92 61.592 37.744 61.976 37.52V34.432ZM68.3291 33.088C68.6171 32.5333 69.0065 32.112 69.4971 31.824C69.9985 31.5253 70.5798 31.3707 71.2411 31.36V33.376C70.3558 33.3227 69.6465 33.5307 69.1131 34C68.5905 34.4587 68.3291 35.0827 68.3291 35.872V40H66.2491V31.44H68.3291V33.088ZM77.4614 40V38.96C77.1627 39.3333 76.7787 39.616 76.3094 39.808C75.84 40 75.3014 40.096 74.6934 40.096C74.096 40.096 73.568 39.984 73.1094 39.76C72.6614 39.5253 72.3147 39.2053 72.0694 38.8C71.824 38.3947 71.7014 37.9413 71.7014 37.44C71.7014 36.64 71.984 36.016 72.5494 35.568C73.1147 35.1093 73.9147 34.8747 74.9494 34.864H77.4454V34.64C77.4454 34.1387 77.28 33.7493 76.9494 33.472C76.6187 33.1947 76.1387 33.056 75.5094 33.056C74.6987 33.056 73.8507 33.3227 72.9654 33.856L72.2134 32.416C72.8854 32.0427 73.4934 31.776 74.0374 31.616C74.592 31.4453 75.2374 31.36 75.9734 31.36C77.0827 31.36 77.9414 31.6267 78.5494 32.16C79.168 32.6933 79.4827 33.44 79.4934 34.4L79.5094 40H77.4614ZM75.1894 38.496C75.7867 38.496 76.2987 38.3573 76.7254 38.08C77.152 37.792 77.392 37.44 77.4454 37.024V36.256H75.2854C74.7307 36.256 74.32 36.3413 74.0534 36.512C73.7974 36.672 73.6694 36.9387 73.6694 37.312C73.6694 37.6747 73.8027 37.9627 74.0694 38.176C74.3467 38.3893 74.72 38.496 75.1894 38.496ZM86.8509 39.472C86.1682 39.888 85.4535 40.096 84.7069 40.096C83.9709 40.096 83.3682 39.8827 82.8989 39.456C82.4295 39.0187 82.1949 38.3787 82.1949 37.536V33.312H80.9949L80.9789 31.792H82.1949V29.44H84.2589V31.792H86.7069V33.312H84.2589V37.168C84.2589 37.5627 84.3335 37.8453 84.4829 38.016C84.6322 38.176 84.8562 38.256 85.1549 38.256C85.4749 38.256 85.8802 38.1387 86.3709 37.904L86.8509 39.472ZM88.4835 31.44H90.5635V40H88.4835V31.44ZM89.5075 27.76C89.8488 27.76 90.1315 27.8773 90.3555 28.112C90.5795 28.3467 90.6915 28.6453 90.6915 29.008C90.6915 29.36 90.5795 29.6533 90.3555 29.888C90.1315 30.1227 89.8488 30.24 89.5075 30.24C89.1662 30.24 88.8835 30.1227 88.6595 29.888C88.4355 29.6533 88.3235 29.36 88.3235 29.008C88.3235 28.6453 88.4355 28.3467 88.6595 28.112C88.8835 27.8773 89.1662 27.76 89.5075 27.76ZM98.2118 33.76C97.7958 33.5147 97.3638 33.3227 96.9158 33.184C96.4784 33.0453 96.0731 32.976 95.6998 32.976C95.3478 32.976 95.0651 33.04 94.8518 33.168C94.6491 33.2853 94.5478 33.472 94.5478 33.728C94.5478 33.9947 94.6758 34.2027 94.9318 34.352C95.1984 34.4907 95.6144 34.64 96.1798 34.8C96.7771 34.9813 97.2678 35.1627 97.6518 35.344C98.0358 35.5147 98.3664 35.776 98.6438 36.128C98.9318 36.4693 99.0758 36.9227 99.0758 37.488C99.0758 38.32 98.7558 38.96 98.1158 39.408C97.4758 39.856 96.6704 40.08 95.6998 40.08C95.0384 40.08 94.3931 39.9787 93.7638 39.776C93.1344 39.5627 92.6011 39.264 92.1638 38.88L92.8838 37.424C93.2678 37.7547 93.7264 38.016 94.2598 38.208C94.7931 38.3893 95.2998 38.48 95.7798 38.48C96.1638 38.48 96.4678 38.416 96.6918 38.288C96.9264 38.1493 97.0438 37.9467 97.0438 37.68C97.0438 37.3813 96.9104 37.1573 96.6438 37.008C96.3771 36.8587 95.9451 36.6933 95.3478 36.512C94.7718 36.3413 94.3024 36.176 93.9398 36.016C93.5771 35.8453 93.2624 35.5947 92.9958 35.264C92.7291 34.9227 92.5958 34.48 92.5958 33.936C92.5958 33.0933 92.8998 32.4533 93.5078 32.016C94.1264 31.568 94.8998 31.344 95.8278 31.344C96.3931 31.344 96.9478 31.424 97.4918 31.584C98.0464 31.744 98.5371 31.968 98.9638 32.256L98.2118 33.76ZM114.828 31.376C115.628 31.376 116.332 31.5627 116.94 31.936C117.559 32.2987 118.034 32.8107 118.364 33.472C118.706 34.1333 118.876 34.896 118.876 35.76C118.876 36.6133 118.711 37.3653 118.38 38.016C118.05 38.6667 117.58 39.1733 116.972 39.536C116.364 39.8987 115.66 40.08 114.86 40.08C114.22 40.08 113.655 39.9573 113.164 39.712C112.674 39.456 112.268 39.088 111.948 38.608V43.104H109.868V31.44H111.948V32.848C112.258 32.368 112.652 32.0053 113.132 31.76C113.623 31.504 114.188 31.376 114.828 31.376ZM114.364 38.288C115.068 38.288 115.644 38.048 116.092 37.568C116.54 37.0773 116.764 36.4533 116.764 35.696C116.764 34.9387 116.54 34.32 116.092 33.84C115.644 33.36 115.068 33.12 114.364 33.12C113.65 33.12 113.068 33.36 112.62 33.84C112.172 34.32 111.948 34.9387 111.948 35.696C111.948 36.464 112.172 37.088 112.62 37.568C113.068 38.048 113.65 38.288 114.364 38.288ZM125.735 40V38.96C125.436 39.3333 125.052 39.616 124.583 39.808C124.113 40 123.575 40.096 122.967 40.096C122.369 40.096 121.841 39.984 121.383 39.76C120.935 39.5253 120.588 39.2053 120.343 38.8C120.097 38.3947 119.975 37.9413 119.975 37.44C119.975 36.64 120.257 36.016 120.823 35.568C121.388 35.1093 122.188 34.8747 123.223 34.864H125.719V34.64C125.719 34.1387 125.553 33.7493 125.223 33.472C124.892 33.1947 124.412 33.056 123.783 33.056C122.972 33.056 122.124 33.3227 121.239 33.856L120.487 32.416C121.159 32.0427 121.767 31.776 122.311 31.616C122.865 31.4453 123.511 31.36 124.247 31.36C125.356 31.36 126.215 31.6267 126.823 32.16C127.441 32.6933 127.756 33.44 127.767 34.4L127.783 40H125.735ZM123.463 38.496C124.06 38.496 124.572 38.3573 124.999 38.08C125.425 37.792 125.665 37.44 125.719 37.024V36.256H123.559C123.004 36.256 122.593 36.3413 122.327 36.512C122.071 36.672 121.943 36.9387 121.943 37.312C121.943 37.6747 122.076 37.9627 122.343 38.176C122.62 38.3893 122.993 38.496 123.463 38.496ZM132.196 33.088C132.484 32.5333 132.874 32.112 133.364 31.824C133.866 31.5253 134.447 31.3707 135.108 31.36V33.376C134.223 33.3227 133.514 33.5307 132.98 34C132.458 34.4587 132.196 35.0827 132.196 35.872V40H130.116V31.44H132.196V33.088ZM140.137 29.824C139.817 29.824 139.551 29.9147 139.337 30.096C139.135 30.2773 139.033 30.5493 139.033 30.912V31.792H141.177V33.312H139.033V40H136.953V33.312H135.833V31.792H136.953V30.976C136.953 30.3467 137.092 29.8133 137.369 29.376C137.647 28.928 138.015 28.592 138.473 28.368C138.943 28.144 139.449 28.032 139.993 28.032C140.527 28.032 141.049 28.1547 141.561 28.4L141.193 30.08C140.767 29.9093 140.415 29.824 140.137 29.824ZM150.489 31.44V40H148.393V38.416C147.817 39.5253 146.825 40.08 145.417 40.08C144.457 40.08 143.7 39.7867 143.145 39.2C142.59 38.6133 142.313 37.8133 142.313 36.8V31.44H144.409V36.192C144.409 36.7893 144.569 37.2587 144.889 37.6C145.22 37.9413 145.673 38.112 146.249 38.112C146.91 38.1013 147.433 37.8667 147.817 37.408C148.201 36.9493 148.393 36.368 148.393 35.664V31.44H150.489ZM164.301 31.36C165.272 31.36 166.034 31.6587 166.589 32.256C167.144 32.8427 167.421 33.6427 167.421 34.656V40H165.325V35.264C165.325 34.656 165.154 34.1813 164.813 33.84C164.482 33.488 164.029 33.312 163.453 33.312C162.792 33.3333 162.264 33.5733 161.869 34.032C161.485 34.4907 161.293 35.072 161.293 35.776V40H159.197V35.264C159.197 34.656 159.032 34.1813 158.701 33.84C158.37 33.488 157.917 33.312 157.341 33.312C156.669 33.3333 156.136 33.5733 155.741 34.032C155.357 34.4907 155.165 35.072 155.165 35.776V40H153.085V31.44H155.165V33.024C155.73 31.936 156.733 31.3813 158.173 31.36C158.92 31.36 159.544 31.5413 160.045 31.904C160.557 32.256 160.914 32.7573 161.117 33.408C161.661 32.064 162.722 31.3813 164.301 31.36ZM177.359 31.456L179.503 31.44L181.599 37.904L183.631 31.44H185.727L187.791 37.904L189.839 31.44H191.935L188.831 40H186.703L184.655 33.968L182.623 40H180.495L177.359 31.456ZM197.977 40V38.96C197.678 39.3333 197.294 39.616 196.825 39.808C196.356 40 195.817 40.096 195.209 40.096C194.612 40.096 194.084 39.984 193.625 39.76C193.177 39.5253 192.83 39.2053 192.585 38.8C192.34 38.3947 192.217 37.9413 192.217 37.44C192.217 36.64 192.5 36.016 193.065 35.568C193.63 35.1093 194.43 34.8747 195.465 34.864H197.961V34.64C197.961 34.1387 197.796 33.7493 197.465 33.472C197.134 33.1947 196.654 33.056 196.025 33.056C195.214 33.056 194.366 33.3227 193.481 33.856L192.729 32.416C193.401 32.0427 194.009 31.776 194.553 31.616C195.108 31.4453 195.753 31.36 196.489 31.36C197.598 31.36 198.457 31.6267 199.065 32.16C199.684 32.6933 199.998 33.44 200.009 34.4L200.025 40H197.977ZM195.705 38.496C196.302 38.496 196.814 38.3573 197.241 38.08C197.668 37.792 197.908 37.44 197.961 37.024V36.256H195.801C195.246 36.256 194.836 36.3413 194.569 36.512C194.313 36.672 194.185 36.9387 194.185 37.312C194.185 37.6747 194.318 37.9627 194.585 38.176C194.862 38.3893 195.236 38.496 195.705 38.496ZM202.439 28.128H204.519V40H202.439V28.128ZM210.755 31.376C212.12 31.376 213.144 31.7653 213.827 32.544C214.52 33.3227 214.867 34.416 214.867 35.824C214.867 36.1013 214.861 36.3093 214.851 36.448H208.531C208.669 37.056 208.952 37.536 209.379 37.888C209.816 38.2293 210.349 38.4 210.979 38.4C211.416 38.4 211.832 38.32 212.227 38.16C212.632 37.9893 212.984 37.7493 213.283 37.44L214.403 38.608C213.976 39.0773 213.453 39.44 212.835 39.696C212.227 39.952 211.549 40.08 210.803 40.08C209.928 40.08 209.155 39.8987 208.483 39.536C207.821 39.1733 207.309 38.6667 206.947 38.016C206.584 37.3547 206.403 36.5973 206.403 35.744C206.403 34.8907 206.584 34.1333 206.947 33.472C207.32 32.8107 207.837 32.2987 208.499 31.936C209.16 31.5627 209.912 31.376 210.755 31.376ZM212.963 35.056C212.941 34.4267 212.733 33.9253 212.339 33.552C211.944 33.1787 211.421 32.992 210.771 32.992C210.163 32.992 209.651 33.1787 209.235 33.552C208.829 33.9147 208.579 34.416 208.483 35.056H212.963ZM221.663 39.472C220.981 39.888 220.266 40.096 219.519 40.096C218.783 40.096 218.181 39.8827 217.711 39.456C217.242 39.0187 217.007 38.3787 217.007 37.536V33.312H215.807L215.791 31.792H217.007V29.44H219.071V31.792H221.519V33.312H219.071V37.168C219.071 37.5627 219.146 37.8453 219.295 38.016C219.445 38.176 219.669 38.256 219.967 38.256C220.287 38.256 220.693 38.1387 221.183 37.904L221.663 39.472ZM59.352 60V58.96C59.0533 59.3333 58.6693 59.616 58.2 59.808C57.7307 60 57.192 60.096 56.584 60.096C55.9867 60.096 55.4587 59.984 55 59.76C54.552 59.5253 54.2053 59.2053 53.96 58.8C53.7147 58.3947 53.592 57.9413 53.592 57.44C53.592 56.64 53.8747 56.016 54.44 55.568C55.0053 55.1093 55.8053 54.8747 56.84 54.864H59.336V54.64C59.336 54.1387 59.1707 53.7493 58.84 53.472C58.5093 53.1947 58.0293 53.056 57.4 53.056C56.5893 53.056 55.7413 53.3227 54.856 53.856L54.104 52.416C54.776 52.0427 55.384 51.776 55.928 51.616C56.4827 51.4453 57.128 51.36 57.864 51.36C58.9733 51.36 59.832 51.6267 60.44 52.16C61.0587 52.6933 61.3733 53.44 61.384 54.4L61.4 60H59.352ZM57.08 58.496C57.6773 58.496 58.1893 58.3573 58.616 58.08C59.0427 57.792 59.2827 57.44 59.336 57.024V56.256H57.176C56.6213 56.256 56.2107 56.3413 55.944 56.512C55.688 56.672 55.56 56.9387 55.56 57.312C55.56 57.6747 55.6933 57.9627 55.96 58.176C56.2373 58.3893 56.6107 58.496 57.08 58.496ZM65.8135 53.088C66.1015 52.5333 66.4908 52.112 66.9815 51.824C67.4828 51.5253 68.0642 51.3707 68.7255 51.36V53.376C67.8402 53.3227 67.1308 53.5307 66.5975 54C66.0748 54.4587 65.8135 55.0827 65.8135 55.872V60H63.7335V51.44H65.8135V53.088ZM73.9306 51.376C74.816 51.376 75.5946 51.5573 76.2666 51.92C76.9493 52.2827 77.4773 52.7947 77.8506 53.456C78.2346 54.1067 78.4266 54.8587 78.4266 55.712C78.4266 56.576 78.2346 57.3387 77.8506 58C77.4773 58.6613 76.9493 59.1733 76.2666 59.536C75.5946 59.8987 74.816 60.08 73.9306 60.08C73.0346 60.08 72.2453 59.8987 71.5626 59.536C70.88 59.1733 70.3466 58.6613 69.9626 58C69.5893 57.3387 69.4026 56.576 69.4026 55.712C69.4026 54.8587 69.5893 54.1067 69.9626 53.456C70.3466 52.7947 70.88 52.2827 71.5626 51.92C72.2453 51.5573 73.0346 51.376 73.9306 51.376ZM73.9306 53.152C73.2053 53.152 72.6186 53.392 72.1706 53.872C71.7226 54.352 71.4986 54.976 71.4986 55.744C71.4986 56.512 71.7226 57.136 72.1706 57.616C72.6186 58.096 73.2053 58.336 73.9306 58.336C74.6346 58.336 75.2106 58.096 75.6586 57.616C76.1066 57.136 76.3306 56.512 76.3306 55.744C76.3306 54.976 76.1066 54.352 75.6586 53.872C75.2106 53.392 74.6346 53.152 73.9306 53.152ZM91.4495 51.36C92.4202 51.36 93.1828 51.6587 93.7375 52.256C94.2922 52.8427 94.5695 53.6427 94.5695 54.656V60H92.4735V55.264C92.4735 54.656 92.3028 54.1813 91.9615 53.84C91.6308 53.488 91.1775 53.312 90.6015 53.312C89.9402 53.3333 89.4122 53.5733 89.0175 54.032C88.6335 54.4907 88.4415 55.072 88.4415 55.776V60H86.3455V55.264C86.3455 54.656 86.1802 54.1813 85.8495 53.84C85.5188 53.488 85.0655 53.312 84.4895 53.312C83.8175 53.3333 83.2842 53.5733 82.8895 54.032C82.5055 54.4907 82.3135 55.072 82.3135 55.776V60H80.2335V51.44H82.3135V53.024C82.8788 51.936 83.8815 51.3813 85.3215 51.36C86.0682 51.36 86.6922 51.5413 87.1935 51.904C87.7055 52.256 88.0628 52.7573 88.2655 53.408C88.8095 52.064 89.8708 51.3813 91.4495 51.36ZM101.946 60V58.96C101.647 59.3333 101.263 59.616 100.794 59.808C100.324 60 99.7858 60.096 99.1778 60.096C98.5804 60.096 98.0524 59.984 97.5938 59.76C97.1458 59.5253 96.7991 59.2053 96.5538 58.8C96.3084 58.3947 96.1858 57.9413 96.1858 57.44C96.1858 56.64 96.4684 56.016 97.0338 55.568C97.5991 55.1093 98.3991 54.8747 99.4338 54.864H101.93V54.64C101.93 54.1387 101.764 53.7493 101.434 53.472C101.103 53.1947 100.623 53.056 99.9938 53.056C99.1831 53.056 98.3351 53.3227 97.4498 53.856L96.6978 52.416C97.3698 52.0427 97.9778 51.776 98.5218 51.616C99.0764 51.4453 99.7218 51.36 100.458 51.36C101.567 51.36 102.426 51.6267 103.034 52.16C103.652 52.6933 103.967 53.44 103.978 54.4L103.994 60H101.946ZM99.6738 58.496C100.271 58.496 100.783 58.3573 101.21 58.08C101.636 57.792 101.876 57.44 101.93 57.024V56.256H99.7698C99.2151 56.256 98.8044 56.3413 98.5378 56.512C98.2818 56.672 98.1538 56.9387 98.1538 57.312C98.1538 57.6747 98.2871 57.9627 98.5538 58.176C98.8311 58.3893 99.2044 58.496 99.6738 58.496ZM119.227 60V58.96C118.928 59.3333 118.544 59.616 118.075 59.808C117.606 60 117.067 60.096 116.459 60.096C115.862 60.096 115.334 59.984 114.875 59.76C114.427 59.5253 114.08 59.2053 113.835 58.8C113.59 58.3947 113.467 57.9413 113.467 57.44C113.467 56.64 113.75 56.016 114.315 55.568C114.88 55.1093 115.68 54.8747 116.715 54.864H119.211V54.64C119.211 54.1387 119.046 53.7493 118.715 53.472C118.384 53.1947 117.904 53.056 117.275 53.056C116.464 53.056 115.616 53.3227 114.731 53.856L113.979 52.416C114.651 52.0427 115.259 51.776 115.803 51.616C116.358 51.4453 117.003 51.36 117.739 51.36C118.848 51.36 119.707 51.6267 120.315 52.16C120.934 52.6933 121.248 53.44 121.259 54.4L121.275 60H119.227ZM116.955 58.496C117.552 58.496 118.064 58.3573 118.491 58.08C118.918 57.792 119.158 57.44 119.211 57.024V56.256H117.051C116.496 56.256 116.086 56.3413 115.819 56.512C115.563 56.672 115.435 56.9387 115.435 57.312C115.435 57.6747 115.568 57.9627 115.835 58.176C116.112 58.3893 116.486 58.496 116.955 58.496ZM134.825 51.36C135.795 51.36 136.558 51.6587 137.113 52.256C137.667 52.8427 137.945 53.6427 137.945 54.656V60H135.849V55.264C135.849 54.656 135.678 54.1813 135.337 53.84C135.006 53.488 134.553 53.312 133.977 53.312C133.315 53.3333 132.787 53.5733 132.393 54.032C132.009 54.4907 131.817 55.072 131.817 55.776V60H129.721V55.264C129.721 54.656 129.555 54.1813 129.225 53.84C128.894 53.488 128.441 53.312 127.865 53.312C127.193 53.3333 126.659 53.5733 126.265 54.032C125.881 54.4907 125.689 55.072 125.689 55.776V60H123.609V51.44H125.689V53.024C126.254 51.936 127.257 51.3813 128.697 51.36C129.443 51.36 130.067 51.5413 130.569 51.904C131.081 52.256 131.438 52.7573 131.641 53.408C132.185 52.064 133.246 51.3813 134.825 51.36ZM145.305 51.376C146.105 51.376 146.809 51.5627 147.417 51.936C148.035 52.2987 148.51 52.8107 148.841 53.472C149.182 54.1333 149.353 54.896 149.353 55.76C149.353 56.6133 149.187 57.3653 148.857 58.016C148.526 58.6667 148.057 59.1733 147.449 59.536C146.841 59.8987 146.137 60.08 145.337 60.08C144.697 60.08 144.131 59.9573 143.641 59.712C143.15 59.456 142.745 59.088 142.425 58.608V63.104H140.345V51.44H142.425V52.848C142.734 52.368 143.129 52.0053 143.609 51.76C144.099 51.504 144.665 51.376 145.305 51.376ZM144.841 58.288C145.545 58.288 146.121 58.048 146.569 57.568C147.017 57.0773 147.241 56.4533 147.241 55.696C147.241 54.9387 147.017 54.32 146.569 53.84C146.121 53.36 145.545 53.12 144.841 53.12C144.126 53.12 143.545 53.36 143.097 53.84C142.649 54.32 142.425 54.9387 142.425 55.696C142.425 56.464 142.649 57.088 143.097 57.568C143.545 58.048 144.126 58.288 144.841 58.288ZM159.059 51.44V60H156.963V58.416C156.387 59.5253 155.395 60.08 153.987 60.08C153.027 60.08 152.27 59.7867 151.715 59.2C151.161 58.6133 150.883 57.8133 150.883 56.8V51.44H152.979V56.192C152.979 56.7893 153.139 57.2587 153.459 57.6C153.79 57.9413 154.243 58.112 154.819 58.112C155.481 58.1013 156.003 57.8667 156.387 57.408C156.771 56.9493 156.963 56.368 156.963 55.664V51.44H159.059ZM166.903 51.36C167.885 51.36 168.658 51.6587 169.223 52.256C169.789 52.8427 170.071 53.6427 170.071 54.656V60H167.975V55.264C167.975 54.6667 167.805 54.1973 167.463 53.856C167.122 53.504 166.658 53.328 166.071 53.328C165.378 53.3387 164.829 53.5733 164.423 54.032C164.018 54.4907 163.815 55.0773 163.815 55.792V60H161.735V48.128H163.815V53.072C164.402 51.952 165.431 51.3813 166.903 51.36Z" fill="black"/>
</svg>
