<svg width="275" height="88" viewBox="0 0 275 88" fill="none" xmlns="http://www.w3.org/2000/svg">
<rect width="275" height="88" rx="10" fill="#EDEDED"/>
<path d="M61.976 34.432H63.848V38.688C63.2613 39.1253 62.568 39.4827 61.768 39.76C60.968 40.0267 60.184 40.16 59.416 40.16C58.3173 40.16 57.3147 39.904 56.408 39.392C55.512 38.88 54.8027 38.1867 54.28 37.312C53.7573 36.4267 53.496 35.4507 53.496 34.384C53.496 33.3173 53.7627 32.352 54.296 31.488C54.8293 30.6133 55.5547 29.9253 56.472 29.424C57.4 28.912 58.424 28.656 59.544 28.656C60.344 28.656 61.1333 28.8 61.912 29.088C62.6907 29.376 63.3627 29.7707 63.928 30.272L62.712 31.856C62.2853 31.4507 61.7893 31.136 61.224 30.912C60.6693 30.688 60.1093 30.576 59.544 30.576C58.84 30.576 58.1893 30.7467 57.592 31.088C57.0053 31.4187 56.5413 31.8773 56.2 32.464C55.8587 33.0507 55.688 33.6907 55.688 34.384C55.688 35.088 55.8587 35.7333 56.2 36.32C56.552 36.9067 57.0213 37.3707 57.608 37.712C58.1947 38.0533 58.8453 38.224 59.56 38.224C59.944 38.224 60.344 38.1653 60.76 38.048C61.1867 37.92 61.592 37.744 61.976 37.52V34.432ZM68.3291 33.088C68.6171 32.5333 69.0065 32.112 69.4971 31.824C69.9985 31.5253 70.5798 31.3707 71.2411 31.36V33.376C70.3558 33.3227 69.6465 33.5307 69.1131 34C68.5905 34.4587 68.3291 35.0827 68.3291 35.872V40H66.2491V31.44H68.3291V33.088ZM77.4614 40V38.96C77.1627 39.3333 76.7787 39.616 76.3094 39.808C75.84 40 75.3014 40.096 74.6934 40.096C74.096 40.096 73.568 39.984 73.1094 39.76C72.6614 39.5253 72.3147 39.2053 72.0694 38.8C71.824 38.3947 71.7014 37.9413 71.7014 37.44C71.7014 36.64 71.984 36.016 72.5494 35.568C73.1147 35.1093 73.9147 34.8747 74.9494 34.864H77.4454V34.64C77.4454 34.1387 77.28 33.7493 76.9494 33.472C76.6187 33.1947 76.1387 33.056 75.5094 33.056C74.6987 33.056 73.8507 33.3227 72.9654 33.856L72.2134 32.416C72.8854 32.0427 73.4934 31.776 74.0374 31.616C74.592 31.4453 75.2374 31.36 75.9734 31.36C77.0827 31.36 77.9414 31.6267 78.5494 32.16C79.168 32.6933 79.4827 33.44 79.4934 34.4L79.5094 40H77.4614ZM75.1894 38.496C75.7867 38.496 76.2987 38.3573 76.7254 38.08C77.152 37.792 77.392 37.44 77.4454 37.024V36.256H75.2854C74.7307 36.256 74.32 36.3413 74.0534 36.512C73.7974 36.672 73.6694 36.9387 73.6694 37.312C73.6694 37.6747 73.8027 37.9627 74.0694 38.176C74.3467 38.3893 74.72 38.496 75.1894 38.496ZM86.8509 39.472C86.1682 39.888 85.4535 40.096 84.7069 40.096C83.9709 40.096 83.3682 39.8827 82.8989 39.456C82.4295 39.0187 82.1949 38.3787 82.1949 37.536V33.312H80.9949L80.9789 31.792H82.1949V29.44H84.2589V31.792H86.7069V33.312H84.2589V37.168C84.2589 37.5627 84.3335 37.8453 84.4829 38.016C84.6322 38.176 84.8562 38.256 85.1549 38.256C85.4749 38.256 85.8802 38.1387 86.3709 37.904L86.8509 39.472ZM88.4835 31.44H90.5635V40H88.4835V31.44ZM89.5075 27.76C89.8488 27.76 90.1315 27.8773 90.3555 28.112C90.5795 28.3467 90.6915 28.6453 90.6915 29.008C90.6915 29.36 90.5795 29.6533 90.3555 29.888C90.1315 30.1227 89.8488 30.24 89.5075 30.24C89.1662 30.24 88.8835 30.1227 88.6595 29.888C88.4355 29.6533 88.3235 29.36 88.3235 29.008C88.3235 28.6453 88.4355 28.3467 88.6595 28.112C88.8835 27.8773 89.1662 27.76 89.5075 27.76ZM98.2118 33.76C97.7958 33.5147 97.3638 33.3227 96.9158 33.184C96.4784 33.0453 96.0731 32.976 95.6998 32.976C95.3478 32.976 95.0651 33.04 94.8518 33.168C94.6491 33.2853 94.5478 33.472 94.5478 33.728C94.5478 33.9947 94.6758 34.2027 94.9318 34.352C95.1984 34.4907 95.6144 34.64 96.1798 34.8C96.7771 34.9813 97.2678 35.1627 97.6518 35.344C98.0358 35.5147 98.3664 35.776 98.6438 36.128C98.9318 36.4693 99.0758 36.9227 99.0758 37.488C99.0758 38.32 98.7558 38.96 98.1158 39.408C97.4758 39.856 96.6704 40.08 95.6998 40.08C95.0384 40.08 94.3931 39.9787 93.7638 39.776C93.1344 39.5627 92.6011 39.264 92.1638 38.88L92.8838 37.424C93.2678 37.7547 93.7264 38.016 94.2598 38.208C94.7931 38.3893 95.2998 38.48 95.7798 38.48C96.1638 38.48 96.4678 38.416 96.6918 38.288C96.9264 38.1493 97.0438 37.9467 97.0438 37.68C97.0438 37.3813 96.9104 37.1573 96.6438 37.008C96.3771 36.8587 95.9451 36.6933 95.3478 36.512C94.7718 36.3413 94.3024 36.176 93.9398 36.016C93.5771 35.8453 93.2624 35.5947 92.9958 35.264C92.7291 34.9227 92.5958 34.48 92.5958 33.936C92.5958 33.0933 92.8998 32.4533 93.5078 32.016C94.1264 31.568 94.8998 31.344 95.8278 31.344C96.3931 31.344 96.9478 31.424 97.4918 31.584C98.0464 31.744 98.5371 31.968 98.9638 32.256L98.2118 33.76ZM118.586 40V38.96C118.288 39.3333 117.904 39.616 117.434 39.808C116.965 40 116.426 40.096 115.818 40.096C115.221 40.096 114.693 39.984 114.234 39.76C113.786 39.5253 113.44 39.2053 113.194 38.8C112.949 38.3947 112.826 37.9413 112.826 37.44C112.826 36.64 113.109 36.016 113.674 35.568C114.24 35.1093 115.04 34.8747 116.074 34.864H118.57V34.64C118.57 34.1387 118.405 33.7493 118.074 33.472C117.744 33.1947 117.264 33.056 116.634 33.056C115.824 33.056 114.976 33.3227 114.09 33.856L113.338 32.416C114.01 32.0427 114.618 31.776 115.162 31.616C115.717 31.4453 116.362 31.36 117.098 31.36C118.208 31.36 119.066 31.6267 119.674 32.16C120.293 32.6933 120.608 33.44 120.618 34.4L120.634 40H118.586ZM116.314 38.496C116.912 38.496 117.424 38.3573 117.85 38.08C118.277 37.792 118.517 37.44 118.57 37.024V36.256H116.41C115.856 36.256 115.445 36.3413 115.178 36.512C114.922 36.672 114.794 36.9387 114.794 37.312C114.794 37.6747 114.928 37.9627 115.194 38.176C115.472 38.3893 115.845 38.496 116.314 38.496ZM128.76 40L126.44 36.256L125.128 37.632V40H123.048V28.128H125.128V35.008L128.648 31.456H131.048L127.88 34.752L131.24 40H128.76ZM137.556 33.76C137.14 33.5147 136.708 33.3227 136.26 33.184C135.822 33.0453 135.417 32.976 135.044 32.976C134.692 32.976 134.409 33.04 134.196 33.168C133.993 33.2853 133.892 33.472 133.892 33.728C133.892 33.9947 134.02 34.2027 134.276 34.352C134.542 34.4907 134.958 34.64 135.524 34.8C136.121 34.9813 136.612 35.1627 136.996 35.344C137.38 35.5147 137.71 35.776 137.988 36.128C138.276 36.4693 138.42 36.9227 138.42 37.488C138.42 38.32 138.1 38.96 137.46 39.408C136.82 39.856 136.014 40.08 135.044 40.08C134.382 40.08 133.737 39.9787 133.108 39.776C132.478 39.5627 131.945 39.264 131.508 38.88L132.228 37.424C132.612 37.7547 133.07 38.016 133.604 38.208C134.137 38.3893 134.644 38.48 135.124 38.48C135.508 38.48 135.812 38.416 136.036 38.288C136.27 38.1493 136.388 37.9467 136.388 37.68C136.388 37.3813 136.254 37.1573 135.988 37.008C135.721 36.8587 135.289 36.6933 134.692 36.512C134.116 36.3413 133.646 36.176 133.284 36.016C132.921 35.8453 132.606 35.5947 132.34 35.264C132.073 34.9227 131.94 34.48 131.94 33.936C131.94 33.0933 132.244 32.4533 132.852 32.016C133.47 31.568 134.244 31.344 135.172 31.344C135.737 31.344 136.292 31.424 136.836 31.584C137.39 31.744 137.881 31.968 138.308 32.256L137.556 33.76ZM143.77 31.376C145.136 31.376 146.16 31.7653 146.842 32.544C147.536 33.3227 147.882 34.416 147.882 35.824C147.882 36.1013 147.877 36.3093 147.866 36.448H141.546C141.685 37.056 141.968 37.536 142.394 37.888C142.832 38.2293 143.365 38.4 143.994 38.4C144.432 38.4 144.848 38.32 145.242 38.16C145.648 37.9893 146 37.7493 146.298 37.44L147.418 38.608C146.992 39.0773 146.469 39.44 145.85 39.696C145.242 39.952 144.565 40.08 143.818 40.08C142.944 40.08 142.17 39.8987 141.498 39.536C140.837 39.1733 140.325 38.6667 139.962 38.016C139.6 37.3547 139.418 36.5973 139.418 35.744C139.418 34.8907 139.6 34.1333 139.962 33.472C140.336 32.8107 140.853 32.2987 141.514 31.936C142.176 31.5627 142.928 31.376 143.77 31.376ZM145.978 35.056C145.957 34.4267 145.749 33.9253 145.354 33.552C144.96 33.1787 144.437 32.992 143.786 32.992C143.178 32.992 142.666 33.1787 142.25 33.552C141.845 33.9147 141.594 34.416 141.498 35.056H145.978ZM154.743 33.76C154.327 33.5147 153.895 33.3227 153.447 33.184C153.01 33.0453 152.604 32.976 152.231 32.976C151.879 32.976 151.596 33.04 151.383 33.168C151.18 33.2853 151.079 33.472 151.079 33.728C151.079 33.9947 151.207 34.2027 151.463 34.352C151.73 34.4907 152.146 34.64 152.711 34.8C153.308 34.9813 153.799 35.1627 154.183 35.344C154.567 35.5147 154.898 35.776 155.175 36.128C155.463 36.4693 155.607 36.9227 155.607 37.488C155.607 38.32 155.287 38.96 154.647 39.408C154.007 39.856 153.202 40.08 152.231 40.08C151.57 40.08 150.924 39.9787 150.295 39.776C149.666 39.5627 149.132 39.264 148.695 38.88L149.415 37.424C149.799 37.7547 150.258 38.016 150.791 38.208C151.324 38.3893 151.831 38.48 152.311 38.48C152.695 38.48 152.999 38.416 153.223 38.288C153.458 38.1493 153.575 37.9467 153.575 37.68C153.575 37.3813 153.442 37.1573 153.175 37.008C152.908 36.8587 152.476 36.6933 151.879 36.512C151.303 36.3413 150.834 36.176 150.471 36.016C150.108 35.8453 149.794 35.5947 149.527 35.264C149.26 34.9227 149.127 34.48 149.127 33.936C149.127 33.0933 149.431 32.4533 150.039 32.016C150.658 31.568 151.431 31.344 152.359 31.344C152.924 31.344 153.479 31.424 154.023 31.584C154.578 31.744 155.068 31.968 155.495 32.256L154.743 33.76ZM181.278 31.36C182.248 31.36 183.011 31.6587 183.566 32.256C184.12 32.8427 184.398 33.6427 184.398 34.656V40H182.302V35.264C182.302 34.656 182.131 34.1813 181.79 33.84C181.459 33.488 181.006 33.312 180.43 33.312C179.768 33.3333 179.24 33.5733 178.846 34.032C178.462 34.4907 178.27 35.072 178.27 35.776V40H176.174V35.264C176.174 34.656 176.008 34.1813 175.678 33.84C175.347 33.488 174.894 33.312 174.318 33.312C173.646 33.3333 173.112 33.5733 172.718 34.032C172.334 34.4907 172.142 35.072 172.142 35.776V40H170.062V31.44H172.142V33.024C172.707 31.936 173.71 31.3813 175.15 31.36C175.896 31.36 176.52 31.5413 177.022 31.904C177.534 32.256 177.891 32.7573 178.094 33.408C178.638 32.064 179.699 31.3813 181.278 31.36ZM191.774 40V38.96C191.475 39.3333 191.091 39.616 190.622 39.808C190.153 40 189.614 40.096 189.006 40.096C188.409 40.096 187.881 39.984 187.422 39.76C186.974 39.5253 186.627 39.2053 186.382 38.8C186.137 38.3947 186.014 37.9413 186.014 37.44C186.014 36.64 186.297 36.016 186.862 35.568C187.427 35.1093 188.227 34.8747 189.262 34.864H191.758V34.64C191.758 34.1387 191.593 33.7493 191.262 33.472C190.931 33.1947 190.451 33.056 189.822 33.056C189.011 33.056 188.163 33.3227 187.278 33.856L186.526 32.416C187.198 32.0427 187.806 31.776 188.35 31.616C188.905 31.4453 189.55 31.36 190.286 31.36C191.395 31.36 192.254 31.6267 192.862 32.16C193.481 32.6933 193.795 33.44 193.806 34.4L193.822 40H191.774ZM189.502 38.496C190.099 38.496 190.611 38.3573 191.038 38.08C191.465 37.792 191.705 37.44 191.758 37.024V36.256H189.598C189.043 36.256 188.633 36.3413 188.366 36.512C188.11 36.672 187.982 36.9387 187.982 37.312C187.982 37.6747 188.115 37.9627 188.382 38.176C188.659 38.3893 189.033 38.496 189.502 38.496ZM201.163 39.472C200.481 39.888 199.766 40.096 199.019 40.096C198.283 40.096 197.681 39.8827 197.211 39.456C196.742 39.0187 196.507 38.3787 196.507 37.536V33.312H195.307L195.291 31.792H196.507V29.44H198.571V31.792H201.019V33.312H198.571V37.168C198.571 37.5627 198.646 37.8453 198.795 38.016C198.945 38.176 199.169 38.256 199.467 38.256C199.787 38.256 200.193 38.1387 200.683 37.904L201.163 39.472ZM206.286 31.376C207.651 31.376 208.675 31.7653 209.358 32.544C210.051 33.3227 210.398 34.416 210.398 35.824C210.398 36.1013 210.393 36.3093 210.382 36.448H204.062C204.201 37.056 204.483 37.536 204.91 37.888C205.347 38.2293 205.881 38.4 206.51 38.4C206.947 38.4 207.363 38.32 207.758 38.16C208.163 37.9893 208.515 37.7493 208.814 37.44L209.934 38.608C209.507 39.0773 208.985 39.44 208.366 39.696C207.758 39.952 207.081 40.08 206.334 40.08C205.459 40.08 204.686 39.8987 204.014 39.536C203.353 39.1733 202.841 38.6667 202.478 38.016C202.115 37.3547 201.934 36.5973 201.934 35.744C201.934 34.8907 202.115 34.1333 202.478 33.472C202.851 32.8107 203.369 32.2987 204.03 31.936C204.691 31.5627 205.443 31.376 206.286 31.376ZM208.494 35.056C208.473 34.4267 208.265 33.9253 207.87 33.552C207.475 33.1787 206.953 32.992 206.302 32.992C205.694 32.992 205.182 33.1787 204.766 33.552C204.361 33.9147 204.11 34.416 204.014 35.056H208.494ZM214.267 33.088C214.555 32.5333 214.944 32.112 215.435 31.824C215.936 31.5253 216.517 31.3707 217.179 31.36V33.376C216.293 33.3227 215.584 33.5307 215.051 34C214.528 34.4587 214.267 35.0827 214.267 35.872V40H212.187V31.44H214.267V33.088ZM218.64 31.44H220.72V40H218.64V31.44ZM219.664 27.76C220.005 27.76 220.288 27.8773 220.512 28.112C220.736 28.3467 220.848 28.6453 220.848 29.008C220.848 29.36 220.736 29.6533 220.512 29.888C220.288 30.1227 220.005 30.24 219.664 30.24C219.322 30.24 219.04 30.1227 218.816 29.888C218.592 29.6533 218.48 29.36 218.48 29.008C218.48 28.6453 218.592 28.3467 218.816 28.112C219.04 27.8773 219.322 27.76 219.664 27.76ZM59.368 53.76C58.952 53.5147 58.52 53.3227 58.072 53.184C57.6347 53.0453 57.2293 52.976 56.856 52.976C56.504 52.976 56.2213 53.04 56.008 53.168C55.8053 53.2853 55.704 53.472 55.704 53.728C55.704 53.9947 55.832 54.2027 56.088 54.352C56.3547 54.4907 56.7707 54.64 57.336 54.8C57.9333 54.9813 58.424 55.1627 58.808 55.344C59.192 55.5147 59.5227 55.776 59.8 56.128C60.088 56.4693 60.232 56.9227 60.232 57.488C60.232 58.32 59.912 58.96 59.272 59.408C58.632 59.856 57.8267 60.08 56.856 60.08C56.1947 60.08 55.5493 59.9787 54.92 59.776C54.2907 59.5627 53.7573 59.264 53.32 58.88L54.04 57.424C54.424 57.7547 54.8827 58.016 55.416 58.208C55.9493 58.3893 56.456 58.48 56.936 58.48C57.32 58.48 57.624 58.416 57.848 58.288C58.0827 58.1493 58.2 57.9467 58.2 57.68C58.2 57.3813 58.0667 57.1573 57.8 57.008C57.5333 56.8587 57.1013 56.6933 56.504 56.512C55.928 56.3413 55.4587 56.176 55.096 56.016C54.7333 55.8453 54.4187 55.5947 54.152 55.264C53.8853 54.9227 53.752 54.48 53.752 53.936C53.752 53.0933 54.056 52.4533 54.664 52.016C55.2827 51.568 56.056 51.344 56.984 51.344C57.5493 51.344 58.104 51.424 58.648 51.584C59.2027 51.744 59.6933 51.968 60.12 52.256L59.368 53.76ZM65.5828 51.376C66.9481 51.376 67.9721 51.7653 68.6548 52.544C69.3481 53.3227 69.6948 54.416 69.6948 55.824C69.6948 56.1013 69.6894 56.3093 69.6788 56.448H63.3588C63.4974 57.056 63.7801 57.536 64.2068 57.888C64.6441 58.2293 65.1774 58.4 65.8068 58.4C66.2441 58.4 66.6601 58.32 67.0548 58.16C67.4601 57.9893 67.8121 57.7493 68.1108 57.44L69.2308 58.608C68.8041 59.0773 68.2814 59.44 67.6628 59.696C67.0548 59.952 66.3774 60.08 65.6308 60.08C64.7561 60.08 63.9828 59.8987 63.3108 59.536C62.6494 59.1733 62.1374 58.6667 61.7747 58.016C61.4121 57.3547 61.2308 56.5973 61.2308 55.744C61.2308 54.8907 61.4121 54.1333 61.7747 53.472C62.1481 52.8107 62.6654 52.2987 63.3268 51.936C63.9881 51.5627 64.7401 51.376 65.5828 51.376ZM67.7908 55.056C67.7694 54.4267 67.5614 53.9253 67.1668 53.552C66.7721 53.1787 66.2494 52.992 65.5988 52.992C64.9908 52.992 64.4788 53.1787 64.0628 53.552C63.6574 53.9147 63.4068 54.416 63.3108 55.056H67.7908ZM71.5635 48.128H73.6435V60H71.5635V48.128ZM81.3676 60V58.96C81.069 59.3333 80.685 59.616 80.2156 59.808C79.7463 60 79.2076 60.096 78.5996 60.096C78.0023 60.096 77.4743 59.984 77.0156 59.76C76.5676 59.5253 76.221 59.2053 75.9756 58.8C75.7303 58.3947 75.6076 57.9413 75.6076 57.44C75.6076 56.64 75.8903 56.016 76.4556 55.568C77.021 55.1093 77.821 54.8747 78.8556 54.864H81.3516V54.64C81.3516 54.1387 81.1863 53.7493 80.8556 53.472C80.525 53.1947 80.045 53.056 79.4156 53.056C78.605 53.056 77.757 53.3227 76.8716 53.856L76.1196 52.416C76.7916 52.0427 77.3996 51.776 77.9436 51.616C78.4983 51.4453 79.1436 51.36 79.8796 51.36C80.989 51.36 81.8476 51.6267 82.4556 52.16C83.0743 52.6933 83.389 53.44 83.3996 54.4L83.4156 60H81.3676ZM79.0956 58.496C79.693 58.496 80.205 58.3573 80.6316 58.08C81.0583 57.792 81.2983 57.44 81.3516 57.024V56.256H79.1916C78.637 56.256 78.2263 56.3413 77.9596 56.512C77.7036 56.672 77.5756 56.9387 77.5756 57.312C77.5756 57.6747 77.709 57.9627 77.9756 58.176C78.253 58.3893 78.6263 58.496 79.0956 58.496ZM96.9651 51.36C97.9358 51.36 98.6985 51.6587 99.2531 52.256C99.8078 52.8427 100.085 53.6427 100.085 54.656V60H97.9891V55.264C97.9891 54.656 97.8185 54.1813 97.4771 53.84C97.1465 53.488 96.6931 53.312 96.1171 53.312C95.4558 53.3333 94.9278 53.5733 94.5331 54.032C94.1491 54.4907 93.9571 55.072 93.9571 55.776V60H91.8611V55.264C91.8611 54.656 91.6958 54.1813 91.3651 53.84C91.0345 53.488 90.5811 53.312 90.0051 53.312C89.3331 53.3333 88.7998 53.5733 88.4051 54.032C88.0211 54.4907 87.8291 55.072 87.8291 55.776V60H85.7491V51.44H87.8291V53.024C88.3945 51.936 89.3971 51.3813 90.8371 51.36C91.5838 51.36 92.2078 51.5413 92.7091 51.904C93.2211 52.256 93.5785 52.7573 93.7811 53.408C94.3251 52.064 95.3865 51.3813 96.9651 51.36ZM107.461 60V58.96C107.163 59.3333 106.779 59.616 106.309 59.808C105.84 60 105.301 60.096 104.693 60.096C104.096 60.096 103.568 59.984 103.109 59.76C102.661 59.5253 102.315 59.2053 102.069 58.8C101.824 58.3947 101.701 57.9413 101.701 57.44C101.701 56.64 101.984 56.016 102.549 55.568C103.115 55.1093 103.915 54.8747 104.949 54.864H107.445V54.64C107.445 54.1387 107.28 53.7493 106.949 53.472C106.619 53.1947 106.139 53.056 105.509 53.056C104.699 53.056 103.851 53.3227 102.965 53.856L102.213 52.416C102.885 52.0427 103.493 51.776 104.037 51.616C104.592 51.4453 105.237 51.36 105.973 51.36C107.083 51.36 107.941 51.6267 108.549 52.16C109.168 52.6933 109.483 53.44 109.493 54.4L109.509 60H107.461ZM105.189 58.496C105.787 58.496 106.299 58.3573 106.725 58.08C107.152 57.792 107.392 57.44 107.445 57.024V56.256H105.285C104.731 56.256 104.32 56.3413 104.053 56.512C103.797 56.672 103.669 56.9387 103.669 57.312C103.669 57.6747 103.803 57.9627 104.069 58.176C104.347 58.3893 104.72 58.496 105.189 58.496ZM116.995 51.36C117.976 51.36 118.75 51.6587 119.315 52.256C119.88 52.8427 120.163 53.6427 120.163 54.656V60H118.067V55.264C118.067 54.6667 117.896 54.1973 117.555 53.856C117.214 53.504 116.75 53.328 116.163 53.328C115.47 53.3387 114.92 53.5733 114.515 54.032C114.12 54.4907 113.923 55.0773 113.923 55.792V60H111.843V51.44H113.923V53.04C114.51 51.9413 115.534 51.3813 116.995 51.36ZM125.944 61.072C125.678 61.776 125.294 62.304 124.792 62.656C124.302 63.0187 123.715 63.2 123.032 63.2C122.616 63.2 122.238 63.136 121.896 63.008C121.566 62.8907 121.235 62.6987 120.904 62.432L121.8 60.848C122.003 60.9973 122.19 61.104 122.36 61.168C122.531 61.2427 122.712 61.28 122.904 61.28C123.47 61.28 123.886 60.992 124.152 60.416L124.408 59.856L120.872 51.44H123.032L125.464 57.664L127.688 51.44H129.784L125.944 61.072ZM135.805 60V58.96C135.506 59.3333 135.122 59.616 134.653 59.808C134.184 60 133.645 60.096 133.037 60.096C132.44 60.096 131.912 59.984 131.453 59.76C131.005 59.5253 130.658 59.2053 130.413 58.8C130.168 58.3947 130.045 57.9413 130.045 57.44C130.045 56.64 130.328 56.016 130.893 55.568C131.458 55.1093 132.258 54.8747 133.293 54.864H135.789V54.64C135.789 54.1387 135.624 53.7493 135.293 53.472C134.962 53.1947 134.482 53.056 133.853 53.056C133.042 53.056 132.194 53.3227 131.309 53.856L130.557 52.416C131.229 52.0427 131.837 51.776 132.381 51.616C132.936 51.4453 133.581 51.36 134.317 51.36C135.426 51.36 136.285 51.6267 136.893 52.16C137.512 52.6933 137.826 53.44 137.837 54.4L137.853 60H135.805ZM133.533 58.496C134.13 58.496 134.642 58.3573 135.069 58.08C135.496 57.792 135.736 57.44 135.789 57.024V56.256H133.629C133.074 56.256 132.664 56.3413 132.397 56.512C132.141 56.672 132.013 56.9387 132.013 57.312C132.013 57.6747 132.146 57.9627 132.413 58.176C132.69 58.3893 133.064 58.496 133.533 58.496Z" fill="black"/>
</svg>
