<svg width="59" height="59" viewBox="0 0 59 59" fill="none" xmlns="http://www.w3.org/2000/svg">
<rect width="59" height="59" rx="29.5" fill="#F1A00E"/>
<path d="M29.632 27.32C30.912 27.32 32.04 27.536 33.016 27.968C33.992 28.4 34.744 29 35.272 29.768C35.8 30.536 36.064 31.416 36.064 32.408C36.064 33.56 35.784 34.576 35.224 35.456C34.68 36.32 33.896 36.992 32.872 37.472C31.864 37.936 30.688 38.168 29.344 38.168C28.256 38.168 27.12 37.984 25.936 37.616C24.768 37.232 23.736 36.736 22.84 36.128L24.304 33.296C25.008 33.872 25.76 34.32 26.56 34.64C27.36 34.96 28.152 35.12 28.936 35.12C29.88 35.12 30.624 34.904 31.168 34.472C31.712 34.024 31.984 33.424 31.984 32.672C31.984 31.936 31.712 31.376 31.168 30.992C30.64 30.592 29.848 30.392 28.792 30.392C28.2 30.392 27.416 30.408 26.44 30.44C25.48 30.456 24.752 30.488 24.256 30.536V21.2H35.296V24.368H27.76V27.32H29.632Z" fill="white"/>
</svg>
