<svg width="275" height="108" viewBox="0 0 275 108" fill="none" xmlns="http://www.w3.org/2000/svg">
<rect width="275" height="108" rx="10" fill="#EDEDED"/>
<path d="M61.976 34.432H63.848V38.688C63.2613 39.1253 62.568 39.4827 61.768 39.76C60.968 40.0267 60.184 40.16 59.416 40.16C58.3173 40.16 57.3147 39.904 56.408 39.392C55.512 38.88 54.8027 38.1867 54.28 37.312C53.7573 36.4267 53.496 35.4507 53.496 34.384C53.496 33.3173 53.7627 32.352 54.296 31.488C54.8293 30.6133 55.5547 29.9253 56.472 29.424C57.4 28.912 58.424 28.656 59.544 28.656C60.344 28.656 61.1333 28.8 61.912 29.088C62.6907 29.376 63.3627 29.7707 63.928 30.272L62.712 31.856C62.2853 31.4507 61.7893 31.136 61.224 30.912C60.6693 30.688 60.1093 30.576 59.544 30.576C58.84 30.576 58.1893 30.7467 57.592 31.088C57.0053 31.4187 56.5413 31.8773 56.2 32.464C55.8587 33.0507 55.688 33.6907 55.688 34.384C55.688 35.088 55.8587 35.7333 56.2 36.32C56.552 36.9067 57.0213 37.3707 57.608 37.712C58.1947 38.0533 58.8453 38.224 59.56 38.224C59.944 38.224 60.344 38.1653 60.76 38.048C61.1867 37.92 61.592 37.744 61.976 37.52V34.432ZM68.3291 33.088C68.6171 32.5333 69.0065 32.112 69.4971 31.824C69.9985 31.5253 70.5798 31.3707 71.2411 31.36V33.376C70.3558 33.3227 69.6465 33.5307 69.1131 34C68.5905 34.4587 68.3291 35.0827 68.3291 35.872V40H66.2491V31.44H68.3291V33.088ZM77.4614 40V38.96C77.1627 39.3333 76.7787 39.616 76.3094 39.808C75.84 40 75.3014 40.096 74.6934 40.096C74.096 40.096 73.568 39.984 73.1094 39.76C72.6614 39.5253 72.3147 39.2053 72.0694 38.8C71.824 38.3947 71.7014 37.9413 71.7014 37.44C71.7014 36.64 71.984 36.016 72.5494 35.568C73.1147 35.1093 73.9147 34.8747 74.9494 34.864H77.4454V34.64C77.4454 34.1387 77.28 33.7493 76.9494 33.472C76.6187 33.1947 76.1387 33.056 75.5094 33.056C74.6987 33.056 73.8507 33.3227 72.9654 33.856L72.2134 32.416C72.8854 32.0427 73.4934 31.776 74.0374 31.616C74.592 31.4453 75.2374 31.36 75.9734 31.36C77.0827 31.36 77.9414 31.6267 78.5494 32.16C79.168 32.6933 79.4827 33.44 79.4934 34.4L79.5094 40H77.4614ZM75.1894 38.496C75.7867 38.496 76.2987 38.3573 76.7254 38.08C77.152 37.792 77.392 37.44 77.4454 37.024V36.256H75.2854C74.7307 36.256 74.32 36.3413 74.0534 36.512C73.7974 36.672 73.6694 36.9387 73.6694 37.312C73.6694 37.6747 73.8027 37.9627 74.0694 38.176C74.3467 38.3893 74.72 38.496 75.1894 38.496ZM86.8509 39.472C86.1682 39.888 85.4535 40.096 84.7069 40.096C83.9709 40.096 83.3682 39.8827 82.8989 39.456C82.4295 39.0187 82.1949 38.3787 82.1949 37.536V33.312H80.9949L80.9789 31.792H82.1949V29.44H84.2589V31.792H86.7069V33.312H84.2589V37.168C84.2589 37.5627 84.3335 37.8453 84.4829 38.016C84.6322 38.176 84.8562 38.256 85.1549 38.256C85.4749 38.256 85.8802 38.1387 86.3709 37.904L86.8509 39.472ZM88.4835 31.44H90.5635V40H88.4835V31.44ZM89.5075 27.76C89.8488 27.76 90.1315 27.8773 90.3555 28.112C90.5795 28.3467 90.6915 28.6453 90.6915 29.008C90.6915 29.36 90.5795 29.6533 90.3555 29.888C90.1315 30.1227 89.8488 30.24 89.5075 30.24C89.1662 30.24 88.8835 30.1227 88.6595 29.888C88.4355 29.6533 88.3235 29.36 88.3235 29.008C88.3235 28.6453 88.4355 28.3467 88.6595 28.112C88.8835 27.8773 89.1662 27.76 89.5075 27.76ZM98.2118 33.76C97.7958 33.5147 97.3638 33.3227 96.9158 33.184C96.4784 33.0453 96.0731 32.976 95.6998 32.976C95.3478 32.976 95.0651 33.04 94.8518 33.168C94.6491 33.2853 94.5478 33.472 94.5478 33.728C94.5478 33.9947 94.6758 34.2027 94.9318 34.352C95.1984 34.4907 95.6144 34.64 96.1798 34.8C96.7771 34.9813 97.2678 35.1627 97.6518 35.344C98.0358 35.5147 98.3664 35.776 98.6438 36.128C98.9318 36.4693 99.0758 36.9227 99.0758 37.488C99.0758 38.32 98.7558 38.96 98.1158 39.408C97.4758 39.856 96.6704 40.08 95.6998 40.08C95.0384 40.08 94.3931 39.9787 93.7638 39.776C93.1344 39.5627 92.6011 39.264 92.1638 38.88L92.8838 37.424C93.2678 37.7547 93.7264 38.016 94.2598 38.208C94.7931 38.3893 95.2998 38.48 95.7798 38.48C96.1638 38.48 96.4678 38.416 96.6918 38.288C96.9264 38.1493 97.0438 37.9467 97.0438 37.68C97.0438 37.3813 96.9104 37.1573 96.6438 37.008C96.3771 36.8587 95.9451 36.6933 95.3478 36.512C94.7718 36.3413 94.3024 36.176 93.9398 36.016C93.5771 35.8453 93.2624 35.5947 92.9958 35.264C92.7291 34.9227 92.5958 34.48 92.5958 33.936C92.5958 33.0933 92.8998 32.4533 93.5078 32.016C94.1264 31.568 94.8998 31.344 95.8278 31.344C96.3931 31.344 96.9478 31.424 97.4918 31.584C98.0464 31.744 98.5371 31.968 98.9638 32.256L98.2118 33.76ZM109.852 33.76C109.436 33.5147 109.004 33.3227 108.556 33.184C108.119 33.0453 107.714 32.976 107.34 32.976C106.988 32.976 106.706 33.04 106.492 33.168C106.29 33.2853 106.188 33.472 106.188 33.728C106.188 33.9947 106.316 34.2027 106.572 34.352C106.839 34.4907 107.255 34.64 107.82 34.8C108.418 34.9813 108.908 35.1627 109.292 35.344C109.676 35.5147 110.007 35.776 110.284 36.128C110.572 36.4693 110.716 36.9227 110.716 37.488C110.716 38.32 110.396 38.96 109.756 39.408C109.116 39.856 108.311 40.08 107.34 40.08C106.679 40.08 106.034 39.9787 105.404 39.776C104.775 39.5627 104.242 39.264 103.804 38.88L104.524 37.424C104.908 37.7547 105.367 38.016 105.9 38.208C106.434 38.3893 106.94 38.48 107.42 38.48C107.804 38.48 108.108 38.416 108.332 38.288C108.567 38.1493 108.684 37.9467 108.684 37.68C108.684 37.3813 108.551 37.1573 108.284 37.008C108.018 36.8587 107.586 36.6933 106.988 36.512C106.412 36.3413 105.943 36.176 105.58 36.016C105.218 35.8453 104.903 35.5947 104.636 35.264C104.37 34.9227 104.236 34.48 104.236 33.936C104.236 33.0933 104.54 32.4533 105.148 32.016C105.767 31.568 106.54 31.344 107.468 31.344C108.034 31.344 108.588 31.424 109.132 31.584C109.687 31.744 110.178 31.968 110.604 32.256L109.852 33.76ZM120.403 31.44V40H118.307V38.416C117.731 39.5253 116.739 40.08 115.331 40.08C114.371 40.08 113.614 39.7867 113.059 39.2C112.504 38.6133 112.227 37.8133 112.227 36.8V31.44H114.323V36.192C114.323 36.7893 114.483 37.2587 114.803 37.6C115.134 37.9413 115.587 38.112 116.163 38.112C116.824 38.1013 117.347 37.8667 117.731 37.408C118.115 36.9493 118.307 36.368 118.307 35.664V31.44H120.403ZM128.055 40V38.96C127.756 39.3333 127.372 39.616 126.903 39.808C126.434 40 125.895 40.096 125.287 40.096C124.69 40.096 124.162 39.984 123.703 39.76C123.255 39.5253 122.908 39.2053 122.663 38.8C122.418 38.3947 122.295 37.9413 122.295 37.44C122.295 36.64 122.578 36.016 123.143 35.568C123.708 35.1093 124.508 34.8747 125.543 34.864H128.039V34.64C128.039 34.1387 127.874 33.7493 127.543 33.472C127.212 33.1947 126.732 33.056 126.103 33.056C125.292 33.056 124.444 33.3227 123.559 33.856L122.807 32.416C123.479 32.0427 124.087 31.776 124.631 31.616C125.186 31.4453 125.831 31.36 126.567 31.36C127.676 31.36 128.535 31.6267 129.143 32.16C129.762 32.6933 130.076 33.44 130.087 34.4L130.103 40H128.055ZM125.783 38.496C126.38 38.496 126.892 38.3573 127.319 38.08C127.746 37.792 127.986 37.44 128.039 37.024V36.256H125.879C125.324 36.256 124.914 36.3413 124.647 36.512C124.391 36.672 124.263 36.9387 124.263 37.312C124.263 37.6747 124.396 37.9627 124.663 38.176C124.94 38.3893 125.314 38.496 125.783 38.496ZM134.517 33.088C134.805 32.5333 135.194 32.112 135.685 31.824C136.186 31.5253 136.767 31.3707 137.429 31.36V33.376C136.543 33.3227 135.834 33.5307 135.301 34C134.778 34.4587 134.517 35.0827 134.517 35.872V40H132.437V31.44H134.517V33.088ZM143.649 40V38.96C143.35 39.3333 142.966 39.616 142.497 39.808C142.028 40 141.489 40.096 140.881 40.096C140.284 40.096 139.756 39.984 139.297 39.76C138.849 39.5253 138.502 39.2053 138.257 38.8C138.012 38.3947 137.889 37.9413 137.889 37.44C137.889 36.64 138.172 36.016 138.737 35.568C139.302 35.1093 140.102 34.8747 141.137 34.864H143.633V34.64C143.633 34.1387 143.468 33.7493 143.137 33.472C142.806 33.1947 142.326 33.056 141.697 33.056C140.886 33.056 140.038 33.3227 139.153 33.856L138.401 32.416C139.073 32.0427 139.681 31.776 140.225 31.616C140.78 31.4453 141.425 31.36 142.161 31.36C143.27 31.36 144.129 31.6267 144.737 32.16C145.356 32.6933 145.67 33.44 145.681 34.4L145.697 40H143.649ZM141.377 38.496C141.974 38.496 142.486 38.3573 142.913 38.08C143.34 37.792 143.58 37.44 143.633 37.024V36.256H141.473C140.918 36.256 140.508 36.3413 140.241 36.512C139.985 36.672 139.857 36.9387 139.857 37.312C139.857 37.6747 139.99 37.9627 140.257 38.176C140.534 38.3893 140.908 38.496 141.377 38.496ZM150.64 31.456L152.784 31.44L154.88 37.904L156.912 31.44H159.008L161.072 37.904L163.12 31.44H165.216L162.112 40H159.984L157.936 33.968L155.904 40H153.776L150.64 31.456ZM171.258 40V38.96C170.96 39.3333 170.576 39.616 170.106 39.808C169.637 40 169.098 40.096 168.49 40.096C167.893 40.096 167.365 39.984 166.906 39.76C166.458 39.5253 166.112 39.2053 165.866 38.8C165.621 38.3947 165.498 37.9413 165.498 37.44C165.498 36.64 165.781 36.016 166.346 35.568C166.912 35.1093 167.712 34.8747 168.746 34.864H171.242V34.64C171.242 34.1387 171.077 33.7493 170.746 33.472C170.416 33.1947 169.936 33.056 169.306 33.056C168.496 33.056 167.648 33.3227 166.762 33.856L166.01 32.416C166.682 32.0427 167.29 31.776 167.834 31.616C168.389 31.4453 169.034 31.36 169.77 31.36C170.88 31.36 171.738 31.6267 172.346 32.16C172.965 32.6933 173.28 33.44 173.29 34.4L173.306 40H171.258ZM168.986 38.496C169.584 38.496 170.096 38.3573 170.522 38.08C170.949 37.792 171.189 37.44 171.242 37.024V36.256H169.082C168.528 36.256 168.117 36.3413 167.85 36.512C167.594 36.672 167.466 36.9387 167.466 37.312C167.466 37.6747 167.6 37.9627 167.866 38.176C168.144 38.3893 168.517 38.496 168.986 38.496ZM175.72 28.128H177.8V40H175.72V28.128ZM184.036 31.376C185.401 31.376 186.425 31.7653 187.108 32.544C187.801 33.3227 188.148 34.416 188.148 35.824C188.148 36.1013 188.143 36.3093 188.132 36.448H181.812C181.951 37.056 182.233 37.536 182.66 37.888C183.097 38.2293 183.631 38.4 184.26 38.4C184.697 38.4 185.113 38.32 185.508 38.16C185.913 37.9893 186.265 37.7493 186.564 37.44L187.684 38.608C187.257 39.0773 186.735 39.44 186.116 39.696C185.508 39.952 184.831 40.08 184.084 40.08C183.209 40.08 182.436 39.8987 181.764 39.536C181.103 39.1733 180.591 38.6667 180.228 38.016C179.865 37.3547 179.684 36.5973 179.684 35.744C179.684 34.8907 179.865 34.1333 180.228 33.472C180.601 32.8107 181.119 32.2987 181.78 31.936C182.441 31.5627 183.193 31.376 184.036 31.376ZM186.244 35.056C186.223 34.4267 186.015 33.9253 185.62 33.552C185.225 33.1787 184.703 32.992 184.052 32.992C183.444 32.992 182.932 33.1787 182.516 33.552C182.111 33.9147 181.86 34.416 181.764 35.056H186.244ZM194.945 39.472C194.262 39.888 193.547 40.096 192.801 40.096C192.065 40.096 191.462 39.8827 190.993 39.456C190.523 39.0187 190.289 38.3787 190.289 37.536V33.312H189.089L189.073 31.792H190.289V29.44H192.353V31.792H194.801V33.312H192.353V37.168C192.353 37.5627 192.427 37.8453 192.577 38.016C192.726 38.176 192.95 38.256 193.249 38.256C193.569 38.256 193.974 38.1387 194.465 37.904L194.945 39.472ZM59.336 51.376C60.136 51.376 60.84 51.5627 61.448 51.936C62.0667 52.2987 62.5413 52.8107 62.872 53.472C63.2133 54.1333 63.384 54.896 63.384 55.76C63.384 56.6133 63.2187 57.3653 62.888 58.016C62.5573 58.6667 62.088 59.1733 61.48 59.536C60.872 59.8987 60.168 60.08 59.368 60.08C58.728 60.08 58.1627 59.9573 57.672 59.712C57.1813 59.456 56.776 59.088 56.456 58.608V63.104H54.376V51.44H56.456V52.848C56.7653 52.368 57.16 52.0053 57.64 51.76C58.1307 51.504 58.696 51.376 59.336 51.376ZM58.872 58.288C59.576 58.288 60.152 58.048 60.6 57.568C61.048 57.0773 61.272 56.4533 61.272 55.696C61.272 54.9387 61.048 54.32 60.6 53.84C60.152 53.36 59.576 53.12 58.872 53.12C58.1573 53.12 57.576 53.36 57.128 53.84C56.68 54.32 56.456 54.9387 56.456 55.696C56.456 56.464 56.68 57.088 57.128 57.568C57.576 58.048 58.1573 58.288 58.872 58.288ZM70.2426 60V58.96C69.944 59.3333 69.56 59.616 69.0906 59.808C68.6213 60 68.0826 60.096 67.4746 60.096C66.8773 60.096 66.3493 59.984 65.8906 59.76C65.4426 59.5253 65.096 59.2053 64.8506 58.8C64.6053 58.3947 64.4826 57.9413 64.4826 57.44C64.4826 56.64 64.7653 56.016 65.3306 55.568C65.896 55.1093 66.696 54.8747 67.7306 54.864H70.2266V54.64C70.2266 54.1387 70.0613 53.7493 69.7306 53.472C69.4 53.1947 68.92 53.056 68.2906 53.056C67.48 53.056 66.632 53.3227 65.7466 53.856L64.9946 52.416C65.6666 52.0427 66.2746 51.776 66.8186 51.616C67.3733 51.4453 68.0186 51.36 68.7546 51.36C69.864 51.36 70.7226 51.6267 71.3306 52.16C71.9493 52.6933 72.264 53.44 72.2746 54.4L72.2906 60H70.2426ZM67.9706 58.496C68.568 58.496 69.08 58.3573 69.5066 58.08C69.9333 57.792 70.1733 57.44 70.2266 57.024V56.256H68.0666C67.512 56.256 67.1013 56.3413 66.8346 56.512C66.5786 56.672 66.4506 56.9387 66.4506 57.312C66.4506 57.6747 66.584 57.9627 66.8506 58.176C67.128 58.3893 67.5013 58.496 67.9706 58.496ZM79.7761 51.36C80.7575 51.36 81.5308 51.6587 82.0961 52.256C82.6615 52.8427 82.9441 53.6427 82.9441 54.656V60H80.8481V55.264C80.8481 54.6667 80.6775 54.1973 80.3361 53.856C79.9948 53.504 79.5308 53.328 78.9441 53.328C78.2508 53.3387 77.7015 53.5733 77.2961 54.032C76.9015 54.4907 76.7041 55.0773 76.7041 55.792V60H74.6241V51.44H76.7041V53.04C77.2908 51.9413 78.3148 51.3813 79.7761 51.36ZM93.1044 51.44V59.184C93.1044 59.9947 92.9177 60.6987 92.5444 61.296C92.1817 61.904 91.659 62.368 90.9764 62.688C90.3044 63.0187 89.5204 63.184 88.6244 63.184C87.323 63.184 86.1177 62.8053 85.0084 62.048L85.8404 60.544C86.651 61.1413 87.5417 61.44 88.5124 61.44C89.2804 61.44 89.8884 61.2427 90.3364 60.848C90.795 60.4533 91.0244 59.9147 91.0244 59.232V58.224C90.7364 58.6613 90.363 58.9973 89.9044 59.232C89.4457 59.456 88.9124 59.568 88.3044 59.568C87.5577 59.568 86.8964 59.3973 86.3204 59.056C85.7444 58.704 85.2964 58.2187 84.9764 57.6C84.6564 56.9707 84.4964 56.2507 84.4964 55.44C84.4964 54.64 84.6564 53.936 84.9764 53.328C85.2964 52.7093 85.7444 52.2293 86.3204 51.888C86.8964 51.5467 87.5577 51.376 88.3044 51.376C88.9017 51.376 89.4297 51.4933 89.8884 51.728C90.3577 51.9627 90.7364 52.2933 91.0244 52.72V51.44H93.1044ZM88.7524 57.936C89.4244 57.936 89.9684 57.712 90.3844 57.264C90.811 56.8053 91.0244 56.2133 91.0244 55.488C91.0244 54.7627 90.811 54.176 90.3844 53.728C89.9684 53.2693 89.4244 53.04 88.7524 53.04C88.0804 53.04 87.531 53.2693 87.1044 53.728C86.6884 54.1867 86.475 54.7733 86.4644 55.488C86.475 56.2133 86.6884 56.8053 87.1044 57.264C87.531 57.712 88.0804 57.936 88.7524 57.936ZM103.37 51.44V59.184C103.37 59.9947 103.183 60.6987 102.81 61.296C102.447 61.904 101.925 62.368 101.242 62.688C100.57 63.0187 99.786 63.184 98.89 63.184C97.5887 63.184 96.3833 62.8053 95.274 62.048L96.106 60.544C96.9167 61.1413 97.8073 61.44 98.778 61.44C99.546 61.44 100.154 61.2427 100.602 60.848C101.061 60.4533 101.29 59.9147 101.29 59.232V58.224C101.002 58.6613 100.629 58.9973 100.17 59.232C99.7113 59.456 99.178 59.568 98.57 59.568C97.8233 59.568 97.162 59.3973 96.586 59.056C96.01 58.704 95.562 58.2187 95.242 57.6C94.922 56.9707 94.762 56.2507 94.762 55.44C94.762 54.64 94.922 53.936 95.242 53.328C95.562 52.7093 96.01 52.2293 96.586 51.888C97.162 51.5467 97.8233 51.376 98.57 51.376C99.1673 51.376 99.6953 51.4933 100.154 51.728C100.623 51.9627 101.002 52.2933 101.29 52.72V51.44H103.37ZM99.018 57.936C99.69 57.936 100.234 57.712 100.65 57.264C101.077 56.8053 101.29 56.2133 101.29 55.488C101.29 54.7627 101.077 54.176 100.65 53.728C100.234 53.2693 99.69 53.04 99.018 53.04C98.346 53.04 97.7967 53.2693 97.37 53.728C96.954 54.1867 96.7407 54.7733 96.73 55.488C96.7407 56.2133 96.954 56.8053 97.37 57.264C97.7967 57.712 98.346 57.936 99.018 57.936ZM105.812 51.44H107.892V60H105.812V51.44ZM106.836 47.76C107.177 47.76 107.46 47.8773 107.684 48.112C107.908 48.3467 108.02 48.6453 108.02 49.008C108.02 49.36 107.908 49.6533 107.684 49.888C107.46 50.1227 107.177 50.24 106.836 50.24C106.494 50.24 106.212 50.1227 105.988 49.888C105.764 49.6533 105.652 49.36 105.652 49.008C105.652 48.6453 105.764 48.3467 105.988 48.112C106.212 47.8773 106.494 47.76 106.836 47.76ZM110.548 48.128H112.628V60H110.548V48.128ZM115.792 57.872C116.091 57.872 116.341 57.9733 116.544 58.176C116.757 58.3787 116.864 58.6507 116.864 58.992C116.864 59.152 116.837 59.296 116.784 59.424C116.741 59.552 116.672 59.7067 116.576 59.888L115.568 61.824H114.528L115.2 59.92C114.88 59.7067 114.72 59.3973 114.72 58.992C114.72 58.6613 114.821 58.3947 115.024 58.192C115.227 57.9787 115.483 57.872 115.792 57.872ZM127.757 59.472C127.074 59.888 126.36 60.096 125.613 60.096C124.877 60.096 124.274 59.8827 123.805 59.456C123.336 59.0187 123.101 58.3787 123.101 57.536V53.312H121.901L121.885 51.792H123.101V49.44H125.165V51.792H127.613V53.312H125.165V57.168C125.165 57.5627 125.24 57.8453 125.389 58.016C125.538 58.176 125.762 58.256 126.061 58.256C126.381 58.256 126.786 58.1387 127.277 57.904L127.757 59.472ZM134.446 60V58.96C134.147 59.3333 133.763 59.616 133.294 59.808C132.824 60 132.286 60.096 131.678 60.096C131.08 60.096 130.552 59.984 130.094 59.76C129.646 59.5253 129.299 59.2053 129.054 58.8C128.808 58.3947 128.686 57.9413 128.686 57.44C128.686 56.64 128.968 56.016 129.534 55.568C130.099 55.1093 130.899 54.8747 131.934 54.864H134.43V54.64C134.43 54.1387 134.264 53.7493 133.934 53.472C133.603 53.1947 133.123 53.056 132.494 53.056C131.683 53.056 130.835 53.3227 129.95 53.856L129.198 52.416C129.87 52.0427 130.478 51.776 131.022 51.616C131.576 51.4453 132.222 51.36 132.958 51.36C134.067 51.36 134.926 51.6267 135.534 52.16C136.152 52.6933 136.467 53.44 136.478 54.4L136.494 60H134.446ZM132.174 58.496C132.771 58.496 133.283 58.3573 133.71 58.08C134.136 57.792 134.376 57.44 134.43 57.024V56.256H132.27C131.715 56.256 131.304 56.3413 131.038 56.512C130.782 56.672 130.654 56.9387 130.654 57.312C130.654 57.6747 130.787 57.9627 131.054 58.176C131.331 58.3893 131.704 58.496 132.174 58.496ZM140.907 53.088C141.195 52.5333 141.585 52.112 142.075 51.824C142.577 51.5253 143.158 51.3707 143.819 51.36V53.376C142.934 53.3227 142.225 53.5307 141.691 54C141.169 54.4587 140.907 55.0827 140.907 55.872V60H138.827V51.44H140.907V53.088ZM145.28 51.44H147.36V60H145.28V51.44ZM146.304 47.76C146.646 47.76 146.928 47.8773 147.152 48.112C147.376 48.3467 147.488 48.6453 147.488 49.008C147.488 49.36 147.376 49.6533 147.152 49.888C146.928 50.1227 146.646 50.24 146.304 50.24C145.963 50.24 145.68 50.1227 145.456 49.888C145.232 49.6533 145.12 49.36 145.12 49.008C145.12 48.6453 145.232 48.3467 145.456 48.112C145.68 47.8773 145.963 47.76 146.304 47.76ZM155.729 60L153.409 56.256L152.097 57.632V60H150.017V48.128H152.097V55.008L155.617 51.456H158.017L154.849 54.752L158.209 60H155.729ZM160.12 57.872C160.419 57.872 160.669 57.9733 160.872 58.176C161.085 58.3787 161.192 58.6507 161.192 58.992C161.192 59.152 161.165 59.296 161.112 59.424C161.069 59.552 161 59.7067 160.904 59.888L159.896 61.824H158.856L159.528 59.92C159.208 59.7067 159.048 59.3973 159.048 58.992C159.048 58.6613 159.149 58.3947 159.352 58.192C159.555 57.9787 159.811 57.872 160.12 57.872ZM175.333 48.128V60H173.253V58.624C172.944 59.104 172.544 59.472 172.053 59.728C171.573 59.9733 171.013 60.096 170.373 60.096C169.563 60.096 168.848 59.9147 168.229 59.552C167.621 59.1787 167.147 58.6613 166.805 58C166.464 57.328 166.293 56.56 166.293 55.696C166.293 54.8427 166.459 54.0907 166.789 53.44C167.131 52.7787 167.605 52.2667 168.213 51.904C168.832 51.5413 169.536 51.36 170.325 51.36C170.976 51.36 171.547 51.488 172.037 51.744C172.528 52 172.933 52.368 173.253 52.848V48.128H175.333ZM170.821 58.352C171.536 58.352 172.117 58.112 172.565 57.632C173.024 57.1413 173.253 56.512 173.253 55.744C173.253 54.976 173.024 54.352 172.565 53.872C172.117 53.3813 171.536 53.136 170.821 53.136C170.107 53.136 169.525 53.3813 169.077 53.872C168.629 54.352 168.4 54.976 168.389 55.744C168.4 56.512 168.629 57.1413 169.077 57.632C169.525 58.112 170.107 58.352 170.821 58.352ZM183.055 60V58.96C182.756 59.3333 182.372 59.616 181.903 59.808C181.434 60 180.895 60.096 180.287 60.096C179.69 60.096 179.162 59.984 178.703 59.76C178.255 59.5253 177.908 59.2053 177.663 58.8C177.418 58.3947 177.295 57.9413 177.295 57.44C177.295 56.64 177.578 56.016 178.143 55.568C178.708 55.1093 179.508 54.8747 180.543 54.864H183.039V54.64C183.039 54.1387 182.874 53.7493 182.543 53.472C182.212 53.1947 181.732 53.056 181.103 53.056C180.292 53.056 179.444 53.3227 178.559 53.856L177.807 52.416C178.479 52.0427 179.087 51.776 179.631 51.616C180.186 51.4453 180.831 51.36 181.567 51.36C182.676 51.36 183.535 51.6267 184.143 52.16C184.762 52.6933 185.076 53.44 185.087 54.4L185.103 60H183.055ZM180.783 58.496C181.38 58.496 181.892 58.3573 182.319 58.08C182.746 57.792 182.986 57.44 183.039 57.024V56.256H180.879C180.324 56.256 179.914 56.3413 179.647 56.512C179.391 56.672 179.263 56.9387 179.263 57.312C179.263 57.6747 179.396 57.9627 179.663 58.176C179.94 58.3893 180.314 58.496 180.783 58.496ZM192.589 51.36C193.57 51.36 194.343 51.6587 194.909 52.256C195.474 52.8427 195.757 53.6427 195.757 54.656V60H193.661V55.264C193.661 54.6667 193.49 54.1973 193.149 53.856C192.807 53.504 192.343 53.328 191.757 53.328C191.063 53.3387 190.514 53.5733 190.109 54.032C189.714 54.4907 189.517 55.0773 189.517 55.792V60H187.437V51.44H189.517V53.04C190.103 51.9413 191.127 51.3813 192.589 51.36ZM54.296 71.44H56.376V80H54.296V71.44ZM55.32 67.76C55.6613 67.76 55.944 67.8773 56.168 68.112C56.392 68.3467 56.504 68.6453 56.504 69.008C56.504 69.36 56.392 69.6533 56.168 69.888C55.944 70.1227 55.6613 70.24 55.32 70.24C54.9787 70.24 54.696 70.1227 54.472 69.888C54.248 69.6533 54.136 69.36 54.136 69.008C54.136 68.6453 54.248 68.3467 54.472 68.112C54.696 67.8773 54.9787 67.76 55.32 67.76ZM64.1043 71.36C65.0856 71.36 65.8589 71.6587 66.4243 72.256C66.9896 72.8427 67.2723 73.6427 67.2723 74.656V80H65.1763V75.264C65.1763 74.6667 65.0056 74.1973 64.6643 73.856C64.3229 73.504 63.8589 73.328 63.2723 73.328C62.5789 73.3387 62.0296 73.5733 61.6243 74.032C61.2296 74.4907 61.0323 75.0773 61.0323 75.792V80H58.9523V71.44H61.0323V73.04C61.6189 71.9413 62.6429 71.3813 64.1043 71.36ZM74.6645 80V78.96C74.3658 79.3333 73.9818 79.616 73.5125 79.808C73.0432 80 72.5045 80.096 71.8965 80.096C71.2992 80.096 70.7712 79.984 70.3125 79.76C69.8645 79.5253 69.5178 79.2053 69.2725 78.8C69.0272 78.3947 68.9045 77.9413 68.9045 77.44C68.9045 76.64 69.1872 76.016 69.7525 75.568C70.3178 75.1093 71.1178 74.8747 72.1525 74.864H74.6485V74.64C74.6485 74.1387 74.4832 73.7493 74.1525 73.472C73.8218 73.1947 73.3418 73.056 72.7125 73.056C71.9018 73.056 71.0538 73.3227 70.1685 73.856L69.4165 72.416C70.0885 72.0427 70.6965 71.776 71.2405 71.616C71.7952 71.4453 72.4405 71.36 73.1765 71.36C74.2858 71.36 75.1445 71.6267 75.7525 72.16C76.3712 72.6933 76.6858 73.44 76.6965 74.4L76.7125 80H74.6645ZM72.3925 78.496C72.9898 78.496 73.5018 78.3573 73.9285 78.08C74.3552 77.792 74.5952 77.44 74.6485 77.024V76.256H72.4885C71.9338 76.256 71.5232 76.3413 71.2565 76.512C71.0005 76.672 70.8725 76.9387 70.8725 77.312C70.8725 77.6747 71.0058 77.9627 71.2725 78.176C71.5498 78.3893 71.9232 78.496 72.3925 78.496ZM84.086 71.376C84.886 71.376 85.59 71.5627 86.198 71.936C86.8167 72.2987 87.2913 72.8107 87.622 73.472C87.9633 74.1333 88.134 74.896 88.134 75.76C88.134 76.6133 87.9687 77.3653 87.638 78.016C87.3073 78.6667 86.838 79.1733 86.23 79.536C85.622 79.8987 84.918 80.08 84.118 80.08C83.478 80.08 82.9127 79.9573 82.422 79.712C81.9313 79.456 81.526 79.088 81.206 78.608V83.104H79.126V71.44H81.206V72.848C81.5153 72.368 81.91 72.0053 82.39 71.76C82.8807 71.504 83.446 71.376 84.086 71.376ZM83.622 78.288C84.326 78.288 84.902 78.048 85.35 77.568C85.798 77.0773 86.022 76.4533 86.022 75.696C86.022 74.9387 85.798 74.32 85.35 73.84C84.902 73.36 84.326 73.12 83.622 73.12C82.9073 73.12 82.326 73.36 81.878 73.84C81.43 74.32 81.206 74.9387 81.206 75.696C81.206 76.464 81.43 77.088 81.878 77.568C82.326 78.048 82.9073 78.288 83.622 78.288Z" fill="black"/>
</svg>
