<svg width="295" height="149" viewBox="0 0 295 149" fill="none" xmlns="http://www.w3.org/2000/svg">
<g filter="url(#filter0_d_17_134)">
<rect x="10" y="6" width="275" height="129" rx="10" fill="#F19E0E" shape-rendering="crispEdges"/>
<path d="M75.3705 62.2C77.5145 62.2 79.1705 62.712 80.3385 63.736C81.5065 64.744 82.0905 66.176 82.0905 68.032C82.0905 69.984 81.4985 71.504 80.3145 72.592C79.1465 73.664 77.4985 74.2 75.3705 74.2H72.0345V79H68.2425V62.2H75.3705ZM75.1785 71.032C76.2505 71.032 77.0665 70.792 77.6265 70.312C78.2025 69.816 78.4905 69.096 78.4905 68.152C78.4905 67.224 78.2025 66.528 77.6265 66.064C77.0665 65.584 76.2505 65.344 75.1785 65.344H72.0345V71.032H75.1785ZM88.1322 68.416C88.5802 67.616 89.1642 67.008 89.8842 66.592C90.6042 66.176 91.4442 65.96 92.4042 65.944V69.424C92.2762 69.408 92.0842 69.4 91.8282 69.4C90.6922 69.4 89.7882 69.712 89.1162 70.336C88.4602 70.944 88.1322 71.76 88.1322 72.784V79H84.4362V66.088H88.1322V68.416ZM100.253 65.968C101.613 65.968 102.813 66.24 103.853 66.784C104.909 67.328 105.725 68.096 106.301 69.088C106.877 70.08 107.165 71.232 107.165 72.544C107.165 73.84 106.877 74.992 106.301 76C105.725 76.992 104.909 77.768 103.853 78.328C102.813 78.872 101.613 79.144 100.253 79.144C98.8765 79.144 97.6605 78.872 96.6045 78.328C95.5645 77.768 94.7565 76.992 94.1805 76C93.6045 74.992 93.3165 73.84 93.3165 72.544C93.3165 71.232 93.6045 70.08 94.1805 69.088C94.7565 68.096 95.5645 67.328 96.6045 66.784C97.6605 66.24 98.8765 65.968 100.253 65.968ZM100.253 69.04C99.2925 69.04 98.5085 69.368 97.9005 70.024C97.3085 70.68 97.0125 71.536 97.0125 72.592C97.0125 73.648 97.3085 74.504 97.9005 75.16C98.5085 75.816 99.2925 76.144 100.253 76.144C101.197 76.144 101.965 75.816 102.557 75.16C103.165 74.504 103.469 73.648 103.469 72.592C103.469 71.536 103.165 70.68 102.557 70.024C101.965 69.368 101.197 69.04 100.253 69.04ZM121.704 66.088V77.8C121.704 79.016 121.416 80.072 120.84 80.968C120.264 81.88 119.456 82.576 118.416 83.056C117.376 83.552 116.176 83.8 114.816 83.8C113.76 83.8 112.752 83.648 111.792 83.344C110.848 83.04 109.984 82.624 109.2 82.096L110.568 79.504C111.784 80.368 113.12 80.8 114.576 80.8C115.632 80.8 116.472 80.536 117.096 80.008C117.72 79.496 118.032 78.8 118.032 77.92V76.456C117.6 77.064 117.056 77.528 116.4 77.848C115.744 78.168 114.992 78.328 114.144 78.328C113.04 78.328 112.056 78.072 111.192 77.56C110.344 77.032 109.68 76.296 109.2 75.352C108.736 74.408 108.504 73.32 108.504 72.088C108.504 70.872 108.736 69.808 109.2 68.896C109.68 67.968 110.344 67.248 111.192 66.736C112.056 66.224 113.04 65.968 114.144 65.968C114.976 65.968 115.72 66.136 116.376 66.472C117.032 66.792 117.584 67.248 118.032 67.84V66.088H121.704ZM115.008 75.52C115.904 75.52 116.632 75.216 117.192 74.608C117.752 73.984 118.032 73.176 118.032 72.184C118.032 71.192 117.752 70.384 117.192 69.76C116.632 69.136 115.904 68.824 115.008 68.824C114.112 68.824 113.384 69.136 112.824 69.76C112.264 70.384 111.976 71.192 111.96 72.184C111.976 73.176 112.256 73.984 112.8 74.608C113.36 75.216 114.096 75.52 115.008 75.52ZM128.773 68.416C129.221 67.616 129.805 67.008 130.525 66.592C131.245 66.176 132.085 65.96 133.045 65.944V69.424C132.917 69.408 132.725 69.4 132.469 69.4C131.333 69.4 130.429 69.712 129.757 70.336C129.101 70.944 128.773 71.76 128.773 72.784V79H125.077V66.088H128.773V68.416ZM142.151 79V77.488C141.719 78.032 141.159 78.448 140.471 78.736C139.783 79.024 138.991 79.168 138.095 79.168C136.735 79.168 135.655 78.8 134.855 78.064C134.055 77.312 133.655 76.336 133.655 75.136C133.655 73.92 134.079 72.976 134.927 72.304C135.791 71.616 137.007 71.264 138.575 71.248H142.127V71.008C142.127 70.32 141.895 69.792 141.431 69.424C140.983 69.04 140.319 68.848 139.439 68.848C138.239 68.848 136.959 69.224 135.599 69.976L134.447 67.432C135.471 66.92 136.431 66.544 137.327 66.304C138.223 66.064 139.207 65.944 140.279 65.944C142.007 65.944 143.343 66.352 144.287 67.168C145.247 67.984 145.735 69.12 145.751 70.576L145.775 79H142.151ZM139.127 76.528C139.895 76.528 140.559 76.344 141.119 75.976C141.679 75.608 142.015 75.144 142.127 74.584V73.432H139.223C138.503 73.432 137.967 73.552 137.615 73.792C137.279 74.016 137.111 74.384 137.111 74.896C137.111 75.392 137.287 75.792 137.639 76.096C138.007 76.384 138.503 76.528 139.127 76.528ZM166.048 65.944C167.472 65.944 168.6 66.392 169.432 67.288C170.28 68.168 170.704 69.368 170.704 70.888V79H167.032V71.968C167.032 71.136 166.808 70.488 166.36 70.024C165.912 69.56 165.304 69.328 164.536 69.328C163.656 69.344 162.96 69.656 162.448 70.264C161.936 70.872 161.68 71.656 161.68 72.616V79H158.008V71.968C158.008 71.152 157.784 70.512 157.336 70.048C156.904 69.568 156.304 69.328 155.536 69.328C154.656 69.344 153.952 69.656 153.424 70.264C152.912 70.872 152.656 71.656 152.656 72.616V79H148.96V66.088H152.656V68.32C153.552 66.768 155.008 65.976 157.024 65.944C158.112 65.944 159.032 66.208 159.784 66.736C160.536 67.248 161.072 67.976 161.392 68.92C161.808 67.944 162.408 67.208 163.192 66.712C163.992 66.216 164.944 65.96 166.048 65.944ZM179.594 62.2H183.386V75.688H190.586V79H179.594V62.2ZM200.252 79V77.488C199.82 78.032 199.26 78.448 198.572 78.736C197.884 79.024 197.092 79.168 196.196 79.168C194.836 79.168 193.756 78.8 192.956 78.064C192.156 77.312 191.756 76.336 191.756 75.136C191.756 73.92 192.18 72.976 193.028 72.304C193.892 71.616 195.108 71.264 196.676 71.248H200.228V71.008C200.228 70.32 199.996 69.792 199.532 69.424C199.084 69.04 198.42 68.848 197.54 68.848C196.34 68.848 195.06 69.224 193.7 69.976L192.548 67.432C193.572 66.92 194.532 66.544 195.428 66.304C196.324 66.064 197.308 65.944 198.38 65.944C200.108 65.944 201.444 66.352 202.388 67.168C203.348 67.984 203.836 69.12 203.852 70.576L203.876 79H200.252ZM197.228 76.528C197.996 76.528 198.66 76.344 199.22 75.976C199.78 75.608 200.116 75.144 200.228 74.584V73.432H197.324C196.604 73.432 196.068 73.552 195.716 73.792C195.38 74.016 195.212 74.384 195.212 74.896C195.212 75.392 195.388 75.792 195.74 76.096C196.108 76.384 196.604 76.528 197.228 76.528ZM207.061 66.088H210.757V79H207.061V66.088ZM208.885 60.352C209.477 60.352 209.957 60.544 210.325 60.928C210.709 61.312 210.901 61.808 210.901 62.416C210.901 63.024 210.709 63.52 210.325 63.904C209.957 64.288 209.477 64.48 208.885 64.48C208.309 64.48 207.829 64.288 207.445 63.904C207.077 63.504 206.893 63.008 206.893 62.416C206.893 61.808 207.077 61.312 207.445 60.928C207.829 60.544 208.309 60.352 208.885 60.352ZM222.463 65.944C223.903 65.944 225.047 66.392 225.895 67.288C226.759 68.184 227.191 69.384 227.191 70.888V79H223.495V71.968C223.495 71.152 223.263 70.512 222.799 70.048C222.351 69.568 221.735 69.328 220.951 69.328C220.039 69.344 219.319 69.664 218.791 70.288C218.263 70.896 217.999 71.68 217.999 72.64V79H214.303V66.088H217.999V68.344C218.895 66.776 220.383 65.976 222.463 65.944Z" fill="white"/>
</g>
<defs>
<filter id="filter0_d_17_134" x="0" y="0" width="295" height="149" filterUnits="userSpaceOnUse" color-interpolation-filters="sRGB">
<feFlood flood-opacity="0" result="BackgroundImageFix"/>
<feColorMatrix in="SourceAlpha" type="matrix" values="0 0 0 0 0 0 0 0 0 0 0 0 0 0 0 0 0 0 127 0" result="hardAlpha"/>
<feOffset dy="4"/>
<feGaussianBlur stdDeviation="5"/>
<feComposite in2="hardAlpha" operator="out"/>
<feColorMatrix type="matrix" values="0 0 0 0 0 0 0 0 0 0 0 0 0 0 0 0 0 0 0.4 0"/>
<feBlend mode="normal" in2="BackgroundImageFix" result="effect1_dropShadow_17_134"/>
<feBlend mode="normal" in="SourceGraphic" in2="effect1_dropShadow_17_134" result="shape"/>
</filter>
</defs>
</svg>
