<svg width="59" height="59" viewBox="0 0 59 59" fill="none" xmlns="http://www.w3.org/2000/svg">
<rect width="59" height="59" rx="29.5" fill="#F1A00E"/>
<path d="M35.536 34.832V38H22.912V35.384L29.128 28.976C29.688 28.416 30.128 27.872 30.448 27.344C30.784 26.8 30.952 26.328 30.952 25.928C30.952 25.4 30.744 24.992 30.328 24.704C29.928 24.4 29.368 24.248 28.648 24.248C27.928 24.248 27.16 24.432 26.344 24.8C25.528 25.168 24.736 25.68 23.968 26.336L22.48 23.504C24.688 21.856 26.928 21.032 29.2 21.032C30.32 21.032 31.312 21.216 32.176 21.584C33.04 21.936 33.712 22.44 34.192 23.096C34.672 23.736 34.912 24.488 34.912 25.352C34.912 26.2 34.632 27.08 34.072 27.992C33.512 28.904 32.72 29.888 31.696 30.944L27.832 34.832H35.536Z" fill="white"/>
</svg>
