<svg width="802" height="42" viewBox="0 0 802 42" fill="none" xmlns="http://www.w3.org/2000/svg">
<g clip-path="url(#clip0_7_224)">
<path d="M305.38 0C301.278 0 297.269 1.23163 293.858 3.53914C290.448 5.84665 287.79 9.1264 286.22 12.9636C284.651 16.8009 284.24 21.0233 285.04 25.0969C285.84 29.1705 287.815 32.9123 290.716 35.8492C293.616 38.7861 297.311 40.7862 301.334 41.5965C305.357 42.4068 309.527 41.9909 313.316 40.4015C317.106 38.812 320.345 36.1204 322.623 32.667C324.902 29.2135 326.118 25.1534 326.118 21C326.118 15.4305 323.934 10.089 320.044 6.15076C316.155 2.21249 310.88 0 305.38 0ZM305.38 35.3188C302.583 35.3217 299.847 34.4844 297.52 32.9127C295.193 31.3411 293.378 29.1058 292.306 26.4896C291.233 23.8735 290.951 20.994 291.495 18.2154C292.039 15.4369 293.385 12.8842 295.362 10.8802C297.339 8.87621 299.858 7.51103 302.602 6.95736C305.345 6.40369 308.189 6.6864 310.774 7.76974C313.358 8.85307 315.568 10.6883 317.122 13.0434C318.676 15.3984 319.506 18.1674 319.506 21C319.502 24.7939 318.013 28.4315 315.365 31.1156C312.717 33.7997 309.127 35.3112 305.38 35.3188Z" fill="#F19E0E"/>
<path d="M135.165 16.5217C135.168 13.3394 134.238 10.2278 132.494 7.58036C130.75 4.93297 128.27 2.86881 125.368 1.64901C122.465 0.429199 119.27 0.108556 116.188 0.727637C113.105 1.34672 110.273 2.87771 108.05 5.12693C105.826 7.37615 104.312 10.2425 103.698 13.3635C103.084 16.4845 103.397 19.7198 104.599 22.6601C105.801 25.6005 107.838 28.1138 110.451 29.8821C113.063 31.6504 116.135 32.5942 119.278 32.5942C123.489 32.5942 127.528 30.9013 130.507 27.8876C133.485 24.8738 135.161 20.7858 135.165 16.5217ZM107.342 16.5217C107.339 14.1357 108.035 11.8024 109.343 9.81724C110.65 7.8321 112.51 6.28436 114.686 5.36992C116.862 4.45549 119.258 4.21548 121.569 4.68027C123.88 5.14507 126.003 6.29378 127.67 7.98099C129.336 9.6682 130.47 11.8181 130.929 14.1584C131.388 16.4988 131.151 18.9244 130.248 21.1283C129.345 23.3322 127.817 25.2153 125.856 26.5391C123.896 27.863 121.592 28.5681 119.235 28.5652C116.082 28.5614 113.059 27.2913 110.829 25.0335C108.6 22.7758 107.346 19.7147 107.342 16.5217Z" fill="#F19E0E"/>
<path d="M130.327 25.4928C130.327 22.3121 129.395 19.2029 127.649 16.5589C125.903 13.9148 123.422 11.8548 120.519 10.6396C117.616 9.42443 114.423 9.10869 111.343 9.73238C108.262 10.3561 105.434 11.8911 103.216 14.1433C100.998 16.3954 99.49 19.2633 98.8824 22.3839C98.2748 25.5045 98.5953 28.7375 99.8032 31.6736C101.011 34.6097 103.052 37.1169 105.668 38.8777C108.284 40.6385 111.357 41.5738 114.498 41.5652C118.7 41.5537 122.726 39.8553 125.693 36.8424C128.661 33.8294 130.327 29.7479 130.327 25.4928ZM102.561 25.4928C102.561 23.1126 103.258 20.7859 104.563 18.8063C105.868 16.8267 107.723 15.2831 109.894 14.3703C112.064 13.4575 114.454 13.2164 116.759 13.6776C119.065 14.1388 121.185 15.2815 122.85 16.9615C124.515 18.6414 125.651 20.7833 126.115 23.1167C126.578 25.45 126.349 27.8702 125.455 30.0716C124.562 32.273 123.044 34.1569 121.094 35.4854C119.144 36.814 116.848 37.5276 114.498 37.5362C112.933 37.54 111.383 37.2315 109.935 36.6281C108.488 36.0247 107.173 35.1385 106.064 34.0199C104.956 32.9014 104.076 31.5726 103.475 30.1094C102.874 28.6462 102.563 27.0775 102.561 25.4928Z" fill="#F19E0E"/>
<path d="M125.475 16.7536C125.478 13.5713 124.549 10.4596 122.805 7.81224C121.061 5.16484 118.581 3.10068 115.678 1.88088C112.776 0.661072 109.581 0.340428 106.498 0.959509C103.416 1.57859 100.583 3.10958 98.3603 5.3588C96.1371 7.60803 94.6226 10.4744 94.0085 13.5954C93.3943 16.7163 93.7081 19.9516 94.9101 22.892C96.1121 25.8323 98.1483 28.3456 100.761 30.1139C103.374 31.8822 106.446 32.8261 109.589 32.8261C113.8 32.8261 117.838 31.1332 120.817 28.1194C123.796 25.1057 125.471 21.0176 125.475 16.7536ZM97.6953 16.7536C97.6924 14.3675 98.3888 12.0343 99.6961 10.0491C101.003 8.06397 102.863 6.51623 105.04 5.60179C107.216 4.68736 109.611 4.44735 111.923 4.91215C114.234 5.37694 116.357 6.52565 118.023 8.21286C119.689 9.90007 120.824 12.0499 121.283 14.3903C121.742 16.7307 121.505 19.1563 120.602 21.3602C119.699 23.5641 118.17 25.4472 116.21 26.771C114.249 28.0948 111.945 28.8 109.589 28.7971C106.434 28.7971 103.409 27.5282 101.179 25.2696C98.9483 23.011 97.6953 19.9477 97.6953 16.7536Z" fill="#F19E0E"/>
<path d="M687.259 38.087C691.174 38.0919 694.998 36.8989 698.232 34.6642C701.465 32.4296 703.956 29.2578 705.378 25.5645C706.8 21.8713 707.087 17.8291 706.201 13.968C705.314 10.1069 703.297 6.60713 700.412 3.92754C700.131 6.25875 699.247 8.47354 697.85 10.3478C696.618 12.0135 695.019 13.3645 693.18 14.293C691.342 15.2215 689.314 15.7019 687.259 15.6957C685.208 15.7007 683.185 15.2197 681.351 14.2911C679.517 13.3625 677.923 12.012 676.697 10.3478C675.277 8.48367 674.382 6.26514 674.106 3.92754C671.223 6.60546 669.206 10.1026 668.319 13.961C667.432 17.8193 667.716 21.8591 669.135 25.551C670.553 29.243 673.04 32.4151 676.268 34.652C679.497 36.8888 683.318 38.0861 687.23 38.087H687.259ZM687.259 21.971C692.131 21.9746 696.826 20.1225 700.412 16.7826C700.469 17.3217 700.498 17.8636 700.498 18.4058C700.556 20.2024 700.257 21.9925 699.618 23.6697C698.98 25.3469 698.014 26.8769 696.78 28.1687C695.546 29.4605 694.067 30.4877 692.433 31.1893C690.798 31.8908 689.041 32.2523 687.266 32.2523C685.491 32.2523 683.734 31.8908 682.099 31.1893C680.465 30.4877 678.987 29.4605 677.752 28.1687C676.518 26.8769 675.553 25.3469 674.914 23.6697C674.275 21.9925 673.976 20.2024 674.034 18.4058C674.032 17.8631 674.065 17.3208 674.135 16.7826C677.708 20.1244 682.395 21.9773 687.259 21.971Z" fill="#F19E0E"/>
<path d="M9.67508 30.7246C9.90407 17.6812 20.2089 6.91305 32.6748 6.66667C32.4315 19.7101 22.141 30.4783 9.67508 30.7246Z" fill="#4C9C79"/>
<path d="M0 29.8696L0.243308 29.6087C1.06777 28.7354 2.05846 28.0403 3.15556 27.5654C4.25266 27.0905 5.43342 26.8456 6.62656 26.8456C7.8197 26.8456 9.00046 27.0905 10.0976 27.5654C11.1947 28.0403 12.1854 28.7354 13.0098 29.6087L12.7665 29.8696C11.942 30.7429 10.9514 31.438 9.85426 31.9129C8.75715 32.3878 7.57639 32.6326 6.38325 32.6326C5.19012 32.6326 4.00935 32.3878 2.91225 31.9129C1.81515 31.438 0.82446 30.7429 0 29.8696Z" fill="#4C9C79"/>
<path d="M10.4909 40.8406C8.79614 39.0424 7.85059 36.6523 7.85059 34.1667C7.85059 31.681 8.79614 29.2909 10.4909 27.4928L10.7342 27.2319C12.4354 29.0266 13.3854 31.418 13.3854 33.9058C13.3854 36.3936 12.4354 38.785 10.7342 40.5797L10.4909 40.8406Z" fill="#4C9C79"/>
<path d="M0.772858 5.7971L0.973229 5.5942C2.30039 4.18545 3.89603 3.06404 5.66359 2.29784C7.43115 1.53164 9.33386 1.13658 11.2566 1.13658C13.1793 1.13658 15.082 1.53164 16.8495 2.29784C18.6171 3.06404 20.2127 4.18545 21.5399 5.5942L26.907 11.2464L26.7066 11.4493C25.3795 12.858 23.7838 13.9794 22.0163 14.7456C20.2487 15.5118 18.346 15.9069 16.4233 15.9069C14.5006 15.9069 12.5979 15.5118 10.8303 14.7456C9.06275 13.9794 7.4671 12.858 6.13994 11.4493L0.772858 5.7971Z" fill="#4C9C79"/>
<path d="M33.4763 40.029L28.0949 34.4058C25.3586 31.5114 23.8311 27.6591 23.8311 23.6522C23.8311 19.6453 25.3586 15.793 28.0949 12.8985L28.2953 12.6956L33.6767 18.3188C36.413 21.2133 37.9404 25.0655 37.9404 29.0725C37.9404 33.0794 36.413 36.9317 33.6767 39.8261L33.4763 40.029Z" fill="#4C9C79"/>
<path d="M496.329 0.593231C500.203 4.53159 502.375 9.86506 502.369 15.4232C502.363 20.9814 500.18 26.3103 496.299 30.2405C492.426 26.3021 490.254 20.9687 490.259 15.4105C490.265 9.85234 492.448 4.52345 496.329 0.593231Z" fill="#4C9C79"/>
<path d="M517.044 20.4203C517.044 25.986 514.86 31.3238 510.974 35.2593C507.087 39.1949 501.816 41.4058 496.319 41.4058C496.319 35.8401 498.503 30.5023 502.389 26.5668C506.276 22.6312 511.547 20.4203 517.044 20.4203Z" fill="#4C9C79"/>
<path d="M496.319 41.4203C490.823 41.4203 485.552 39.2093 481.665 35.2738C477.779 31.3382 475.595 26.0005 475.595 20.4348C478.317 20.4348 481.012 20.9776 483.526 22.0322C486.04 23.0868 488.325 24.6326 490.249 26.5813C492.174 28.53 493.7 30.8434 494.742 33.3895C495.783 35.9356 496.319 38.6644 496.319 41.4203Z" fill="#4C9C79"/>
<path d="M763.471 1.44928C766.005 1.44927 768.513 1.95528 770.854 2.93833C773.194 3.92138 775.319 5.36216 777.109 7.17818C778.898 8.99421 780.316 11.1498 781.282 13.5216C782.247 15.8933 782.741 18.4346 782.736 21C780.202 21 777.694 20.494 775.354 19.511C773.014 18.5279 770.888 17.0871 769.099 15.2711C767.309 13.4551 765.891 11.2995 764.926 8.92773C763.96 6.55598 763.466 4.01466 763.471 1.44928Z" fill="#4C9C79"/>
<path d="M782.736 21C785.27 21.0019 787.78 21.5103 790.12 22.496C792.46 23.4817 794.585 24.9254 796.374 26.7443C798.162 28.5632 799.578 30.7216 800.541 33.0957C801.504 35.4699 801.995 38.0131 801.986 40.5797C799.451 40.5778 796.942 40.0695 794.601 39.0837C792.261 38.098 790.136 36.6544 788.348 34.8354C786.559 33.0165 785.143 30.8582 784.18 28.484C783.217 26.1099 782.726 23.5666 782.736 21Z" fill="#4C9C79"/>
<path d="M763.486 40.5072C763.486 37.9394 763.986 35.3968 764.959 33.0254C765.932 30.6539 767.357 28.5003 769.153 26.6879C770.95 24.8755 773.082 23.4402 775.428 22.4641C777.773 21.488 780.286 20.9905 782.822 21C782.822 26.1737 780.792 31.1354 777.179 34.7937C773.567 38.452 768.667 40.5072 763.557 40.5072H763.486Z" fill="#4C9C79"/>
<path d="M782.693 21C782.693 18.4383 783.191 15.9016 784.159 13.5349C785.127 11.1682 786.546 9.01768 788.335 7.20626C790.124 5.39485 792.248 3.95801 794.585 2.97768C796.922 1.99735 799.427 1.49275 801.957 1.49275C801.957 6.6664 799.927 11.6281 796.315 15.2864C792.702 18.9448 787.802 21 782.693 21Z" fill="#4C9C79"/>
<path d="M612.549 12.2174V2.07245L571.029 2.07245V12.2174L612.549 12.2174Z" fill="#277080"/>
<path d="M612.549 26.0724V15.9275L571.029 15.9275V26.0724H612.549Z" fill="#277080"/>
<path d="M612.549 39.942V29.7971L571.029 29.7971V39.942H612.549Z" fill="#277080"/>
<path d="M385.643 39.7391H389.593V2.26087H385.643V39.7391Z" fill="#277080"/>
<path d="M392.255 39.7391H396.205V2.26087H392.255V39.7391Z" fill="#277080"/>
<path d="M398.867 39.7391H402.818V2.26087H398.867V39.7391Z" fill="#277080"/>
<path d="M405.48 39.7391H409.43V2.26087H405.48V39.7391Z" fill="#277080"/>
<path d="M412.092 39.7391H416.042V2.26087H412.092V39.7391Z" fill="#277080"/>
<path d="M382.337 5.6087V9.60867L419.348 9.60867V5.6087L382.337 5.6087Z" fill="#277080"/>
<path d="M382.337 12.3044V16.3043L419.348 16.3043V12.3044L382.337 12.3044Z" fill="#277080"/>
<path d="M382.337 19V23L419.348 23V19L382.337 19Z" fill="#277080"/>
<path d="M382.337 25.6957V29.6956L419.348 29.6956V25.6957L382.337 25.6957Z" fill="#277080"/>
<path d="M382.337 32.3913V36.3913H419.348V32.3913H382.337Z" fill="#277080"/>
<path d="M216.358 6.55072L209.903 0.55072L203.463 6.55072L190.181 18.8696L196.636 24.8696L209.903 12.5362L223.185 24.8696L229.625 18.8696L216.358 6.55072Z" fill="#277080"/>
<path d="M216.358 23.1304L209.903 17.1449L203.463 23.1304L190.181 35.4638L196.636 41.4493L209.903 29.1304L223.185 41.4493L229.625 35.4638L216.358 23.1304Z" fill="#277080"/>
</g>
<defs>
<clipPath id="clip0_7_224">
<rect width="802" height="42" fill="white"/>
</clipPath>
</defs>
</svg>
